<mxfile host="app.diagrams.net" agent="Mozilla/5.0 (Macintosh; Intel Mac OS X 10_15_7) AppleWebKit/537.36 (KHTML, like Gecko) Chrome/127.0.0.0 Safari/537.36" version="24.7.10">
  <diagram name="Page-1" id="5Tde7ha2RsdFFHFPNxt6">
    <mxGraphModel dx="1183" dy="-319" grid="1" gridSize="10" guides="1" tooltips="1" connect="1" arrows="1" fold="1" page="1" pageScale="1" pageWidth="850" pageHeight="1100" math="0" shadow="0">
      <root>
        <mxCell id="0" />
        <mxCell id="1" parent="0" />
        <mxCell id="TqfSNeynW-cu8Um2pJsx-104" value="SQL query&lt;div&gt;results from DB&lt;/div&gt;" style="rounded=0;whiteSpace=wrap;html=1;fillColor=#d5e8d4;strokeColor=#82b366;strokeWidth=2;" parent="1" vertex="1">
          <mxGeometry x="700" y="1920" width="80" height="50" as="geometry" />
        </mxCell>
        <mxCell id="TqfSNeynW-cu8Um2pJsx-35" value="" style="html=1;whiteSpace=wrap;shape=isoCube2;backgroundOutline=1;isoAngle=15;" parent="1" vertex="1">
          <mxGeometry x="460" y="1460" width="60" height="70" as="geometry" />
        </mxCell>
        <mxCell id="TqfSNeynW-cu8Um2pJsx-17" style="edgeStyle=orthogonalEdgeStyle;rounded=0;orthogonalLoop=1;jettySize=auto;html=1;entryX=0;entryY=0.5;entryDx=0;entryDy=0;" parent="1" source="TqfSNeynW-cu8Um2pJsx-2" target="TqfSNeynW-cu8Um2pJsx-5" edge="1">
          <mxGeometry relative="1" as="geometry" />
        </mxCell>
        <mxCell id="TqfSNeynW-cu8Um2pJsx-2" value="Upload file(s)&lt;div&gt;&lt;b&gt;/{SummarizeMode}&lt;/b&gt;&lt;/div&gt;&lt;div&gt;- /Individual&lt;/div&gt;&lt;div&gt;- /Combined&lt;/div&gt;" style="rounded=0;whiteSpace=wrap;html=1;fillColor=#dae8fc;strokeColor=#6c8ebf;strokeWidth=2;" parent="1" vertex="1">
          <mxGeometry x="213.75" y="2105.5" width="120" height="71" as="geometry" />
        </mxCell>
        <mxCell id="TqfSNeynW-cu8Um2pJsx-16" style="edgeStyle=orthogonalEdgeStyle;rounded=0;orthogonalLoop=1;jettySize=auto;html=1;entryX=0;entryY=0.5;entryDx=0;entryDy=0;" parent="1" source="TqfSNeynW-cu8Um2pJsx-3" target="TqfSNeynW-cu8Um2pJsx-4" edge="1">
          <mxGeometry relative="1" as="geometry" />
        </mxCell>
        <mxCell id="TqfSNeynW-cu8Um2pJsx-3" value="Download file from URL" style="rounded=0;whiteSpace=wrap;html=1;fillColor=#dae8fc;strokeColor=#6c8ebf;strokeWidth=2;" parent="1" vertex="1">
          <mxGeometry x="213.75" y="1995.5" width="120" height="60" as="geometry" />
        </mxCell>
        <mxCell id="TqfSNeynW-cu8Um2pJsx-19" style="edgeStyle=orthogonalEdgeStyle;rounded=0;orthogonalLoop=1;jettySize=auto;html=1;entryX=0;entryY=0.5;entryDx=0;entryDy=0;" parent="1" source="TqfSNeynW-cu8Um2pJsx-4" target="TqfSNeynW-cu8Um2pJsx-6" edge="1">
          <mxGeometry relative="1" as="geometry" />
        </mxCell>
        <mxCell id="TqfSNeynW-cu8Um2pJsx-4" value="Summarize&amp;nbsp;&lt;div&gt;with LLM&lt;/div&gt;" style="rounded=1;whiteSpace=wrap;html=1;fillColor=#e1d5e7;strokeColor=#9673a6;strokeWidth=2;" parent="1" vertex="1">
          <mxGeometry x="393.75" y="1995.5" width="100" height="60" as="geometry" />
        </mxCell>
        <mxCell id="TqfSNeynW-cu8Um2pJsx-20" style="edgeStyle=orthogonalEdgeStyle;rounded=0;orthogonalLoop=1;jettySize=auto;html=1;entryX=-0.019;entryY=0.497;entryDx=0;entryDy=0;entryPerimeter=0;" parent="1" source="TqfSNeynW-cu8Um2pJsx-5" target="TqfSNeynW-cu8Um2pJsx-8" edge="1">
          <mxGeometry relative="1" as="geometry">
            <mxPoint x="567.75" y="2085.5" as="targetPoint" />
            <Array as="points">
              <mxPoint x="533.75" y="2140.5" />
              <mxPoint x="533.75" y="2085.5" />
            </Array>
          </mxGeometry>
        </mxCell>
        <mxCell id="TqfSNeynW-cu8Um2pJsx-21" style="edgeStyle=orthogonalEdgeStyle;rounded=0;orthogonalLoop=1;jettySize=auto;html=1;entryX=0;entryY=0.5;entryDx=0;entryDy=0;" parent="1" source="TqfSNeynW-cu8Um2pJsx-5" target="TqfSNeynW-cu8Um2pJsx-10" edge="1">
          <mxGeometry relative="1" as="geometry">
            <Array as="points">
              <mxPoint x="534" y="2141" />
              <mxPoint x="534" y="2181" />
            </Array>
          </mxGeometry>
        </mxCell>
        <mxCell id="TqfSNeynW-cu8Um2pJsx-5" value="Summarize&amp;nbsp;&lt;div&gt;with LLM&lt;/div&gt;" style="rounded=1;whiteSpace=wrap;html=1;fillColor=#e1d5e7;strokeColor=#9673a6;strokeWidth=2;" parent="1" vertex="1">
          <mxGeometry x="393.75" y="2111" width="100" height="60" as="geometry" />
        </mxCell>
        <mxCell id="TqfSNeynW-cu8Um2pJsx-6" value="File summary" style="rounded=0;whiteSpace=wrap;html=1;fillColor=#d5e8d4;strokeColor=#82b366;strokeWidth=2;" parent="1" vertex="1">
          <mxGeometry x="580" y="2005.5" width="120" height="40" as="geometry" />
        </mxCell>
        <mxCell id="TqfSNeynW-cu8Um2pJsx-8" value="" style="rounded=0;whiteSpace=wrap;html=1;fillColor=#d5e8d4;strokeColor=#82b366;strokeWidth=2;" parent="1" vertex="1">
          <mxGeometry x="573.75" y="2065.5" width="120" height="40" as="geometry" />
        </mxCell>
        <mxCell id="TqfSNeynW-cu8Um2pJsx-10" value="Combined Summary" style="rounded=0;whiteSpace=wrap;html=1;fillColor=#d5e8d4;strokeColor=#82b366;strokeWidth=2;" parent="1" vertex="1">
          <mxGeometry x="580" y="2161" width="120" height="40" as="geometry" />
        </mxCell>
        <mxCell id="TqfSNeynW-cu8Um2pJsx-12" style="edgeStyle=orthogonalEdgeStyle;rounded=0;orthogonalLoop=1;jettySize=auto;html=1;entryX=0;entryY=0.5;entryDx=0;entryDy=0;" parent="1" source="TqfSNeynW-cu8Um2pJsx-11" target="TqfSNeynW-cu8Um2pJsx-3" edge="1">
          <mxGeometry relative="1" as="geometry" />
        </mxCell>
        <mxCell id="TqfSNeynW-cu8Um2pJsx-13" style="edgeStyle=orthogonalEdgeStyle;rounded=0;orthogonalLoop=1;jettySize=auto;html=1;entryX=0;entryY=0.5;entryDx=0;entryDy=0;" parent="1" source="TqfSNeynW-cu8Um2pJsx-11" target="TqfSNeynW-cu8Um2pJsx-2" edge="1">
          <mxGeometry relative="1" as="geometry" />
        </mxCell>
        <mxCell id="TqfSNeynW-cu8Um2pJsx-11" value="/summarize" style="text;strokeColor=none;fillColor=none;html=1;fontSize=24;fontStyle=1;verticalAlign=middle;align=center;" parent="1" vertex="1">
          <mxGeometry x="21" y="2065.5" width="100" height="40" as="geometry" />
        </mxCell>
        <mxCell id="TqfSNeynW-cu8Um2pJsx-14" value="/urls" style="text;strokeColor=none;fillColor=none;html=1;fontSize=18;fontStyle=1;verticalAlign=middle;align=center;" parent="1" vertex="1">
          <mxGeometry x="113.75" y="1992.5" width="100" height="40" as="geometry" />
        </mxCell>
        <mxCell id="TqfSNeynW-cu8Um2pJsx-15" value="/files" style="text;strokeColor=none;fillColor=none;html=1;fontSize=18;fontStyle=1;verticalAlign=middle;align=center;" parent="1" vertex="1">
          <mxGeometry x="113.75" y="2131" width="100" height="40" as="geometry" />
        </mxCell>
        <mxCell id="TqfSNeynW-cu8Um2pJsx-18" value="&lt;span style=&quot;font-weight: normal;&quot;&gt;&lt;font style=&quot;font-size: 10px;&quot;&gt;file&amp;nbsp;&lt;/font&gt;&lt;/span&gt;&lt;span style=&quot;font-size: 10px; font-weight: normal; background-color: initial;&quot;&gt;contents&lt;/span&gt;" style="text;strokeColor=none;fillColor=none;html=1;fontSize=24;fontStyle=1;verticalAlign=middle;align=center;" parent="1" vertex="1">
          <mxGeometry x="323.75" y="2015.5" width="80" height="30" as="geometry" />
        </mxCell>
        <mxCell id="TqfSNeynW-cu8Um2pJsx-23" value="&lt;div style=&quot;forced-color-adjust: none; color: rgb(0, 0, 0); font-family: Helvetica; font-size: 12px; font-style: normal; font-variant-ligatures: normal; font-variant-caps: normal; font-weight: 400; letter-spacing: normal; orphans: 2; text-align: center; text-indent: 0px; text-transform: none; widows: 2; word-spacing: 0px; -webkit-text-stroke-width: 0px; white-space: normal; background-color: rgb(251, 251, 251); text-decoration-thickness: initial; text-decoration-style: initial; text-decoration-color: initial;&quot;&gt;&lt;b style=&quot;forced-color-adjust: none;&quot;&gt;/individual&lt;/b&gt;&lt;/div&gt;" style="text;whiteSpace=wrap;html=1;" parent="1" vertex="1">
          <mxGeometry x="499.63" y="2085.5" width="60" height="30" as="geometry" />
        </mxCell>
        <mxCell id="TqfSNeynW-cu8Um2pJsx-26" value="&lt;div style=&quot;forced-color-adjust: none; color: rgb(0, 0, 0); font-family: Helvetica; font-size: 12px; font-style: normal; font-variant-ligatures: normal; font-variant-caps: normal; letter-spacing: normal; orphans: 2; text-align: center; text-indent: 0px; text-transform: none; widows: 2; word-spacing: 0px; -webkit-text-stroke-width: 0px; white-space: normal; background-color: rgb(251, 251, 251); text-decoration-thickness: initial; text-decoration-style: initial; text-decoration-color: initial;&quot;&gt;&lt;b&gt;/combined&lt;/b&gt;&lt;/div&gt;" style="text;whiteSpace=wrap;html=1;" parent="1" vertex="1">
          <mxGeometry x="499.63" y="2155.5" width="60" height="30" as="geometry" />
        </mxCell>
        <mxCell id="TqfSNeynW-cu8Um2pJsx-27" style="edgeStyle=orthogonalEdgeStyle;rounded=0;orthogonalLoop=1;jettySize=auto;html=1;exitX=0.5;exitY=1;exitDx=0;exitDy=0;" parent="1" source="TqfSNeynW-cu8Um2pJsx-15" target="TqfSNeynW-cu8Um2pJsx-15" edge="1">
          <mxGeometry relative="1" as="geometry" />
        </mxCell>
        <mxCell id="TqfSNeynW-cu8Um2pJsx-30" style="edgeStyle=orthogonalEdgeStyle;rounded=0;orthogonalLoop=1;jettySize=auto;html=1;entryX=0;entryY=0.5;entryDx=0;entryDy=0;" parent="1" source="TqfSNeynW-cu8Um2pJsx-28" target="TqfSNeynW-cu8Um2pJsx-29" edge="1">
          <mxGeometry relative="1" as="geometry" />
        </mxCell>
        <mxCell id="TqfSNeynW-cu8Um2pJsx-28" value="/qa" style="text;strokeColor=none;fillColor=none;html=1;fontSize=24;fontStyle=1;verticalAlign=middle;align=center;" parent="1" vertex="1">
          <mxGeometry x="15" y="1390" width="50" height="40" as="geometry" />
        </mxCell>
        <mxCell id="TqfSNeynW-cu8Um2pJsx-34" style="edgeStyle=orthogonalEdgeStyle;rounded=0;orthogonalLoop=1;jettySize=auto;html=1;entryX=0;entryY=0.5;entryDx=0;entryDy=0;" parent="1" source="TqfSNeynW-cu8Um2pJsx-29" target="TqfSNeynW-cu8Um2pJsx-31" edge="1">
          <mxGeometry relative="1" as="geometry" />
        </mxCell>
        <mxCell id="TqfSNeynW-cu8Um2pJsx-29" value="query for RAG" style="rounded=0;whiteSpace=wrap;html=1;fillColor=#dae8fc;strokeColor=#6c8ebf;strokeWidth=2;" parent="1" vertex="1">
          <mxGeometry x="150" y="1380" width="120" height="60" as="geometry" />
        </mxCell>
        <mxCell id="TqfSNeynW-cu8Um2pJsx-77" style="edgeStyle=orthogonalEdgeStyle;rounded=0;orthogonalLoop=1;jettySize=auto;html=1;entryX=0.532;entryY=1.006;entryDx=0;entryDy=0;entryPerimeter=0;" parent="1" source="TqfSNeynW-cu8Um2pJsx-31" target="TqfSNeynW-cu8Um2pJsx-41" edge="1">
          <mxGeometry relative="1" as="geometry">
            <mxPoint x="610" y="1510" as="targetPoint" />
            <Array as="points">
              <mxPoint x="500" y="1410" />
              <mxPoint x="500" y="1510" />
              <mxPoint x="613" y="1510" />
            </Array>
          </mxGeometry>
        </mxCell>
        <mxCell id="TqfSNeynW-cu8Um2pJsx-84" value="&lt;span style=&quot;background-color: rgb(251, 251, 251); font-size: 10px;&quot;&gt;Similarity Search against&lt;/span&gt;&lt;div style=&quot;font-size: 12px; text-wrap: wrap; background-color: rgb(251, 251, 251);&quot;&gt;&lt;span style=&quot;font-size: 10px; text-wrap: nowrap; background-color: initial;&quot;&gt;docs in vector DB&lt;/span&gt;&lt;/div&gt;" style="edgeLabel;html=1;align=center;verticalAlign=middle;resizable=0;points=[];" parent="TqfSNeynW-cu8Um2pJsx-77" vertex="1" connectable="0">
          <mxGeometry x="-0.0922" y="2" relative="1" as="geometry">
            <mxPoint x="-12" y="-49" as="offset" />
          </mxGeometry>
        </mxCell>
        <mxCell id="TqfSNeynW-cu8Um2pJsx-124" value="Query + Relevant&lt;div&gt;Document Chunks&lt;/div&gt;" style="edgeLabel;html=1;align=center;verticalAlign=middle;resizable=0;points=[];" parent="TqfSNeynW-cu8Um2pJsx-77" vertex="1" connectable="0">
          <mxGeometry x="0.7755" y="1" relative="1" as="geometry">
            <mxPoint as="offset" />
          </mxGeometry>
        </mxCell>
        <mxCell id="TqfSNeynW-cu8Um2pJsx-31" value="&lt;div&gt;Text Embedding&lt;/div&gt;&lt;div&gt;Model&lt;/div&gt;" style="rounded=1;whiteSpace=wrap;html=1;fillColor=#e1d5e7;strokeColor=#9673a6;strokeWidth=2;" parent="1" vertex="1">
          <mxGeometry x="299.01" y="1383.75" width="110" height="52.5" as="geometry" />
        </mxCell>
        <mxCell id="TqfSNeynW-cu8Um2pJsx-32" value="&lt;span style=&quot;font-weight: normal;&quot;&gt;&lt;font style=&quot;font-size: 10px;&quot;&gt;file&amp;nbsp;&lt;/font&gt;&lt;/span&gt;&lt;span style=&quot;font-size: 10px; font-weight: normal; background-color: initial;&quot;&gt;contents&lt;/span&gt;" style="text;strokeColor=none;fillColor=none;html=1;fontSize=24;fontStyle=1;verticalAlign=middle;align=center;" parent="1" vertex="1">
          <mxGeometry x="323.75" y="2131" width="80" height="30" as="geometry" />
        </mxCell>
        <mxCell id="TqfSNeynW-cu8Um2pJsx-81" style="edgeStyle=orthogonalEdgeStyle;rounded=0;orthogonalLoop=1;jettySize=auto;html=1;entryX=-0.048;entryY=0.706;entryDx=0;entryDy=0;entryPerimeter=0;" parent="1" source="TqfSNeynW-cu8Um2pJsx-33" target="TqfSNeynW-cu8Um2pJsx-35" edge="1">
          <mxGeometry relative="1" as="geometry">
            <mxPoint x="390" y="1510" as="targetPoint" />
            <Array as="points">
              <mxPoint x="309" y="1430" />
              <mxPoint x="400" y="1430" />
              <mxPoint x="400" y="1509" />
            </Array>
          </mxGeometry>
        </mxCell>
        <mxCell id="TqfSNeynW-cu8Um2pJsx-83" value="&lt;span style=&quot;background-color: rgb(251, 251, 251); font-size: 10px;&quot;&gt;Store Embs in&lt;/span&gt;&lt;div style=&quot;font-size: 12px; text-wrap: wrap; background-color: rgb(251, 251, 251);&quot;&gt;&lt;span style=&quot;font-size: 10px; text-wrap: nowrap;&quot;&gt;vector DB&lt;/span&gt;&lt;/div&gt;" style="edgeLabel;html=1;align=center;verticalAlign=middle;resizable=0;points=[];" parent="TqfSNeynW-cu8Um2pJsx-81" vertex="1" connectable="0">
          <mxGeometry x="0.3785" relative="1" as="geometry">
            <mxPoint y="-11" as="offset" />
          </mxGeometry>
        </mxCell>
        <mxCell id="TqfSNeynW-cu8Um2pJsx-33" value="&lt;div&gt;&lt;br&gt;&lt;/div&gt;&lt;div&gt;&lt;br&gt;&lt;/div&gt;&lt;div&gt;TextSplitter&lt;/div&gt;" style="rounded=1;whiteSpace=wrap;html=1;" parent="1" vertex="1">
          <mxGeometry x="230" y="1490" width="150" height="52" as="geometry" />
        </mxCell>
        <mxCell id="TqfSNeynW-cu8Um2pJsx-47" style="edgeStyle=orthogonalEdgeStyle;rounded=0;orthogonalLoop=1;jettySize=auto;html=1;entryX=0;entryY=0.5;entryDx=0;entryDy=0;" parent="1" source="TqfSNeynW-cu8Um2pJsx-41" target="TqfSNeynW-cu8Um2pJsx-45" edge="1">
          <mxGeometry relative="1" as="geometry" />
        </mxCell>
        <mxCell id="TqfSNeynW-cu8Um2pJsx-41" value="&lt;div&gt;Answer with&lt;/div&gt;&lt;div&gt;&amp;nbsp;LLM&lt;/div&gt;" style="rounded=1;whiteSpace=wrap;html=1;fillColor=#e1d5e7;strokeColor=#9673a6;strokeWidth=2;" parent="1" vertex="1">
          <mxGeometry x="560" y="1390" width="100" height="50" as="geometry" />
        </mxCell>
        <mxCell id="TqfSNeynW-cu8Um2pJsx-45" value="Answered Query&lt;div&gt;from LLM&lt;/div&gt;" style="rounded=0;whiteSpace=wrap;html=1;fillColor=#d5e8d4;strokeColor=#82b366;strokeWidth=2;" parent="1" vertex="1">
          <mxGeometry x="690" y="1395" width="90" height="40" as="geometry" />
        </mxCell>
        <mxCell id="TqfSNeynW-cu8Um2pJsx-54" style="edgeStyle=orthogonalEdgeStyle;rounded=0;orthogonalLoop=1;jettySize=auto;html=1;entryX=0;entryY=0.5;entryDx=0;entryDy=0;" parent="1" source="TqfSNeynW-cu8Um2pJsx-48" target="TqfSNeynW-cu8Um2pJsx-51" edge="1">
          <mxGeometry relative="1" as="geometry" />
        </mxCell>
        <mxCell id="TqfSNeynW-cu8Um2pJsx-48" value="/upsert" style="text;strokeColor=none;fillColor=none;html=1;fontSize=24;fontStyle=1;verticalAlign=middle;align=center;" parent="1" vertex="1">
          <mxGeometry y="1650" width="90" height="40" as="geometry" />
        </mxCell>
        <mxCell id="TqfSNeynW-cu8Um2pJsx-56" style="edgeStyle=orthogonalEdgeStyle;rounded=0;orthogonalLoop=1;jettySize=auto;html=1;entryX=0;entryY=0.5;entryDx=0;entryDy=0;" parent="1" source="TqfSNeynW-cu8Um2pJsx-49" target="TqfSNeynW-cu8Um2pJsx-53" edge="1">
          <mxGeometry relative="1" as="geometry">
            <Array as="points">
              <mxPoint x="108" y="1875" />
              <mxPoint x="108" y="1815" />
            </Array>
          </mxGeometry>
        </mxCell>
        <mxCell id="TqfSNeynW-cu8Um2pJsx-57" style="edgeStyle=orthogonalEdgeStyle;rounded=0;orthogonalLoop=1;jettySize=auto;html=1;entryX=0;entryY=0.5;entryDx=0;entryDy=0;" parent="1" source="TqfSNeynW-cu8Um2pJsx-49" target="TqfSNeynW-cu8Um2pJsx-52" edge="1">
          <mxGeometry relative="1" as="geometry">
            <Array as="points">
              <mxPoint x="108" y="1875" />
              <mxPoint x="108" y="1923" />
            </Array>
          </mxGeometry>
        </mxCell>
        <mxCell id="TqfSNeynW-cu8Um2pJsx-49" value="/sql" style="text;strokeColor=none;fillColor=none;html=1;fontSize=24;fontStyle=1;verticalAlign=middle;align=center;" parent="1" vertex="1">
          <mxGeometry x="15" y="1854.5" width="50" height="40" as="geometry" />
        </mxCell>
        <mxCell id="TqfSNeynW-cu8Um2pJsx-74" style="edgeStyle=orthogonalEdgeStyle;rounded=0;orthogonalLoop=1;jettySize=auto;html=1;entryX=0;entryY=0.5;entryDx=0;entryDy=0;" parent="1" source="TqfSNeynW-cu8Um2pJsx-50" target="TqfSNeynW-cu8Um2pJsx-73" edge="1">
          <mxGeometry relative="1" as="geometry">
            <Array as="points">
              <mxPoint x="311" y="1716" />
              <mxPoint x="311" y="1745" />
            </Array>
          </mxGeometry>
        </mxCell>
        <mxCell id="TqfSNeynW-cu8Um2pJsx-85" style="edgeStyle=orthogonalEdgeStyle;rounded=0;orthogonalLoop=1;jettySize=auto;html=1;entryX=0;entryY=0.571;entryDx=0;entryDy=0;entryPerimeter=0;" parent="1" source="TqfSNeynW-cu8Um2pJsx-50" target="TqfSNeynW-cu8Um2pJsx-65" edge="1">
          <mxGeometry relative="1" as="geometry">
            <mxPoint x="310" y="1630" as="targetPoint" />
            <Array as="points">
              <mxPoint x="311" y="1716" />
              <mxPoint x="311" y="1630" />
            </Array>
          </mxGeometry>
        </mxCell>
        <mxCell id="TqfSNeynW-cu8Um2pJsx-50" value="Upload log file(s)&lt;div&gt;&lt;b&gt;/{LogFileType}&lt;/b&gt;&lt;/div&gt;&lt;div&gt;- Anomaly Det. Log&lt;/div&gt;&lt;div&gt;- Other Logs&lt;/div&gt;" style="rounded=0;whiteSpace=wrap;html=1;fillColor=#dae8fc;strokeColor=#6c8ebf;strokeWidth=2;" parent="1" vertex="1">
          <mxGeometry x="150" y="1680" width="124" height="71" as="geometry" />
        </mxCell>
        <mxCell id="TqfSNeynW-cu8Um2pJsx-75" style="edgeStyle=orthogonalEdgeStyle;rounded=0;orthogonalLoop=1;jettySize=auto;html=1;" parent="1" source="TqfSNeynW-cu8Um2pJsx-51" target="TqfSNeynW-cu8Um2pJsx-33" edge="1">
          <mxGeometry relative="1" as="geometry">
            <Array as="points">
              <mxPoint x="310" y="1606" />
            </Array>
          </mxGeometry>
        </mxCell>
        <mxCell id="TqfSNeynW-cu8Um2pJsx-51" value="Upload All file types" style="rounded=0;whiteSpace=wrap;html=1;fillColor=#dae8fc;strokeColor=#6c8ebf;strokeWidth=2;" parent="1" vertex="1">
          <mxGeometry x="150" y="1580" width="120" height="60" as="geometry" />
        </mxCell>
        <mxCell id="TqfSNeynW-cu8Um2pJsx-98" style="edgeStyle=orthogonalEdgeStyle;rounded=0;orthogonalLoop=1;jettySize=auto;html=1;entryX=-0.01;entryY=0.57;entryDx=0;entryDy=0;entryPerimeter=0;" parent="1" source="TqfSNeynW-cu8Um2pJsx-52" target="TqfSNeynW-cu8Um2pJsx-97" edge="1">
          <mxGeometry relative="1" as="geometry">
            <mxPoint x="403.7499999999999" y="1930.76" as="targetPoint" />
            <mxPoint x="251.15" y="1929.2140845070423" as="sourcePoint" />
          </mxGeometry>
        </mxCell>
        <mxCell id="TqfSNeynW-cu8Um2pJsx-99" value="PlainText Query&lt;div&gt;+&lt;/div&gt;&lt;div&gt;Table Info&lt;br&gt;+&lt;/div&gt;&lt;div&gt;SQL Generation&lt;/div&gt;&lt;div&gt;prompt guidance txt&lt;/div&gt;" style="edgeLabel;html=1;align=center;verticalAlign=middle;resizable=0;points=[];" parent="TqfSNeynW-cu8Um2pJsx-98" vertex="1" connectable="0">
          <mxGeometry x="-0.1214" y="-2" relative="1" as="geometry">
            <mxPoint x="5" y="1" as="offset" />
          </mxGeometry>
        </mxCell>
        <mxCell id="TqfSNeynW-cu8Um2pJsx-52" value="&lt;div&gt;PlainText SQL query&lt;/div&gt;&lt;div&gt;&lt;b&gt;/{LogFileType}&lt;/b&gt;&lt;/div&gt;&lt;div&gt;- Anomaly Det. Log&lt;/div&gt;&lt;div&gt;- Other Logs&lt;/div&gt;" style="rounded=0;whiteSpace=wrap;html=1;fillColor=#dae8fc;strokeColor=#6c8ebf;strokeWidth=2;" parent="1" vertex="1">
          <mxGeometry x="151" y="1887" width="120" height="71" as="geometry" />
        </mxCell>
        <mxCell id="TqfSNeynW-cu8Um2pJsx-53" value="Valid SQL query&lt;div&gt;SQL params&lt;/div&gt;" style="rounded=0;whiteSpace=wrap;html=1;fillColor=#dae8fc;strokeColor=#6c8ebf;strokeWidth=2;" parent="1" vertex="1">
          <mxGeometry x="150" y="1784.5" width="120" height="60" as="geometry" />
        </mxCell>
        <mxCell id="TqfSNeynW-cu8Um2pJsx-55" style="edgeStyle=orthogonalEdgeStyle;rounded=0;orthogonalLoop=1;jettySize=auto;html=1;entryX=0.003;entryY=0.58;entryDx=0;entryDy=0;entryPerimeter=0;" parent="1" source="TqfSNeynW-cu8Um2pJsx-48" target="TqfSNeynW-cu8Um2pJsx-50" edge="1">
          <mxGeometry relative="1" as="geometry" />
        </mxCell>
        <mxCell id="TqfSNeynW-cu8Um2pJsx-58" value="/files" style="text;strokeColor=none;fillColor=none;html=1;fontSize=18;fontStyle=1;verticalAlign=middle;align=center;" parent="1" vertex="1">
          <mxGeometry x="40" y="1580" width="100" height="40" as="geometry" />
        </mxCell>
        <mxCell id="TqfSNeynW-cu8Um2pJsx-59" value="/logs" style="text;strokeColor=none;fillColor=none;html=1;fontSize=18;fontStyle=1;verticalAlign=middle;align=center;" parent="1" vertex="1">
          <mxGeometry x="40" y="1711" width="100" height="40" as="geometry" />
        </mxCell>
        <mxCell id="TqfSNeynW-cu8Um2pJsx-60" value="/script" style="text;strokeColor=none;fillColor=none;html=1;fontSize=18;fontStyle=1;verticalAlign=middle;align=center;" parent="1" vertex="1">
          <mxGeometry x="40" y="1778.5" width="100" height="40" as="geometry" />
        </mxCell>
        <mxCell id="TqfSNeynW-cu8Um2pJsx-61" value="/qa" style="text;strokeColor=none;fillColor=none;html=1;fontSize=18;fontStyle=1;verticalAlign=middle;align=center;" parent="1" vertex="1">
          <mxGeometry x="65" y="1910" width="56" height="40" as="geometry" />
        </mxCell>
        <mxCell id="TqfSNeynW-cu8Um2pJsx-64" value="File Info" style="swimlane;fontStyle=0;childLayout=stackLayout;horizontal=1;startSize=30;horizontalStack=0;resizeParent=1;resizeParentMax=0;resizeLast=0;collapsible=1;marginBottom=0;whiteSpace=wrap;html=1;" parent="1" vertex="1">
          <mxGeometry x="350" y="1560" width="100" height="100" as="geometry" />
        </mxCell>
        <mxCell id="TqfSNeynW-cu8Um2pJsx-65" value="- file md5 hash&lt;div&gt;- Inserted date&lt;/div&gt;&lt;div&gt;- file type&lt;/div&gt;&lt;div&gt;- size&lt;/div&gt;" style="text;strokeColor=none;fillColor=none;align=left;verticalAlign=middle;spacingLeft=4;spacingRight=4;overflow=hidden;points=[[0,0.5],[1,0.5]];portConstraint=eastwest;rotatable=0;whiteSpace=wrap;html=1;" parent="TqfSNeynW-cu8Um2pJsx-64" vertex="1">
          <mxGeometry y="30" width="100" height="70" as="geometry" />
        </mxCell>
        <mxCell id="TqfSNeynW-cu8Um2pJsx-103" style="edgeStyle=orthogonalEdgeStyle;rounded=0;orthogonalLoop=1;jettySize=auto;html=1;" parent="1" target="TqfSNeynW-cu8Um2pJsx-104" edge="1">
          <mxGeometry relative="1" as="geometry">
            <mxPoint x="705" y="1954.5" as="targetPoint" />
            <mxPoint x="690" y="1624.5" as="sourcePoint" />
            <Array as="points">
              <mxPoint x="689" y="1625" />
              <mxPoint x="689" y="1954" />
            </Array>
          </mxGeometry>
        </mxCell>
        <mxCell id="TqfSNeynW-cu8Um2pJsx-125" style="edgeStyle=orthogonalEdgeStyle;rounded=0;orthogonalLoop=1;jettySize=auto;html=1;" parent="1" source="TqfSNeynW-cu8Um2pJsx-69" edge="1">
          <mxGeometry relative="1" as="geometry">
            <mxPoint x="735.1509433962265" y="1824.0188679245284" as="targetPoint" />
            <Array as="points">
              <mxPoint x="736" y="1742" />
              <mxPoint x="735" y="1742" />
            </Array>
          </mxGeometry>
        </mxCell>
        <mxCell id="TqfSNeynW-cu8Um2pJsx-69" value="&lt;div&gt;&lt;br&gt;&lt;/div&gt;&lt;div&gt;&lt;br&gt;&lt;/div&gt;MySQL DB" style="shape=cylinder3;whiteSpace=wrap;html=1;boundedLbl=1;backgroundOutline=1;size=15;strokeWidth=2;" parent="1" vertex="1">
          <mxGeometry x="660" y="1570" width="90" height="90" as="geometry" />
        </mxCell>
        <mxCell id="TqfSNeynW-cu8Um2pJsx-70" style="edgeStyle=orthogonalEdgeStyle;rounded=0;orthogonalLoop=1;jettySize=auto;html=1;entryX=-0.022;entryY=0.279;entryDx=0;entryDy=0;entryPerimeter=0;" parent="1" source="TqfSNeynW-cu8Um2pJsx-51" target="TqfSNeynW-cu8Um2pJsx-65" edge="1">
          <mxGeometry relative="1" as="geometry" />
        </mxCell>
        <mxCell id="TqfSNeynW-cu8Um2pJsx-72" value="Log Content" style="swimlane;fontStyle=0;childLayout=stackLayout;horizontal=1;startSize=30;horizontalStack=0;resizeParent=1;resizeParentMax=0;resizeLast=0;collapsible=1;marginBottom=0;whiteSpace=wrap;html=1;" parent="1" vertex="1">
          <mxGeometry x="350" y="1680" width="100" height="100" as="geometry" />
        </mxCell>
        <mxCell id="TqfSNeynW-cu8Um2pJsx-73" value="- Log file line 1&lt;div&gt;- Log file line 2&lt;/div&gt;&lt;div&gt;........&lt;/div&gt;" style="text;strokeColor=none;fillColor=none;align=left;verticalAlign=middle;spacingLeft=4;spacingRight=4;overflow=hidden;points=[[0,0.5],[1,0.5]];portConstraint=eastwest;rotatable=0;whiteSpace=wrap;html=1;" parent="TqfSNeynW-cu8Um2pJsx-72" vertex="1">
          <mxGeometry y="30" width="100" height="70" as="geometry" />
        </mxCell>
        <mxCell id="TqfSNeynW-cu8Um2pJsx-86" style="edgeStyle=orthogonalEdgeStyle;rounded=0;orthogonalLoop=1;jettySize=auto;html=1;entryX=-0.038;entryY=0.568;entryDx=0;entryDy=0;entryPerimeter=0;" parent="1" source="TqfSNeynW-cu8Um2pJsx-65" target="TqfSNeynW-cu8Um2pJsx-69" edge="1">
          <mxGeometry relative="1" as="geometry">
            <Array as="points">
              <mxPoint x="555" y="1621" />
            </Array>
          </mxGeometry>
        </mxCell>
        <mxCell id="TqfSNeynW-cu8Um2pJsx-89" value="Insert" style="edgeLabel;html=1;align=center;verticalAlign=middle;resizable=0;points=[];" parent="TqfSNeynW-cu8Um2pJsx-86" vertex="1" connectable="0">
          <mxGeometry x="-0.4834" relative="1" as="geometry">
            <mxPoint x="4" as="offset" />
          </mxGeometry>
        </mxCell>
        <mxCell id="TqfSNeynW-cu8Um2pJsx-88" style="edgeStyle=orthogonalEdgeStyle;rounded=0;orthogonalLoop=1;jettySize=auto;html=1;entryX=-0.031;entryY=0.616;entryDx=0;entryDy=0;entryPerimeter=0;" parent="1" source="TqfSNeynW-cu8Um2pJsx-73" target="TqfSNeynW-cu8Um2pJsx-69" edge="1">
          <mxGeometry relative="1" as="geometry">
            <mxPoint x="550" y="1630" as="targetPoint" />
            <Array as="points">
              <mxPoint x="551" y="1745" />
              <mxPoint x="551" y="1626" />
              <mxPoint x="657" y="1626" />
            </Array>
          </mxGeometry>
        </mxCell>
        <mxCell id="TqfSNeynW-cu8Um2pJsx-91" value="Insert" style="edgeLabel;html=1;align=center;verticalAlign=middle;resizable=0;points=[];" parent="TqfSNeynW-cu8Um2pJsx-88" vertex="1" connectable="0">
          <mxGeometry x="-0.7213" y="3" relative="1" as="geometry">
            <mxPoint x="9" y="2" as="offset" />
          </mxGeometry>
        </mxCell>
        <mxCell id="TqfSNeynW-cu8Um2pJsx-92" style="edgeStyle=orthogonalEdgeStyle;rounded=0;orthogonalLoop=1;jettySize=auto;html=1;entryX=0.778;entryY=1;entryDx=0;entryDy=0;entryPerimeter=0;" parent="1" source="TqfSNeynW-cu8Um2pJsx-53" target="TqfSNeynW-cu8Um2pJsx-69" edge="1">
          <mxGeometry relative="1" as="geometry">
            <mxPoint x="719.31" y="1620" as="targetPoint" />
            <Array as="points">
              <mxPoint x="731" y="1815" />
              <mxPoint x="731" y="1660" />
            </Array>
          </mxGeometry>
        </mxCell>
        <mxCell id="TqfSNeynW-cu8Um2pJsx-95" value="Run SQL query&amp;nbsp;&lt;div&gt;against Database&lt;/div&gt;" style="edgeLabel;html=1;align=center;verticalAlign=middle;resizable=0;points=[];" parent="TqfSNeynW-cu8Um2pJsx-92" vertex="1" connectable="0">
          <mxGeometry x="-0.2495" y="3" relative="1" as="geometry">
            <mxPoint x="-31" y="3" as="offset" />
          </mxGeometry>
        </mxCell>
        <mxCell id="TqfSNeynW-cu8Um2pJsx-94" value="SQL query&lt;div&gt;results from DB&lt;/div&gt;" style="rounded=0;whiteSpace=wrap;html=1;fillColor=#d5e8d4;strokeColor=#82b366;strokeWidth=2;" parent="1" vertex="1">
          <mxGeometry x="700" y="1824.5" width="80" height="50" as="geometry" />
        </mxCell>
        <mxCell id="TqfSNeynW-cu8Um2pJsx-100" style="edgeStyle=orthogonalEdgeStyle;rounded=0;orthogonalLoop=1;jettySize=auto;html=1;" parent="1" source="TqfSNeynW-cu8Um2pJsx-97" edge="1">
          <mxGeometry relative="1" as="geometry">
            <mxPoint x="550" y="1920" as="targetPoint" />
          </mxGeometry>
        </mxCell>
        <mxCell id="TqfSNeynW-cu8Um2pJsx-97" value="Text to SQL&amp;nbsp;&lt;div&gt;with LLM&lt;/div&gt;" style="rounded=1;whiteSpace=wrap;html=1;fillColor=#e1d5e7;strokeColor=#9673a6;strokeWidth=2;" parent="1" vertex="1">
          <mxGeometry x="420" y="1890" width="100" height="60" as="geometry" />
        </mxCell>
        <mxCell id="TqfSNeynW-cu8Um2pJsx-102" style="edgeStyle=orthogonalEdgeStyle;rounded=0;orthogonalLoop=1;jettySize=auto;html=1;entryX=0.256;entryY=0.994;entryDx=0;entryDy=0;entryPerimeter=0;" parent="1" source="TqfSNeynW-cu8Um2pJsx-101" target="TqfSNeynW-cu8Um2pJsx-69" edge="1">
          <mxGeometry relative="1" as="geometry">
            <mxPoint x="684" y="1624.5" as="targetPoint" />
            <Array as="points">
              <mxPoint x="684" y="1930" />
              <mxPoint x="684" y="1659" />
            </Array>
          </mxGeometry>
        </mxCell>
        <mxCell id="TqfSNeynW-cu8Um2pJsx-101" value="Postprocess &amp;amp; Clean SQL query from LLM" style="rounded=1;whiteSpace=wrap;html=1;" parent="1" vertex="1">
          <mxGeometry x="550" y="1890" width="100" height="60" as="geometry" />
        </mxCell>
        <mxCell id="TqfSNeynW-cu8Um2pJsx-107" value="" style="shape=image;verticalLabelPosition=bottom;labelBackgroundColor=default;verticalAlign=top;aspect=fixed;imageAspect=0;image=data:image/png,iVBORw0KGgoAAAANSUhEUgAAAQQAAAEECAYAAADOCEoKAAAst0lEQVR4nOzdCXxc1X33/8/v3JnR6lXe2MxiiDFiM0JewCYD2DKGOCFN3ewktNmaPilJ/2maV5IHSJ6k5f/v8jTp0z5N0jRNk0ISkkAhYGwEcQLeMVsw+75jg41l2Vpm7vn9X3NHupZs2RrJ0sxI+r3zUtAyc++Z8dzvPefcc851GGNMFwsEY0zMAsEYE7NAMMbELBCMMTELBGNMzALBGBOzQDDGxCwQjDExCwRjTMwCwRgTs0AwxsQsEIwxMQsEY0zMAsEYE7NAMMbELBCMMTELBGNMzALBGBOzQDDGxCwQjDExCwRjTMwCwRgTs0AwxsQsEIwxMQsEY0zMAsEYE7NAMMbELBCMMTELBGNMzALBGBOzQDDGxCwQjDExCwRjTMwCwRgTs0AwxsQsEIwxMQsEY0zMAsEYE7NAMMbELBCMMTELBGNMzALBGBOzQDDGxCwQjDExCwRjTMwCwRgTs0AwxsQsEIwxMQsEY0zMAsEYE7NAMMbELBCMMTELBGNMzALBGBNLlLoAxoxywpxlMxivp+M5kaDiPjY2PAjX+lIXrC9S6gIYM0olWbB8Hj77AUTeiecEhGrgRZz8DRtXf7/UBeyLBYIxQ+nMM2tIzjidBB9C5XJgZvR71dz/gQtC8HeTqHwf627ZU+riHsiaDMYMnET9b+m08PLLAeOOGk9V6gQyQSMuuAgfXoDK1CgAoiDowXvBMYOsnwFYIBhT/q51NN59DBW1R9PWcRQukTu46whkIl4ngqsFX0MbKSadVIvIFDI6FWEi6pNRXOghugiiv4kjkKDYr6oQFgjG5A7ThhV1BPvmgGtE189FKmbTGc7AucnRwS8uOuEjQtc33c/c/9/uZsHh5P7sZA+uvWXYX9UgWCCYsUw4Jz2LIHUR0vkHaLAQJ+Ojg7774O7+PnfG7+dYL3CPCr6V8YnWIdjakLNAMGORMG/FCdDxJ4i8H9WT47/44b4aKIr6Hcyf38qqVcO8r4GzQDBjS8OSCQSyEun4DJ6G/R1/Q3H6L4AS4uQFri3PcQgWCGasEM5ZNouAq0H/EJUqGKJmwIBKoR2o/L7Iey2YBYIZA1YGNLYsxem1IPOJzs2lOEGLR3kW57eUYOcFsUAwo1t9fYqqt9+HuP+FyqxDXg4sBnEZxK+ideILpSvE4VkgmNGroSGJTH4fzn0bYerwdxgeTtSZuJ1AbmbbjZ0lLMhh2WxHMzrlwsDV/REi34ZSh0GOdCJ8l4qO+0tckMOyGoIZfdLpBK2Jd+PkmyhTS9pMIBrMlEX9avD/ytq12dIW5vCshmBGG0dL6iyC4OvACSUPg2gyExvQ1FfZfNdbpS1M/6yGYEYToXHJCTiuQ6kvizBQXY8kv8B9tz1S2sIUxmoIZvRoWDIecV9Eubi0VxOku5lwCy7xaTbdtrV0hRkYqyGY0SHqRHTvBz5U0nU+ojCIpjX/kFTtddzzq9dKVpZBsEAwo4EjOeEMvHwZmFCy2oETReVJkG/idv+Se9a0laYgg2eBYEa+uYvr8MnPAyeWJAyiKdG0o3orCfe3rL+jbEci9scCwYxsuaZCUPkHoCsPWp2oGMQpqq8gfIfOmu+z+ea3i1+IoWOBYEYygbpZwCcQqSx6IIgLQTaQdNewftXdxd358LBAMCPX9DOrCeQqlHOK2lSIOg4110T4EanUX3PvrS8Wb+fDywLBjFArA07atYhQVyK4ok1jzvcXvAXuO4Tht7n31t1F2nNR2DgEMzI1tEwjlC8BdUVrKkTLqckOkGuZOf5bbG0eVWGA1RDMiFRfn8Lp5SAXFDUM0Ldx8nWyb36PG1eHxdlxcVkgmJHGMeGYdxDyabSIn1+hHYL/5I32H/D81kzR9ltk1mQwI8sJ6RSeP0Y5q2i1A+dytYF78O5veH5te3F2WhoWCGYkCZhRuYCQDxR1r6p7UfkPttz+elH3WwIWCGbkmDdvIl4/i8hRRa0dKJsQ97vi7LC0LBDMyJBOJ9CJS4DLirxUcoZAm9m06uVi7rRULBDMSCC0Vx6L8GdAdVFHJHrdi5ONxdthaVkgmPJ38vIU3n8cWFDcyUviEZ4nDJ8o4k5LygLBlDvHhPBskCuBZFH3LIQQbCb79s6i7reELBBMeWtomEwgfwHMLPrkJSWDYx1bR++4gwPZwCRTvqKpzVMuB95V9HuuieR2uJNk4rHi7ri0rIZgypUjmHIaon9e9I7EHBVF5CXIvlTcHZeWBYIpTw3pyShfQeWM0qyCRIjqc9wzv+yXTh9KFgim/Jx8cgWJyk8isqL4t2fuplmE30N53rZ9uFgfgikzKwOm7kkT+qtAqkqyLBpdw5VxZXvb9uFiNQRTThyNe8/A67cQmV66eyuIB3mDgDEz/qCb1RBMuRAaLzgGCa9FaSjpjVaceJSn6Ax3lK4QpWE1BFMeGtJ1SOU1KCtKfgs2xRPI42xt3lPaghSf1RBM6dUvm4zjq8CVoGVwktIsoT4OjKkORSwQTMmd2TSNSv0a8Ek0V2Mt1VWFLvlbse0C/0xpC1IaFgimVITzlx5Fp3wL9KMoQcnDgK7mgvIGKXm21EUphTKonpkxKGD+8vlk5YcIH0e1PMKAqIYQIjxO+84x16GI1RBM0Z3ZVEOF/xD4q1CpL3kH4sFCkIfG0oSmniwQTLE45i4/lZT/LOo+hlJbhmEA6tvBP1zqYpSKBYIZfmcsmkRl9Qdw/s9A6qPmQTmGgeQK5l5FGJMdilggmGGVvnwi+9qXIv7jKBeiWlWWQRBzHuE5EvtG/erKh2KBYIbe7PPHMalmEfvargRtApmQn5NQJh2Hh6LkOxTXrRtzA5K6WSCYodOQnoJULCfg/YR6IUJ19HtfzrWCnrQNlftLXYpSskAwR8rRuGwOIk3gL0e1AaQm309Q5jWCniQagbCDRDDmZjj2ZIFgBufk5eOZ7M8CLsHxbkJ/Ok7ynYV+BAVBzIU4fZygZUzcf+FQLBDMQDjOW34iGV2M+A+ALkRkfD4AdIQGQbdoQNIW7r131N3ifSAsEEx/HHMvOo5kcB4q7yKrCxB/fDTaMMqBkdI/0A/xHSj3j8UJTT1ZIJg+rAxY2DaDzs5GAr0Y3CLwsxGqouNlJPUNFCLqP5DXkeDJUhel1CwQTDfH2ZfMxIVzSbQsxesFBMxCXCXxFcNRFgQxFyK6jep9L5a6JKVmgTCWNTRUk6qbSaiLUHknThvwMgtIxSEwWpoEh+WzSNDM2rXtpS5JqVkgjDXR5CI9BWQeyDsJmQ8ch0gqHjw02poEhyW5F/wWSV1X6pKUAwuEsaA+Xcv42tPwnReBXIzK6aAz8n/sDoCxFAI9OPHgtrGrfczOX+jJAmG0WrRoEpnaetCLQBeT7TgbcVPyfxzjIdCTaifqN7JtbWupi1IOLBBGk3S6ktbEHJxcSKcsA98AUgfRsmBjpD9gAEQUL9tJJe4qdVHKhQXCyCecfcnxVPiL2KeXkHDz8czMB0CZTjMuF+I8gd9GqA+WuijlwgJhZBLmLj2KlFyAshR8Gs9JiMuPFoyCoNRFHAFUMzj9HRtXtZS6KOXCAmEkmdd0IiqNOH0nKotQnRVPJBpzVweOUHS7d30NsveWuijlxAKh3KXTteytnA+6ArgQ8XPAJaO/WcfgEZAQ2EClPlTqkpQTC4Ry1bBiCkHHe9jHhxA/D6iNegbHzGChYabagZfbWGtXF3qyQCg3C1dWEe5eBu3/A+Q8pOsOyFYbGELicfIEzv2u1CUpNxYI5eTcS2aT3f0XCB9GXE2+g9BqA0NOJINwBxtXvVLqopQbC4RysJKAF5Z9GPQrILPzawtYEAwLQVFeQNwvrMp1MAuEUmtYMpMXgqtAPwEy3moEw81lQJrp3P5IqUtSjiwQSuncJXNx7psIl+aX5bAwGF4CXt8kwU1sGZt3ZuqPBUKpNDatwLl/BD3JmgdFImQQuR1psZmNh2CBUGzpdIJ9FZ8ArkH9DBtMVCQiGt3VOfD/wYYNbaUuTrmyQCimKAxSf4rq/0K6b15iiiRLEPyazHGbS12QcmaBUCxRGCT/HPhrhArrPCwmyb3ZT+KDf2Xr96zv4DBcqQswJjQ0JNmX+BzINZALA6sZFFkbIt9n86/H7F2dC2WBUAxu8ofBfQ0YPzbDQEpXHRKXxelvSbnrbdxB/6TUBRj15l28GNyN4KaPuWaCuBD8OrzsxHF50cMwvwDKi0jmQ2y5e31xdz4yWQ1hODUuOQkSfw8y9sIgorvJ6j8T6AtDeu7JXz7spy8gmgi2m4B/ZMvdG4Zu56ObBcJwOSFdiQRfzMXCmGwm5KrqcA/J7Hq8TB267UonyL+j0hwtCHMoznUi7sckKn5gTYXCWSAMl+mpDwEfG5NhQHQIdoD7Gftq9gLThmSbEh3YLyLuJwivHbLS4YIsPryZZHgd627ZMyT7HiMsEIbDuUvmonwVtHqMnpwU4QXC7DqCcALo9CHabhZ1d+M6nwM/vc+3ViSLhmvIJr/EujtfHaL9jhkWCEPtzKZpiPs6yEljtnaQOyhhI1ubX6UyPAZxE4YmGKUF4Vd0Zjww4eA/uyzKKkh+gQduf2EIdjjmWCAMpYaGJFV8FWHF2OxEjLWA3kQ6DVk5DrTuiLcYXbFgKyIboLYalUlxyIh0rXGgPyWZ+Bybbx/zN20dLAuEobJyZYCr+yLKJ0tdlJJy0YH7KIGs5+WXg6imBDVHXlvybSC3smlVK65zMqITu/anqLyOyHU4uYr1VjM4EhYIQ+Jax/NvfxAnXwaqxmxTgaj3IHem/g0bVu+k+qQEjtmHvRpQkGhg02OkErfDSiFBXbR2BOSaJutQ9zmqOr4R7dMckdE5lyF9+URaOk7FhafhZAZQjaji2QfyJhK+isorePcG4zr2sHZqG9wYDnp/89a9H5F/RHWMjkSMKarPQ8Wvop8kOxESpx3xGIToUiM3cu9tz0bNsmxdHYE8Du6H+M6fc99dbw1N8c3oCoTGS2dA5k9pa3sXgZ6CUIkSILh8c1M8kmvcR51e7QTsYl/qDea3vEq45AXEPY24Z8A9RzLxGutuaT3sNez6lSlqd38ClWtQrRvyMBA54Pvun/vZj/Z4jBbw+KEiQSeiNzCz6hE2rwyo3H0aXk88sv6UrolJiSAfMlu3ZmlYcg9BYh0bVz0/ZGU3kdEzdHn+kgX44GqEZVEA+H5WKe4+wOJjLHpsBmQXqjtBXwd5GZFXQLaj2V14aY0CxbtKkhyFZwHCkqjHe6jCIFe9zpXJ516A7MTJDrzficjOqGywN7rGL9qJqsNJEpUUaBVKLej4qDwiNSjjcIzDay0iyThghiUwnEfYCKmPsPnW5zh5eQWTw/8J8leoP4ITj7Th+Aab1vy/NsBo+I2OGsK8ZYtR/hUnp+HDwj423cua935sEmFa/sud2vuM7Lp7XJSESvxzf8FTiLiN7VtRnkJkC8L9iDyJZl+hvXIHdXv3sHZttr8tkU5XsIdaXGI8zk2CcHI0MMi7Y0hwDN4dhfhcM2oGXusQqYBcoOQC48D36KBvDtpd138U5QlS8lXuvfW56HeubRySuiD6jA367XEe9AFc9scWBsUx8gPh/PPHkdEv4dxpQ7IUWfeZ/tBnfBmam6XkMkVy+8kd5A+A3o7yG7LuUSa07Srg4O+LsnZte9Qcgjf7+Lvj5OVJ6oIKOrO1SDCFZKaOMJiOuqm47NQoDNVNQvwE1I3HUY1SjUgK1e4E0KhDT2QvaAsqT+DCH3Lvnd1LkwVMrJmDz5wx+OM4V3vTFkT+lQ1323LpRTLyA6G9vR037huE+gLCBxGZXPYde1GNQNvxbET0vwj9GrY2v1iEPXueXtXB03TkxwrQx0i+ax1nrq+i0lfiMlX4RIqES5HRBOr31yESGpJNdVAZtuEn7mLDjfuXJTt2YQrNLEdk4qCD07kM3v+aMLxlcBswgzF6+hByZ795S5ZDcB3C6WW5cOn+Nvw6RL5HGP43W5t3l7pYQ0xoaJqN42aE2YML56ipsA1X+RE23WKLmhTRaAqEvIVNpxLKNxBZGfUnlIP8SLpcM+NRRL5NwM2sX7O91MUaFvX1Kapn/gni/wn1wYCfn3+vdiF8ho2rfz4sZTSHNPKbDAfasOZx5i79PEnZiciVQKqkTYhc80D9myg/xwXfZdMdo/mMJ1QfMx38e6N+hMFtoR3Vn1LVaU2FEhidIxUfuPNV6oKrEPkWKjuOfKTcIOSbB4roxiiYLjvvc6M8DKChIYHQhOjiQYWwcyHKWlIV13V1jpoiG31NhgM1LluC8BWUdyLqilJbcLlaAa+j/As+9X/ZemtfPf6jT8Oyowj4OcKigffhOI/TRyD5x2y6beswldD0Y3DVupHk1Wee5fhZq1B5CpiNyJRh21dUK3CdoKvwwZ9z3x3X89qTe4dtf+Wkvj5FxbgrgI+jOrCmqORqUvIsuC+wedU9w1ZG06/R2WQ40Po126mu+gXwSq/hwEMl6gjLvZXyHPAV2vZdwX2r1o2hmzUK1dNOQeTTIBUDe2Y0puElAq5h8x2rh62EpiCjr1OxL9F9EfZdjfDOIb8c6aIxBa0ov8Lr33LfmrF3V+HpTdU4uRLV+gE1ycQp6PMgf8GG1TcPZxFNYcZGIARTPgj6qWii01DJ1zQywG+B7xKmbmfrrfuGbPsjRjrBSeFSwuAjA+ufieY+PEyoX+W+O1cNYwHNAIz+QDh32TzQa4ZmkY54lGHum204/R4++19sHrPTb4WzaqfjO7+AyPTC3l/JX03w2ozjajbdafdaLCOjOxDmLp5KoN+MVu050qZCdOVAM+AfROUn0aq+m4sy3Lh8Hbuykqq3P0soiwvqLsmH6U5Uv0/Wf4cttghquRnNgeBIVvwlykWDHk/fPcLQayee9SDXk9LbWLfGPsi5psIxLU149ylE5bBzmKJRmtFaFPcj/B1vupt5enVHEQtrCjR6A6Fx6WLE/Qmqg+g3kO4+gn0oGwjcT9DMKjbd9cYwlHQkEhprZqKdX0TclPwU8L4eJV0zI/V1hBtIVPw7627dVuzCmsKNzkBoSE9B5GqUgc18jOccsA+4G/QHSHA3G1e1DGdxR5z6hZMg83WQvgcg5d9HBb8dH/w3LvNDNjVvLEVRzcCMzkBwqWXA4oKaCr3HJbwGrMLLL6lt/x1r17YOYylHplzYJlNX4+UDvcK2ewUq9e3AI3i/ilTyFt7Q3/N0szUPRojRGAiC6mKCIEl44GzHHkum7V8NaTfwOOhdkLyJqn2P2Dj6Qzj14joSwZdQ+Vz+7YtDoA2JxhNsAtaQqljHvbeO7Q7XEWo0BkLubLUHxSOBy18i1NznNpu/36C0RVVZeBRlE95vJNDHxvClw8I0NCRxiT8AvRjVTaC55sCriH8a0d8TpB5n/e0v2lJnI9vonNw0P30sPpkG6hDx+UVJpRVlJxq+QaCvMjn1NqtWWVW2cMLcxVOorYVOOnBvZ+jszLJ1az+3ZTfGGDMijY3JTcaYglggGGNiFgjGmJgFgjEmZoFgjIlZIBhjYhYIxpiYBcJYd+219hkwsZE5UnH+xdPxwWzISDT6WsmSzWzjwbVvH9F269O11CZOx0sFZIGkktKnWTfqFvJwzF9+KmQ/gpfjcP4hEtXXs+6WUr9O4R0r6pi4bw7qHISFDYNWDQkq9tDpdlMjLSQKulP2wY5uqOboKacjvqrgfXdz3pOt2AeZ3QQT3iZ8sWUkjuIcmXMZNLgC5JsQ5APNSUgycRXwvSPabmXi3Xj3L6DV0Qr1ua138jfANUNU8vLQeOk0yP4tkriUIPe5D/6IMHs06fRXSjuxKx0wqSONuh8CFfkKbH4568M+TfCE2b0k3Vt08AyZ1IM0Nt2DCx5g06qXC9y5MHXKiYj+COFkNP/GFHzS1ITH+XZI7EL3Pktq6mbmXdLM7tR6nrhlT4FlKLmRV11MpytRWYAjBZLMncYRqUTko5yxaNKgt9uwZAKB+xgiE6Jt5rYtLvc1L5rYM3oEBP5UlPOie1+Gua9sEp9toi15XKkLh/cOla5/W0kgbg8S7ETcrkN/yV6cS0VL5QXBUsT9JfBL1K9m3tJvMa/pxAL23H3gJ8EloiASeQMXvIi4l/r9wr2GuHYcMwiCC1C+CPorJrT9iIXL5w7zuzZkRl4NYW9qKqJn9JpTFy3SIQ1UVl8K/NegtivuvIPWUMh/fyqJadOBQs805U6how1SbcDE/ExQp1FdSFzpq7giSu5/Ev3/y3i+StI/g+qhz9RZTeKowcux4Ocich7CaYichpdTcSzj3Ev+jtr2X/TblJCufaMvo+HnkIrD7zt+XiKB66glK0fhsu8EdzlwLBK8mzCs4/xLPsW6O54Y1HtSRCMvEJDZqB5/0CxbJ1WgH6ZhxU0DXg69fmUKaVmJSBXaYw2FaAEQmY7Tc0ZRIHje3PcYdamfo3wSkWqQ3Tj9GZkdr5S6cPtFQdVGVXgfv2t+bABPdMy96DiCxB8R+CsRmZOr/xHot2mrmM7Klf+HG2/s57bguTxwHaSCJ1m3ahAHcfpm5rm7Ifkd1B8LsoAO/2dw7efh2rK+ec/IazII83C5KuUBfO4fURbhMgsHvM2qXechelnfKyxJJaFeOMjSlqenN7Xw1ttXE2Tfh3efQP3lSMt3yq8TTB2aGGhzzfPA3S9w35q/RzMfRPhV15IY01C9mudbrijsc6+C+kE2Fddm2VlxO6L/kd8UCQJZzFm/O2pw2yuekVVDSKcraQ0bCfpaNzU6m49D/Ac5efm9PF3wWgeCBH+IyLSoTd3HX8Gfy/nnj2PduoF3Dq1cGdDamuApYMJ2X9SDrqEhybhxAXv2hAftNxcKT3PHkGz/5Splbm22/zNvUXk2/+ZhGpf8JSI1IMtAJ4F8iQVNj7JxzaZh3fvTbSF1iftQtxehGtUpVLvJ0e0Ey9jICoTWyuMRPbVXayFaFLX7F9F/L2N85t+Awhb1nL98DhpeetD6gL226WYRVh0LFFZ1TX+8krY3zsaHc3lpzyl4rWNyLlqmtDC/6XnQh8E/FK/iPH/5eHy2EQkSSKg458j619ly5++B3gfZeU3TyHJ61PHmvMc7RyJ8hQ3N2+J7SS5YMofQpXHudNr8eBJ1LSxoepyM/2+2Nr/ImU01JMJzCBI10TZybeREYifb5eF+glSYs2wG4/1clLPBHUcbNUzyWV5q2c65TU+RkAeQlsfYsKEtOhOfvXQWSTcr3o8jJEw9wpbbXy/ovTwyypbm55l38deRRO5zczxOZ+HlY6TTWwd1abJgaxUua0Ey7V03CUqSSZb98Vb2BezFhaeBHB8HgpAFfQiYBTIxOojFzSBw7y84EDT8eH6bvnvNxZ3Ag4gsQjXVFQzTUU7rNxDS6QTtlZey77VPgi5EqOvd1SFdmaVtEDzBuU3Xk5QfEAbHEej1eJ2AihKSwAW/oD79SbYdsNBrhvmI+y6idfl7HRAQBj8GPsG8i+vwwf9A5UpEj8+/vq6VpLO+lQq3LX9j1fB4ksl/Rv2pqISoE0LWUpf8GE/T11LzQsOyGQRcmavzRP04SFUcnNKdmyjeb0fGbWThpf/Ga/uaSeoVOL6MShYViVa0DsLPAD8v6N/nyHm2hw8ww/0M3JdQn/vMLyFbcxYwjLedTwuaqclfPo3ubt2Bo+xX6BpZfQjq5kYdf/sToR2V7yGs3796cu4DqpdyTvrkfrc3P507678rfh9cdMBuJpR/yB+03bsRh7r5cJhRfbmz7t7El/H6g65t1kUHS9QM6VrXMe6jcFUgZ+PkOkL9Dq59dnQGyX14VCujy21eD+4niZ7qHWgFRGFViUgyKl9j07Fo4joc1+Y7XbuvknTt27nHyUQNl+73qSK6xJbfRiLans/21ZvumPeuMwn0u8A3gLPxVEXb7vXatKtq5aaj8h7C7PeZUvEZnIyLTjzR69IKlAq8H7p7bBbi+bUZqFiF1+1RGVWOpjNzwbDu84ToNTcCtV1XTV6ls3XHsO5zCIycQKivTyHaEP+cv3/C2+CbIfgJqp3R7/MfzFkkKz7U7zY1eRmaa4J0HaiqivM3UZVYD7zRe4l2XcgZzRP63M7KlQEV/DnivgE6Jdpevhz5cTUiu0AeRXULqg8i+krXA3Lv/4fx8s18baQ7MJRDLlYa3e+gZ/tG89ddRb+E8Ikej2xDcmd7eZP8sMuH2DKh50jEA7Yhfe1POGfZSdD5D7hgBeqDOGSiey9E37wc1ahU70PkUWB31/ZmIPpNVFYcdO8G6XNfw8kTuCej9yDKrFzYurP6HV8ShIO8IpBOUBdcgrgrox9FOxH/ax64p+wDYeQ0GSYddSwdzIk/x9EANv8Uxze/wLPpFoLU/Yhb0PXhC0A/QH36e2xb23dbtSE9BeQKJHfG8N33Z3iUTr+aTY27mb8h135/R/7Yi47dk6msyNU6thy0rRd2L0f4ctcS8F3li7a3G/gBdF5PpvJFXGovtCURnY668xD5Qq5ugcopg16s2EdlX4wynfx9aF9E5Acov4HsW4QS4GUa1e51iDr9Ch+ufnRDFUn9IioXEfZsbovH6TZC9084v5asbqc9GyItNdRMPhH0ffjwk4ibgPqTBvfChpTy3Ctvc2zd08DS/KAjfxzhuFyVvu/h7kpAp0yOBrulEoev0VRXCftaE9SMn0hbxxwkuAz8exCpy9c05d/J8H+G6bUNqZETCJ3uTGDaAcfNg9xICGvfZN7Sm1CZl2/JRgfwKVQnLwF+1OfZNkheCMzt0fzwqP8lD9z9Etzt8U0PIrwv+lO+nVyHd2cdFAi5drvwWZDx8ZkwHwa5tvhfEb55fR9XFnJB8SQNTRsJ+BuEy49o8XLVU6KAVF0D+lVmTnhgCHr8A06Yfi7Z7Ht7vX0iIegGXPJzbLz9wQOe0xq97oULHyJTs4WE/i3IzLJYmb16Wgjh9uh7j+CYQJLKPh+rUWfPsdEQ6srqtn5DtCMUElUVtGVqEDcu34nITghvRN0v8OFqtjbvHpbXNcRGTiConIPo/lu6a+6U5fZ/IIWbUP0kIid3PSaB6B/TkP41W9e+2WtbJ6Rz7fQ/ivojfFftQP3LBPrTuKdeyG17T3QpM19FTuJyARJ3oXXtN9WA+kUHjGHI/f2f2LzmR4d9TVvXPM45l32FIHMiImcN+nb1+bsqb8T5z7Ox+TGG4gbrJ6SThJ3LwU3rUevJtYZfIsHXWH9QGOy3YUMbDQ03oXV1wHVRWJY6FCpeVDhub4/3OImvOPSBLtHQ+BOjjtJCiSbi+1nm/5dvLowgI6MPYf7y8Tg9Nw7q/Bn4JcLMI/FjNt35NCI3xI+JDlC3AJe6+KDtTU2eD1wU36Q0ag+726ODqZv6R1Fe6XVuEDmbdPqAfoTsfGBcj8fkwutZMtmfFPTa7r/tMZB/PrJ2tYao/O9e5T9Sk5KTwTX0OjmKZAlkFRvu/G2/z8/Vitr3/RSn90SdtaXWMVPAp3q8nEP3D0TBp6+S1c+CvwzPin6/RN9NVt6P8FegtyIkccFKVH5GQv6d81fUF+mVHpGRUUPIhkcTUL+//yD3b8sTJCqe7vGoXCL/EuUTiByVr+ZLEvQPObPp1zy8Zm/0qIZPJeGFD4NOjjvHVN9ApPdlML/rJVxdLmROjbaV/3oHHYkTgQf2P44Te1coo862+5ngCx+AorohqmLm2pwDrSXkA+gZEpl1A3vi4beKz06C1LG9+x59B7gNBW+l7fV9VMxaj9NLSz7Vvv1th9RO7fr3yb2ovdBxiEFiuc9F0EqV/HZQ8w9OWjKBKXIRPvyfiJuLuneT7aikIf2xg2qrZWZk1BCcPw045oCD5UE2HXBX5s3jH0Fy7eiuz140nFmXUCH7hzPL87NBL9n/c1TdXkPr+N4HVO4MJ/Jw/HM+YCbhXWOPRwlCbR8lfm5Ag17C4I18m3MQ8r3mj9FZs2tQzz/EVkkGKZSaXvtR2RPd2r1QEyZ4xL+YOz+XOg+YOW4c3uVnPUaB4F4j1bH30E84gqHLzzbvZvOdt+Dc/xPVNNAEyoUEFZeXPBj7MTICAXcu4vb39OaDoY827I0hqj9G/dv5ZkU0UGkioh/dvyn/AYSj4suCqh0IP2XbjQe39TR8CNWeB3aA6qKed4pF+5oA4Qd2mk92evq8r3qBVHazOzu0w4bDwHedSXvtCRnAaxs3TpHoEk6pJ/Q4OuRYHGfmx4YQgn+8azTlcAlxLRtBVud/jGqr7+H8d/d1Aikb5R8IZzbVgJ7dq7mg7MD7R/t8/L7MJiRo7jVQSVkSDedtWDKza1rq/m15mkmm+q4GS/BE12W87l/kvs7gvKapPbax4+DMd8fBysIH36hMQNz4gh8//BT1+7pGbXb9JhrwVYsPphW8lR07HLg6oLKknYr19QkCnwby6z2I7iRk/bDvt6UlxLEt/4MPQGchOvg1O4qg/AOhlhNxcsr+5kLUBnyU9qDvNvq2ta14/0uU/QOVRI7Gy3uRYAXC7Lh2ABlEf8y9t/Vd3Q54CeSR3qMgmUl7z2vr8iTac75BNCLxbBpeL/zAEXcaDKL/YPgoVa1v4eWZ3p2KQSXCOQVvpbIyEY1slJJ+zoTU9KNQeV80tgAJoz6g2urC+0IGq7JSUfZGdyLPv49VhFQP+36PQPkHQsafhue43geLbGXb6kO3mcO2uyAaOZf/OeoQ5NM4vSqaikp3Hug2fOddh9zOhtU7kfCB/Vcuou1MJojGRHRJbAD/Zq99iXsHrmJFQa/v/HePQ+Wj+ctcZaSlpZUw3NCrSeR9AtVLaFxWSI+5w9WdjcjFJQ26E9IVJJN/CizoCvQWcD9h7c1Htv5mIXbvdqB1+UCMmipZsr6sL0OWeyAILtGIk4oev+tE9f5DDu3NeeCeN6P1FaNBNHQ/dCZoz5pG7m//2W+vr/IwvVZNiSYLzY+HvQY128Ddmu+cjJ+UQNxfcW7T0sNue/nyCrIdX0D8e4+kC2FoqJDt8Tq3bcuSdasRebZHDclFozdFv8X85cceZmPCuZecAvItvM4sWSDMPn8c0yo/i+ifRQelSCee69nbfmtR9j91Vq65uzj/g3icvEQFQ9n5O+TK+7Jjw4oqtKMx/kDmOwp34sLf9/NMRcI70MQT0TJa8WCmrr/mryw8ifr/7rcMTh/v6qSsi4cxa67aPGUK8Bobbmyj8eLvQXAxIifGlyjFnYTT/8u5S/83IrdQ07mDtWs7YaVQv6OK2uAk3vSfQvSKrg6nI3yzBsB3ZJFEJpoJmW/iOFRmEmQuYMHlWzku+VI00nGve5qK8D+6FpnNB6BqEpHL0GySeUu+Q6piM22vt7J1axi11SccM5GMX4T4z0M0pPrI5Jd3G6j8qtISfgavV6DUgmRR7sSH/99BM0iHQ319LV7/OHoPIpLB+dXcW90y7Ps+AuUdCNp2PMic/R+q6KrAc7QHz/T73E13vUHj0p8ick3X6rk9RAFzC1uan+2/EKmX0ezjCOfvf7ocj5PTokDI2XLXFhqXXo0L/gV0XH5yUzQCchYi/4TIZ9lb8XvmNW1HdgdoxfF4PQfHUdFBqboHkYpogtPwU7KJFrz2/GBKvsNLfoTfdw8vhB8B3orWRph/8b/hgzm44MP5WkwUeLka0KXRCM1M5iFkylMsaGrFuwmEOgdcPUhN10zI3cD4QV9uy8b/doerzQoNDRVk6qZTEc5G3YUQvhcvp3SNM8lV039GpV7D75pfLHjfAx8sJtQvm0RVeCZB4oN4/+FocZToKovejyb+q2s+Sdkq70BIBHOByfGw4KiTX+7n4dWHuX7cg8hPUD6EuP0zGqMqv38VMjcWtI2ZtXt5qWUdPhcI8TTfCeAbgf39DydMvIHnW6qAr+GCmdHBk6+Z5Ep9Wj5AZP/riL/xj6B6Q3TNOnqtRagp7O7YTXXygWgx0p5EalB/JpXJY6JAIArW7Sy45Gt4DZFouHdl/rVF7+d4VBbjWLy/ttE98lMzIL/ASxanHx3w69LoSD6abPgPzFvWkp9fcAgSjRkYTwUzIJiBi67agA99tBiNuO+zL7iBzYfoPO5z3+EMMlzHvGW7uppKhahB9Gi8nBStkJSfTh+CNJMMr2XdmrJfl7OMA+Fah1+/gCDYX8aoKu7vL3gTm9c8x7lLbycITo0HqkbNDv9rWrf31+zIy1Wd5zflJzR19xM451DfGPUjdE9cyk8m+j6Ny55D9SqENEhtvIiI71pIJO6gpAPCe8n6ryOJvah8JR474XIf5kOsGeCj5cGT8ZSKaFKTH9i/48sbOpmx9AbEXYJjVr5G0/U3l5hIp38H0D0oS9l4x/MsXPgFsuN+j3AF4mbnqk7df+5Vg4uaa/oanp+D/gPiP4tL0mvilx7iAEsDe6M3OdU1J6AaJxcWVrlw3cM/OlH/Bl4fwukaJHU7G28rbEh3tLpyrkmUK0IwDufeVdDzem8jF1CK+t0gT4HehAuuZ13z8wPeVgmUbyCcvCkZDT7y4d9FnXrR2oa6D8nePaDtqHyf0LeiPj+zzZHFyw1s21Z4b2+nriep10YfUM1lvgaovNDVru49/HXL6mZOSN/L9IqFqF6ARmMo3oHIMdElKNHH8WzDcTd7M81Re3Z++li08u8Iw6poMFBu+7iHYOrBZZTgSfB/j2ZroxWTosfKlmgNv8KF3DdxI41vfhpNfhwni8CPR+Q5vN+KJA7+8G7YsBP4exa+6wYy2QsI/CJCPwfnZoFOAHkV1UcR3UwydRf33nZ/dOOVxuC30X0fcpX/3Fk+yFXfK7f1Waq1az0N73mUoO2v8T6Zfy8Kej0++mwE7i06eZmKyqfofPVFtm4dyOrbig93QPDPaHZq9N5m/cCaOeI6EN+KT75GED5FMvXEIS9pl6myHkY5KjSsqCaZmUY2O4kg2UHSvVZWH5IT0pVMC2YiyUpc51tU+DcKHHYtnHHZRFJ7pyOJKhKJXWSS2we8BL4xxpjyVO7jEIwxRWSBYIyJWSAYY2IWCMaYmAWCMSZmgWCMiVkgGGNiFgjGmJgFgjEmZoFgjIlZIBhjYhYIxpiYBYIxJmaBYIyJWSAYY2IWCMaYmAWCMSZmgWCMiVkgGGNiFgjGmJgFgjEmZoFgjIlZIBhjYhYIxpiYBYIxJmaBYIyJWSAYY2IWCMaYmAWCMSZmgWCMiVkgGGNiFgjGmJgFgjEmZoFgjIlZIBhjYhYIxpiYBYIxJmaBYIyJWSAYY2IWCMaYmAWCMSZmgWCMiVkgGGNiFgjGmJgFgjEmZoFgjIlZIBhjYhYIxpiYBYIxJmaBYIyJWSAYY2IWCMaYmAWCMSb2/wcAAP//na0FwrhfSmMAAAAASUVORK5CYII=;" parent="1" vertex="1">
          <mxGeometry x="673.75" y="1587.5" width="62.5" height="62.5" as="geometry" />
        </mxCell>
        <mxCell id="TqfSNeynW-cu8Um2pJsx-108" value="" style="shape=image;verticalLabelPosition=bottom;labelBackgroundColor=default;verticalAlign=top;aspect=fixed;imageAspect=0;image=data:image/png,iVBORw0KGgoAAAANSUhEUgAAAQwAAAC8CAMAAAC672BgAAABR1BMVEX/xzL/3i3/3BLozx3kzj/X19ewu9Avctekt9fr6+v/ZEZdXV1BQUE0NDRubm68vLxofNj/YSyQkJAPDw8rKysfHx+LeMDlzjkYGBi1tbWDg4PPvkTZ18hBedbAx9Nsj884fOwjcucXdP4yfv9hidSbr9d4lMttnPzm5ubgzsnQmIz/fUL/pzr/szj/wDTWn3raWUDPop2ZaKnR3//m3er/2tPs6NT/9tLRinvrjHn9hXlyltxvmvLv7+/U2N/////Qx4niamLTzKEAAABpaWm8cpDCwsJ0dHSWlpZ9fX2wc51VVVU7Ozufn58kJCSqqqphYWHJyclJSUmKiori6Paecq7/1i//YEf80G7u2W3XyXHKwHja0afZ2dny8vL5+fnTtKzUdmLvYEEkf/95dcXkWT/RwlzGcIX/YzjnaVn/5Cv/YD//WEj+7eixAAAACXBIWXMAAAsTAAALEwEAmpwYAAAIM0lEQVR4nO3a7X/a1hnG8QAmMebBLdircZPWdppUa9o9tk2fZGWDAq7tYHCXtHHQWdI1a+P8/68rpHPEJekWEnHM5n6u3ysDlpC+HIkj4JrDwq79rzfg/yliQMSAiAERAyIGRAyIGBAxIGJAxICIAREDIgZEDIgYEDEgYkDEgIgBEQMiBkQMiBgQMSBiQMSAiAERAyIGRAyIGBAxIGJAxICIAREDIgZEDIgYEDEgYkDEgIgBEQMiBkQMiBgQMSBiQMSAiAERAyIGRAyIGBAxIGJAxICIAREDIgZEDIgYEDEgYkDEgIgBEQMiBkQMKAvD3r9z9+tvPvzm67t39u3wXuuPH33x5Vc//Pjk7OnEvdwNXGbzMd57f2d377Zud+eD95R3p/3vZ8/PvV5dKxQKxdLKWXkpW7qE5mFcv3E73o3VykeexNo0H2Na8d2bS9veSy0dY//WXsLi9k//+TmQQAyP44W1xG2+tNIw1J2khGfx31/W1gSMQqH0dKmbfTmlYLgfSBY7v4JFFKPw8oFa6oZfRjKGfUu0eH6+lopRKD5Ry930N5+I4eaxiGMUimdqkWdWE7/KG9mNN5OIcVc8X/wjapHAKBT/OfepXBW5We74dd/Yrlw8CWNVtPj2l7UMjEJxkvIsbq9frdVr1cb6bOI2CTD6l7Jbr5eAYe1KGG+9vZaJUVhR4pM0Wx1Tq2nuvBoY74sD49e4hYQhHijWRgfb1FOSK4ExES3+ED9IRIzCO3ZifdZmJ9pWoHElMPKdPVMwism5V7UTLzhnXgWMyo54xkgODBGj8K6Kra9tCLYHB+bP3vSBq4BxXRwY3+XFKMXnDVuwz6ob3Dic3rgKGClHSdJCxoifQnuw+15Hwc3pWSOC4doLfiyi7JQlVEWZ/4j/g7eMreatNI6h5Mln8oyRglE4i66vDweGEx40xw5iqHb3YWuj0Q431Boch/lLVsrD48FsEmM1G/VW6+HJ9ihcZOIv4jjHtc7RdO1qMG5t9OFautxs1LZaW0f9QdpkKImRMskQjpIUjNhUozMbCv5eTUdJc+QiRkUPl07d/NcIzrYn3o41/WNtaHbrcPZovR1Rdk71OpX+H3PQjsa4yrTPG3JhSG+saRjvRAbnJHqUeBsdvpgGQz2cbWYlidF13Hrwl97vZidSVc0wWnqK3ymf6j/GwTIH0WU6KYMjjvG9eMr4V36MksLV9cKXN5HGOGjgnkkYJx3EOO3EGqsQY1MflJ3t8FF/EHTjy3TksZHAED7eugDGutmjVIxxZCPLCYxGeKMdf8jseYgh1MNlNrfMX9Krc+kYg0wMb2yMrJF5SU/9h8qH1WpVH/X9cORMMZQ+ZKojy7LM6z8JMfqVSjCOapNKMISmJ1Nn6O//yLIrljlgxKFxkcPkUTbGQTZG8EajR3919rgd3DP2ZvO1bvfkpDoK99msbzh7mdtmF4NhsO7oc7c/bKZ3DvRq9SGzngdDPoHKGJJF7ATaz8TQA1YFt45mlLYZEaewkN4V8xx6qm8bDGVW2zMYB3q3jIU5i+FKUzHE2biM8filhBGdj2djmBlocDn3cHahV9EWTVjGjo2fdji4MjAST5u4X8JwpE+CZYx7EsbLB5G1ZR8mBqOegrGJ18GVmI8+NR7nw7C984xVXgRD+opAxHj8sYRRjH6fdHxhjMh5vydjNLIxys3D2ubsM6acGPs/5cRIOX9GL9Sy31qzMCKLtmWMkyyMspnkLoghXZyIGOJREr80yZ50LQNDmITkw5A+DpYwXn0iYsS+dbWCpx6HdwzWzVT4dTBGMkZ/PoZ5E681+l4LYbjJN1dxZIhvrC9UbG36MMULtVqjnbiEz4lhyxjD+Rj6LB5M562FMJzVxCRUwJAHRjHxdbzeEDPH0dOk6CX8whjhQNOrG83HCP6p4bwORvLdNYnxWDxjFB8k1qVfu+BqynH1xUElB4YtYJh5ixlo+sJG5cHQu7/QPMNrPz7xEjDEt5IV4cMnfTHRne6/rTf+BLZKxHC99EvYVdMbrkYyH5wFts3ZKrIx9BPpwbSdFyPxOWgC49WfpIFRkq5+9JurJ9Aw1+LTYT0XY7S14RU87v+5sdEK3rKV5jwalss9sz4rF8ZmGTendtDIieHc2ZuLIZ8wSvLvd5JfFQSbMQ8jsUh4ZJSTj/gXpvMwzCXxuHvizTdqZrm8GDGNGMZCFo4bn/DU3QtgmGE+Kzip5HlrDZ4hvJUbw7m+k4bxeE06Roorqb/rcqOf39T0ieU1MZx2K3K/PvjnTroG8P+T8HOv/BiRn3Qhxvm9R5LFk+T3irOG9XBbNoZK36kHvDl09ZeQ/mp68zCcCnyieTgyRFGM8POMwHpoAOvelE8dLIzhqNXdJMb5z38uJS28YaFS1+OvqzzYHh/V+oPR7P1GjfzMhLQc3PT/dkeJerg6u93s1o4OT49nQnZPL638P6ZP4y+n/8Mdes9/2OwFm1mZxNeYheGtYfVGBOP8/C9/tR3rLMpRzKS4MmX8Qnj/7q3d3b29v719fv782Rf6Y3735pOVkofgVSq9ePC7+U1sjt+OW/vf//3Tzz6bRL5rUJObn9+/f//zye/i958m/pAeIgZEDIgYEDEgYkDEgIgBEQMiBkQMiBgQMSBiQMSAiAERAyIGRAyIGBAxIGJAxICIAREDIgZEDIgYEDEgYkDEgIgBEQMiBkQMiBgQMSBiQMSAiAERAyIGRAyIGBAxIGJAxICIAREDIgZEDIgYEDEgYkDEgIgBEQMiBkQMiBgQMSBiQMSAiAERAyIGRAyIGBAxIGJAxICIAf0G00cLlZzoDkAAAAAASUVORK5CYII=;clipPath=inset(35.64% 5.22% 36.7% 4.85%);" parent="1" vertex="1">
          <mxGeometry x="455.78" y="1530" width="68.43" height="14.764979253112033" as="geometry" />
        </mxCell>
        <mxCell id="TqfSNeynW-cu8Um2pJsx-113" value="" style="shape=image;verticalLabelPosition=bottom;labelBackgroundColor=default;verticalAlign=top;aspect=fixed;imageAspect=0;image=data:image/svg+xml,PHN2ZyB4bWxucz0iaHR0cDovL3d3dy53My5vcmcvMjAwMC9zdmciIHZlcnNpb249IjEuMSIgaGVpZ2h0PSI0MDAiIHdpZHRoPSI2MDAiIHZpZXdCb3g9IjAgMCA2MDAgNDAwIj4mI3hhOyAgPG1hcmtlciBvcmllbnQ9ImF1dG8iIG92ZXJmbG93PSJ2aXNpYmxlIiBpZD0iYSI+JiN4YTsgICAgPHBhdGggc3Ryb2tlLWxpbmVqb2luPSJyb3VuZCIgc3Ryb2tlPSIjMDAwIiBkPSJtOC43MTg2IDQuMDMzNy0xMC45MjYtNC4wMTc3IDEwLjkyNi00LjAxNzdjLTEuNzQ1NSAyLjM3MjEtMS43MzU0IDUuNjE3NS02ZS03IDguMDM1NHoiIHRyYW5zZm9ybT0ibWF0cml4KC0xLjEsMCwwLC0xLjEsLTEuMSwwKSIvPiYjeGE7ICA8L21hcmtlcj4mI3hhOyAgPGcgc3Ryb2tlLXdpZHRoPSIzIiBzdHJva2U9IiMwMDAiIGZpbGw9IiNjY2VjZmYiPiYjeGE7ICAgIDxjaXJjbGUgcj0iMjAiIGN5PSIzNjAiIGN4PSIzMDAiLz4mI3hhOyAgICA8Y2lyY2xlIHI9IjIwIiBjeT0iMjgwIiBjeD0iMzAwIi8+JiN4YTsgICAgPGNpcmNsZSByPSIyMCIgY3k9IjIwMCIgY3g9IjMwMCIvPiYjeGE7ICAgIDxjaXJjbGUgcj0iMjAiIGN5PSI0MCIgY3g9IjMwMCIvPiYjeGE7ICAgIDxjaXJjbGUgcj0iMjAiIGN5PSIxMjAiIGN4PSIzMDAiLz4mI3hhOyAgPC9nPiYjeGE7ICA8ZyBzdHJva2Utd2lkdGg9IjMiIHN0cm9rZT0iIzAwMCI+JiN4YTsgICAgPGNpcmNsZSBmaWxsPSIjY2ZjIiByPSIyMCIgY3k9IjE1MCIgY3g9IjEyMCIvPiYjeGE7ICAgIDxjaXJjbGUgZmlsbD0iI2NmYyIgcj0iMjAiIGN5PSIyNTAiIGN4PSIxMjAiLz4mI3hhOyAgICA8Y2lyY2xlIGZpbGw9IiNmZjkiIHI9IjIwIiBjeT0iMjAwIiBjeD0iNDgwIi8+JiN4YTsgIDwvZz4mI3hhOyAgPGcgc3Ryb2tlLXdpZHRoPSIyIiBzdHJva2U9IiMwMDAiIGZpbGw9Im5vbmUiPiYjeGE7ICAgIDxwYXRoIGQ9Im0xNDAgMTUwIDE0MC0xMTAiLz4mI3hhOyAgICA8cGF0aCBkPSJtMTQwIDI1MCAxNDAtMjEwIi8+JiN4YTsgICAgPHBhdGggZD0ibTE0MCAxNTAgMTQwLTMwIi8+JiN4YTsgICAgPHBhdGggZD0ibTE0MCAyNTAgMTQwLTEzMCIvPiYjeGE7ICAgIDxwYXRoIGQ9Im0xNDAgMTUwIDE0MCA1MCIvPiYjeGE7ICAgIDxwYXRoIGQ9Im0xNDAgMjUwIDE0MC01MCIvPiYjeGE7ICAgIDxwYXRoIGQ9Im0xNDAgMTUwIDE0MCAxMzAiLz4mI3hhOyAgICA8cGF0aCBkPSJtMTQwIDI1MCAxNDAgMzAiLz4mI3hhOyAgICA8cGF0aCBkPSJtMTQwIDE1MCAxNDAgMjEwIi8+JiN4YTsgICAgPHBhdGggZD0ibTE0MCAyNTAgMTQwIDExMCIvPiYjeGE7ICAgIDxwYXRoIGQ9Im0zMjAgNDAgMTQwIDE2MCIvPiYjeGE7ICAgIDxwYXRoIGQ9Im0zMjAgMTIwIDE0MCA4MCIvPiYjeGE7ICAgIDxwYXRoIGQ9Im0zMjAgMjAwaDE0MCIvPiYjeGE7ICAgIDxwYXRoIGQ9Im0zMjAgMjgwIDE0MC04MCIvPiYjeGE7ICAgIDxwYXRoIGQ9Im0zMjAgMzYwIDE0MC0xNjAiLz4mI3hhOyAgICA8cGF0aCBtYXJrZXItZW5kPSJ1cmwoI2EpIiBkPSJtMzAgMTUwaDUwIi8+JiN4YTsgICAgPHBhdGggbWFya2VyLWVuZD0idXJsKCNhKSIgZD0ibTUxNSAyMDBoNTAiLz4mI3hhOyAgICA8cGF0aCBtYXJrZXItZW5kPSJ1cmwoI2EpIiBkPSJtMzAgMjUwaDUwIi8+JiN4YTsgIDwvZz4mI3hhOzwvc3ZnPg==;" parent="1" vertex="1">
          <mxGeometry x="417.12" y="1960" width="53.25" height="35.5" as="geometry" />
        </mxCell>
        <mxCell id="TqfSNeynW-cu8Um2pJsx-114" value="" style="shape=image;verticalLabelPosition=bottom;labelBackgroundColor=default;verticalAlign=top;aspect=fixed;imageAspect=0;image=data:image/svg+xml,PHN2ZyB4bWxucz0iaHR0cDovL3d3dy53My5vcmcvMjAwMC9zdmciIHZlcnNpb249IjEuMSIgaGVpZ2h0PSI0MDAiIHdpZHRoPSI2MDAiIHZpZXdCb3g9IjAgMCA2MDAgNDAwIj4mI3hhOyAgPG1hcmtlciBvcmllbnQ9ImF1dG8iIG92ZXJmbG93PSJ2aXNpYmxlIiBpZD0iYSI+JiN4YTsgICAgPHBhdGggc3Ryb2tlLWxpbmVqb2luPSJyb3VuZCIgc3Ryb2tlPSIjMDAwIiBkPSJtOC43MTg2IDQuMDMzNy0xMC45MjYtNC4wMTc3IDEwLjkyNi00LjAxNzdjLTEuNzQ1NSAyLjM3MjEtMS43MzU0IDUuNjE3NS02ZS03IDguMDM1NHoiIHRyYW5zZm9ybT0ibWF0cml4KC0xLjEsMCwwLC0xLjEsLTEuMSwwKSIvPiYjeGE7ICA8L21hcmtlcj4mI3hhOyAgPGcgc3Ryb2tlLXdpZHRoPSIzIiBzdHJva2U9IiMwMDAiIGZpbGw9IiNjY2VjZmYiPiYjeGE7ICAgIDxjaXJjbGUgcj0iMjAiIGN5PSIzNjAiIGN4PSIzMDAiLz4mI3hhOyAgICA8Y2lyY2xlIHI9IjIwIiBjeT0iMjgwIiBjeD0iMzAwIi8+JiN4YTsgICAgPGNpcmNsZSByPSIyMCIgY3k9IjIwMCIgY3g9IjMwMCIvPiYjeGE7ICAgIDxjaXJjbGUgcj0iMjAiIGN5PSI0MCIgY3g9IjMwMCIvPiYjeGE7ICAgIDxjaXJjbGUgcj0iMjAiIGN5PSIxMjAiIGN4PSIzMDAiLz4mI3hhOyAgPC9nPiYjeGE7ICA8ZyBzdHJva2Utd2lkdGg9IjMiIHN0cm9rZT0iIzAwMCI+JiN4YTsgICAgPGNpcmNsZSBmaWxsPSIjY2ZjIiByPSIyMCIgY3k9IjE1MCIgY3g9IjEyMCIvPiYjeGE7ICAgIDxjaXJjbGUgZmlsbD0iI2NmYyIgcj0iMjAiIGN5PSIyNTAiIGN4PSIxMjAiLz4mI3hhOyAgICA8Y2lyY2xlIGZpbGw9IiNmZjkiIHI9IjIwIiBjeT0iMjAwIiBjeD0iNDgwIi8+JiN4YTsgIDwvZz4mI3hhOyAgPGcgc3Ryb2tlLXdpZHRoPSIyIiBzdHJva2U9IiMwMDAiIGZpbGw9Im5vbmUiPiYjeGE7ICAgIDxwYXRoIGQ9Im0xNDAgMTUwIDE0MC0xMTAiLz4mI3hhOyAgICA8cGF0aCBkPSJtMTQwIDI1MCAxNDAtMjEwIi8+JiN4YTsgICAgPHBhdGggZD0ibTE0MCAxNTAgMTQwLTMwIi8+JiN4YTsgICAgPHBhdGggZD0ibTE0MCAyNTAgMTQwLTEzMCIvPiYjeGE7ICAgIDxwYXRoIGQ9Im0xNDAgMTUwIDE0MCA1MCIvPiYjeGE7ICAgIDxwYXRoIGQ9Im0xNDAgMjUwIDE0MC01MCIvPiYjeGE7ICAgIDxwYXRoIGQ9Im0xNDAgMTUwIDE0MCAxMzAiLz4mI3hhOyAgICA8cGF0aCBkPSJtMTQwIDI1MCAxNDAgMzAiLz4mI3hhOyAgICA8cGF0aCBkPSJtMTQwIDE1MCAxNDAgMjEwIi8+JiN4YTsgICAgPHBhdGggZD0ibTE0MCAyNTAgMTQwIDExMCIvPiYjeGE7ICAgIDxwYXRoIGQ9Im0zMjAgNDAgMTQwIDE2MCIvPiYjeGE7ICAgIDxwYXRoIGQ9Im0zMjAgMTIwIDE0MCA4MCIvPiYjeGE7ICAgIDxwYXRoIGQ9Im0zMjAgMjAwaDE0MCIvPiYjeGE7ICAgIDxwYXRoIGQ9Im0zMjAgMjgwIDE0MC04MCIvPiYjeGE7ICAgIDxwYXRoIGQ9Im0zMjAgMzYwIDE0MC0xNjAiLz4mI3hhOyAgICA8cGF0aCBtYXJrZXItZW5kPSJ1cmwoI2EpIiBkPSJtMzAgMTUwaDUwIi8+JiN4YTsgICAgPHBhdGggbWFya2VyLWVuZD0idXJsKCNhKSIgZD0ibTUxNSAyMDBoNTAiLz4mI3hhOyAgICA8cGF0aCBtYXJrZXItZW5kPSJ1cmwoI2EpIiBkPSJtMzAgMjUwaDUwIi8+JiN4YTsgIDwvZz4mI3hhOzwvc3ZnPg==;" parent="1" vertex="1">
          <mxGeometry x="417.13" y="2075.5" width="53.25" height="35.5" as="geometry" />
        </mxCell>
        <mxCell id="TqfSNeynW-cu8Um2pJsx-115" value="" style="shape=image;verticalLabelPosition=bottom;labelBackgroundColor=default;verticalAlign=top;aspect=fixed;imageAspect=0;image=data:image/svg+xml,PHN2ZyB4bWxucz0iaHR0cDovL3d3dy53My5vcmcvMjAwMC9zdmciIHZlcnNpb249IjEuMSIgaGVpZ2h0PSI0MDAiIHdpZHRoPSI2MDAiIHZpZXdCb3g9IjAgMCA2MDAgNDAwIj4mI3hhOyAgPG1hcmtlciBvcmllbnQ9ImF1dG8iIG92ZXJmbG93PSJ2aXNpYmxlIiBpZD0iYSI+JiN4YTsgICAgPHBhdGggc3Ryb2tlLWxpbmVqb2luPSJyb3VuZCIgc3Ryb2tlPSIjMDAwIiBkPSJtOC43MTg2IDQuMDMzNy0xMC45MjYtNC4wMTc3IDEwLjkyNi00LjAxNzdjLTEuNzQ1NSAyLjM3MjEtMS43MzU0IDUuNjE3NS02ZS03IDguMDM1NHoiIHRyYW5zZm9ybT0ibWF0cml4KC0xLjEsMCwwLC0xLjEsLTEuMSwwKSIvPiYjeGE7ICA8L21hcmtlcj4mI3hhOyAgPGcgc3Ryb2tlLXdpZHRoPSIzIiBzdHJva2U9IiMwMDAiIGZpbGw9IiNjY2VjZmYiPiYjeGE7ICAgIDxjaXJjbGUgcj0iMjAiIGN5PSIzNjAiIGN4PSIzMDAiLz4mI3hhOyAgICA8Y2lyY2xlIHI9IjIwIiBjeT0iMjgwIiBjeD0iMzAwIi8+JiN4YTsgICAgPGNpcmNsZSByPSIyMCIgY3k9IjIwMCIgY3g9IjMwMCIvPiYjeGE7ICAgIDxjaXJjbGUgcj0iMjAiIGN5PSI0MCIgY3g9IjMwMCIvPiYjeGE7ICAgIDxjaXJjbGUgcj0iMjAiIGN5PSIxMjAiIGN4PSIzMDAiLz4mI3hhOyAgPC9nPiYjeGE7ICA8ZyBzdHJva2Utd2lkdGg9IjMiIHN0cm9rZT0iIzAwMCI+JiN4YTsgICAgPGNpcmNsZSBmaWxsPSIjY2ZjIiByPSIyMCIgY3k9IjE1MCIgY3g9IjEyMCIvPiYjeGE7ICAgIDxjaXJjbGUgZmlsbD0iI2NmYyIgcj0iMjAiIGN5PSIyNTAiIGN4PSIxMjAiLz4mI3hhOyAgICA8Y2lyY2xlIGZpbGw9IiNmZjkiIHI9IjIwIiBjeT0iMjAwIiBjeD0iNDgwIi8+JiN4YTsgIDwvZz4mI3hhOyAgPGcgc3Ryb2tlLXdpZHRoPSIyIiBzdHJva2U9IiMwMDAiIGZpbGw9Im5vbmUiPiYjeGE7ICAgIDxwYXRoIGQ9Im0xNDAgMTUwIDE0MC0xMTAiLz4mI3hhOyAgICA8cGF0aCBkPSJtMTQwIDI1MCAxNDAtMjEwIi8+JiN4YTsgICAgPHBhdGggZD0ibTE0MCAxNTAgMTQwLTMwIi8+JiN4YTsgICAgPHBhdGggZD0ibTE0MCAyNTAgMTQwLTEzMCIvPiYjeGE7ICAgIDxwYXRoIGQ9Im0xNDAgMTUwIDE0MCA1MCIvPiYjeGE7ICAgIDxwYXRoIGQ9Im0xNDAgMjUwIDE0MC01MCIvPiYjeGE7ICAgIDxwYXRoIGQ9Im0xNDAgMTUwIDE0MCAxMzAiLz4mI3hhOyAgICA8cGF0aCBkPSJtMTQwIDI1MCAxNDAgMzAiLz4mI3hhOyAgICA8cGF0aCBkPSJtMTQwIDE1MCAxNDAgMjEwIi8+JiN4YTsgICAgPHBhdGggZD0ibTE0MCAyNTAgMTQwIDExMCIvPiYjeGE7ICAgIDxwYXRoIGQ9Im0zMjAgNDAgMTQwIDE2MCIvPiYjeGE7ICAgIDxwYXRoIGQ9Im0zMjAgMTIwIDE0MCA4MCIvPiYjeGE7ICAgIDxwYXRoIGQ9Im0zMjAgMjAwaDE0MCIvPiYjeGE7ICAgIDxwYXRoIGQ9Im0zMjAgMjgwIDE0MC04MCIvPiYjeGE7ICAgIDxwYXRoIGQ9Im0zMjAgMzYwIDE0MC0xNjAiLz4mI3hhOyAgICA8cGF0aCBtYXJrZXItZW5kPSJ1cmwoI2EpIiBkPSJtMzAgMTUwaDUwIi8+JiN4YTsgICAgPHBhdGggbWFya2VyLWVuZD0idXJsKCNhKSIgZD0ibTUxNSAyMDBoNTAiLz4mI3hhOyAgICA8cGF0aCBtYXJrZXItZW5kPSJ1cmwoI2EpIiBkPSJtMzAgMjUwaDUwIi8+JiN4YTsgIDwvZz4mI3hhOzwvc3ZnPg==;" parent="1" vertex="1">
          <mxGeometry x="327.38" y="1348.25" width="53.25" height="35.5" as="geometry" />
        </mxCell>
        <mxCell id="TqfSNeynW-cu8Um2pJsx-116" value="" style="shape=image;verticalLabelPosition=bottom;labelBackgroundColor=default;verticalAlign=top;aspect=fixed;imageAspect=0;image=data:image/svg+xml,PHN2ZyB4bWxucz0iaHR0cDovL3d3dy53My5vcmcvMjAwMC9zdmciIHZlcnNpb249IjEuMSIgaGVpZ2h0PSI0MDAiIHdpZHRoPSI2MDAiIHZpZXdCb3g9IjAgMCA2MDAgNDAwIj4mI3hhOyAgPG1hcmtlciBvcmllbnQ9ImF1dG8iIG92ZXJmbG93PSJ2aXNpYmxlIiBpZD0iYSI+JiN4YTsgICAgPHBhdGggc3Ryb2tlLWxpbmVqb2luPSJyb3VuZCIgc3Ryb2tlPSIjMDAwIiBkPSJtOC43MTg2IDQuMDMzNy0xMC45MjYtNC4wMTc3IDEwLjkyNi00LjAxNzdjLTEuNzQ1NSAyLjM3MjEtMS43MzU0IDUuNjE3NS02ZS03IDguMDM1NHoiIHRyYW5zZm9ybT0ibWF0cml4KC0xLjEsMCwwLC0xLjEsLTEuMSwwKSIvPiYjeGE7ICA8L21hcmtlcj4mI3hhOyAgPGcgc3Ryb2tlLXdpZHRoPSIzIiBzdHJva2U9IiMwMDAiIGZpbGw9IiNjY2VjZmYiPiYjeGE7ICAgIDxjaXJjbGUgcj0iMjAiIGN5PSIzNjAiIGN4PSIzMDAiLz4mI3hhOyAgICA8Y2lyY2xlIHI9IjIwIiBjeT0iMjgwIiBjeD0iMzAwIi8+JiN4YTsgICAgPGNpcmNsZSByPSIyMCIgY3k9IjIwMCIgY3g9IjMwMCIvPiYjeGE7ICAgIDxjaXJjbGUgcj0iMjAiIGN5PSI0MCIgY3g9IjMwMCIvPiYjeGE7ICAgIDxjaXJjbGUgcj0iMjAiIGN5PSIxMjAiIGN4PSIzMDAiLz4mI3hhOyAgPC9nPiYjeGE7ICA8ZyBzdHJva2Utd2lkdGg9IjMiIHN0cm9rZT0iIzAwMCI+JiN4YTsgICAgPGNpcmNsZSBmaWxsPSIjY2ZjIiByPSIyMCIgY3k9IjE1MCIgY3g9IjEyMCIvPiYjeGE7ICAgIDxjaXJjbGUgZmlsbD0iI2NmYyIgcj0iMjAiIGN5PSIyNTAiIGN4PSIxMjAiLz4mI3hhOyAgICA8Y2lyY2xlIGZpbGw9IiNmZjkiIHI9IjIwIiBjeT0iMjAwIiBjeD0iNDgwIi8+JiN4YTsgIDwvZz4mI3hhOyAgPGcgc3Ryb2tlLXdpZHRoPSIyIiBzdHJva2U9IiMwMDAiIGZpbGw9Im5vbmUiPiYjeGE7ICAgIDxwYXRoIGQ9Im0xNDAgMTUwIDE0MC0xMTAiLz4mI3hhOyAgICA8cGF0aCBkPSJtMTQwIDI1MCAxNDAtMjEwIi8+JiN4YTsgICAgPHBhdGggZD0ibTE0MCAxNTAgMTQwLTMwIi8+JiN4YTsgICAgPHBhdGggZD0ibTE0MCAyNTAgMTQwLTEzMCIvPiYjeGE7ICAgIDxwYXRoIGQ9Im0xNDAgMTUwIDE0MCA1MCIvPiYjeGE7ICAgIDxwYXRoIGQ9Im0xNDAgMjUwIDE0MC01MCIvPiYjeGE7ICAgIDxwYXRoIGQ9Im0xNDAgMTUwIDE0MCAxMzAiLz4mI3hhOyAgICA8cGF0aCBkPSJtMTQwIDI1MCAxNDAgMzAiLz4mI3hhOyAgICA8cGF0aCBkPSJtMTQwIDE1MCAxNDAgMjEwIi8+JiN4YTsgICAgPHBhdGggZD0ibTE0MCAyNTAgMTQwIDExMCIvPiYjeGE7ICAgIDxwYXRoIGQ9Im0zMjAgNDAgMTQwIDE2MCIvPiYjeGE7ICAgIDxwYXRoIGQ9Im0zMjAgMTIwIDE0MCA4MCIvPiYjeGE7ICAgIDxwYXRoIGQ9Im0zMjAgMjAwaDE0MCIvPiYjeGE7ICAgIDxwYXRoIGQ9Im0zMjAgMjgwIDE0MC04MCIvPiYjeGE7ICAgIDxwYXRoIGQ9Im0zMjAgMzYwIDE0MC0xNjAiLz4mI3hhOyAgICA8cGF0aCBtYXJrZXItZW5kPSJ1cmwoI2EpIiBkPSJtMzAgMTUwaDUwIi8+JiN4YTsgICAgPHBhdGggbWFya2VyLWVuZD0idXJsKCNhKSIgZD0ibTUxNSAyMDBoNTAiLz4mI3hhOyAgICA8cGF0aCBtYXJrZXItZW5kPSJ1cmwoI2EpIiBkPSJtMzAgMjUwaDUwIi8+JiN4YTsgIDwvZz4mI3hhOzwvc3ZnPg==;" parent="1" vertex="1">
          <mxGeometry x="580" y="1350" width="60" height="40" as="geometry" />
        </mxCell>
        <mxCell id="TqfSNeynW-cu8Um2pJsx-117" value="" style="shape=image;verticalLabelPosition=bottom;labelBackgroundColor=default;verticalAlign=top;aspect=fixed;imageAspect=0;image=data:image/svg+xml,PHN2ZyB4bWxucz0iaHR0cDovL3d3dy53My5vcmcvMjAwMC9zdmciIHZlcnNpb249IjEuMSIgaGVpZ2h0PSI0MDAiIHdpZHRoPSI2MDAiIHZpZXdCb3g9IjAgMCA2MDAgNDAwIj4mI3hhOyAgPG1hcmtlciBvcmllbnQ9ImF1dG8iIG92ZXJmbG93PSJ2aXNpYmxlIiBpZD0iYSI+JiN4YTsgICAgPHBhdGggc3Ryb2tlLWxpbmVqb2luPSJyb3VuZCIgc3Ryb2tlPSIjMDAwIiBkPSJtOC43MTg2IDQuMDMzNy0xMC45MjYtNC4wMTc3IDEwLjkyNi00LjAxNzdjLTEuNzQ1NSAyLjM3MjEtMS43MzU0IDUuNjE3NS02ZS03IDguMDM1NHoiIHRyYW5zZm9ybT0ibWF0cml4KC0xLjEsMCwwLC0xLjEsLTEuMSwwKSIvPiYjeGE7ICA8L21hcmtlcj4mI3hhOyAgPGcgc3Ryb2tlLXdpZHRoPSIzIiBzdHJva2U9IiMwMDAiIGZpbGw9IiNjY2VjZmYiPiYjeGE7ICAgIDxjaXJjbGUgcj0iMjAiIGN5PSIzNjAiIGN4PSIzMDAiLz4mI3hhOyAgICA8Y2lyY2xlIHI9IjIwIiBjeT0iMjgwIiBjeD0iMzAwIi8+JiN4YTsgICAgPGNpcmNsZSByPSIyMCIgY3k9IjIwMCIgY3g9IjMwMCIvPiYjeGE7ICAgIDxjaXJjbGUgcj0iMjAiIGN5PSI0MCIgY3g9IjMwMCIvPiYjeGE7ICAgIDxjaXJjbGUgcj0iMjAiIGN5PSIxMjAiIGN4PSIzMDAiLz4mI3hhOyAgPC9nPiYjeGE7ICA8ZyBzdHJva2Utd2lkdGg9IjMiIHN0cm9rZT0iIzAwMCI+JiN4YTsgICAgPGNpcmNsZSBmaWxsPSIjY2ZjIiByPSIyMCIgY3k9IjE1MCIgY3g9IjEyMCIvPiYjeGE7ICAgIDxjaXJjbGUgZmlsbD0iI2NmYyIgcj0iMjAiIGN5PSIyNTAiIGN4PSIxMjAiLz4mI3hhOyAgICA8Y2lyY2xlIGZpbGw9IiNmZjkiIHI9IjIwIiBjeT0iMjAwIiBjeD0iNDgwIi8+JiN4YTsgIDwvZz4mI3hhOyAgPGcgc3Ryb2tlLXdpZHRoPSIyIiBzdHJva2U9IiMwMDAiIGZpbGw9Im5vbmUiPiYjeGE7ICAgIDxwYXRoIGQ9Im0xNDAgMTUwIDE0MC0xMTAiLz4mI3hhOyAgICA8cGF0aCBkPSJtMTQwIDI1MCAxNDAtMjEwIi8+JiN4YTsgICAgPHBhdGggZD0ibTE0MCAxNTAgMTQwLTMwIi8+JiN4YTsgICAgPHBhdGggZD0ibTE0MCAyNTAgMTQwLTEzMCIvPiYjeGE7ICAgIDxwYXRoIGQ9Im0xNDAgMTUwIDE0MCA1MCIvPiYjeGE7ICAgIDxwYXRoIGQ9Im0xNDAgMjUwIDE0MC01MCIvPiYjeGE7ICAgIDxwYXRoIGQ9Im0xNDAgMTUwIDE0MCAxMzAiLz4mI3hhOyAgICA8cGF0aCBkPSJtMTQwIDI1MCAxNDAgMzAiLz4mI3hhOyAgICA8cGF0aCBkPSJtMTQwIDE1MCAxNDAgMjEwIi8+JiN4YTsgICAgPHBhdGggZD0ibTE0MCAyNTAgMTQwIDExMCIvPiYjeGE7ICAgIDxwYXRoIGQ9Im0zMjAgNDAgMTQwIDE2MCIvPiYjeGE7ICAgIDxwYXRoIGQ9Im0zMjAgMTIwIDE0MCA4MCIvPiYjeGE7ICAgIDxwYXRoIGQ9Im0zMjAgMjAwaDE0MCIvPiYjeGE7ICAgIDxwYXRoIGQ9Im0zMjAgMjgwIDE0MC04MCIvPiYjeGE7ICAgIDxwYXRoIGQ9Im0zMjAgMzYwIDE0MC0xNjAiLz4mI3hhOyAgICA8cGF0aCBtYXJrZXItZW5kPSJ1cmwoI2EpIiBkPSJtMzAgMTUwaDUwIi8+JiN4YTsgICAgPHBhdGggbWFya2VyLWVuZD0idXJsKCNhKSIgZD0ibTUxNSAyMDBoNTAiLz4mI3hhOyAgICA8cGF0aCBtYXJrZXItZW5kPSJ1cmwoI2EpIiBkPSJtMzAgMjUwaDUwIi8+JiN4YTsgIDwvZz4mI3hhOzwvc3ZnPg==;" parent="1" vertex="1">
          <mxGeometry x="443.37" y="1854.5" width="53.25" height="35.5" as="geometry" />
        </mxCell>
        <mxCell id="TqfSNeynW-cu8Um2pJsx-118" value="" style="rounded=0;whiteSpace=wrap;html=1;fillColor=#d5e8d4;strokeColor=#82b366;strokeWidth=2;" parent="1" vertex="1">
          <mxGeometry x="583.75" y="2075.5" width="120" height="40" as="geometry" />
        </mxCell>
        <mxCell id="TqfSNeynW-cu8Um2pJsx-9" value="Individual File Summares" style="rounded=0;whiteSpace=wrap;html=1;fillColor=#d5e8d4;strokeColor=#82b366;strokeWidth=2;" parent="1" vertex="1">
          <mxGeometry x="593.75" y="2085.5" width="120" height="40" as="geometry" />
        </mxCell>
        <mxCell id="TqfSNeynW-cu8Um2pJsx-127" value="" style="shape=image;verticalLabelPosition=bottom;labelBackgroundColor=default;verticalAlign=top;aspect=fixed;imageAspect=0;image=data:image/png,iVBORw0KGgoAAAANSUhEUgAABXgAAALdCAIAAAAZH5yzAAAACXBIWXMAAAsTAAALEwEAmpwYAAAgAElEQVR4nOzdd5Od133g+d855wk3dg7oCDQiwQAmSaNAWXEly5YcyvZsmJqd3fVWefwu/AZ2prZ2tqZmvDW2NeMkW9E2LY9MSlZgAEGQBJFzaqADOve99wkn7B9N0oq2ZD8kSOL7KbAaxb6499wHtxv3+fZzzlEhBAEAAAAAAKiCvtsDAAAAAAAA7x6EBgAAAAAAUBlCAwAAAAAAqAyhAQAAAAAAVIbQAAAAAAAAKkNoAAAAAAAAlSE0AAAAAACAyhAaAAAAAABAZQgNAAAAAACgMoQGAAAAAABQGUIDAAAAAACoDKEBAAAAAABUhtAAAAAAAAAqQ2gAAAAAAACVITQAAAAAAIDKEBoAAAAAAEBlCA0AAAAAAKAyhAYAAAAAAFAZQgMAAAAAAKgMoQEAAAAAAFSG0AAAAAAAACpDaAAAAAAAAJUhNAAAAAAAgMoQGgAAAAAAQGUIDQAAAAAAoDKEBgAAAAAAUBlCAwAAAAAAqAyhAQAAAAAAVIbQAAAAAAAAKkNoAAAAAAAAlSE0AAAAAACAyhAaAAAAAABAZQgNAAAAAACgMoQGAAAAAABQGUIDAAAAAACoDKEBAAAAAABUhtAAAAAAAAAqQ2gAAAAAAACVITQAAAAAAIDKEBoAAAAAAEBlCA0AAAAAAKAyhAYAAAAAAFAZQgMAAAAAAKgMoQEAAAAAAFSG0AAAAAAAACpDaAAAAAAAAJUhNAAAAAAAgMoQGgAAAAAAQGUIDQAAAAAAoDKEBgAAAAAAUBlCAwAAAAAAqAyhAQAAAAAAVIbQAAAAAAAAKkNoAAAAAAAAlSE0AAAAAACAyhAaAAAAAABAZQgNAAAAAACgMoQGAAAAAABQGUIDAAAAAACoDKEBAAAAAABUhtAAAAAAAAAqQ2gAAAAAAACVITQAAAAAAIDKEBoAAAAAAEBlCA0AAAAAAKAyhAYAAAAAAFAZQgMAAAAAAKgMoQEAAAAAAFSG0AAAAAAAACpDaAAAAAAAAJUhNAAAAAAAgMoQGgAAAAAAQGUIDQAAAAAAoDKEBgAAAAAAUBlCAwAAAAAAqAyhAQAAAAAAVIbQAAAAAAAAKkNoAAAAAAAAlSE0AAAAAACAyhAaAAAAAABAZQgNAAAAAACgMoQGAAAAAABQGUIDAAAAAACoDKEBAAAAAABUhtAAAAAAAAAqQ2gAAAAAAACVITQAAAAAAIDKEBoAAAAAAEBlCA0AAAAAAKAyhAYAAAAAAFAZQgMAAAAAAKgMoQEAAAAAAFSG0AAAAAAAACpDaAAAAAAAAJUhNAAAAAAAgMoQGgAAAAAAQGUIDQAAAAAAoDKEBgAAAAAAUBlCAwAAAAAAqAyhAQAAAAAAVIbQAAAAAAAAKkNoAAAAAAAAlSE0AAAAAACAyhAaAAAAAABAZQgNAAAAAACgMoQGAAAAAABQGUIDAAAAAACoDKEBAAAAAABUhtAAAAAAAAAqQ2gAAAAAAACVITQAAAAAAIDKEBoAAAAAAEBlCA0AAAAAAKAyhAYAAAAAAFAZQgMAAAAAAKgMoQEAAAAAAFSG0AAAAAAAACpDaAAAAAAAAJUhNAAAAAAAgMoQGgAAAAAAQGUIDQAAAAAAoDKEBgAAAAAAUBlCAwAAAAAAqAyhAQAAAAAAVIbQAAAAAAAAKkNoAAAAAAAAlSE0AAAAAACAyhAaAAAAAABAZQgNAAAAAACgMoQGAAAAAABQGUIDAAAAAACoDKEBAAAAAABUhtAAAAAAAAAqQ2gAAAAAAACVITQAAAAAAIDKEBoAAAAAAEBlCA0AAAAAAKAyhAYAAAAAAFAZQgMAAAAAAKgMoQEAAAAAAFSG0AAAAAAAACpDaAAAAAAAAJUhNAAAAAAAgMoQGgAAAAAAQGUIDQAAAAAAoDKEBgAAAAAAUBlCAwAAAAAAqAyhAQAAAAAAVIbQAAAAAAAAKkNoAAAAAAAAlSE0AAAAAACAyhAaAAAAAABAZQgNAAAAAACgMoQGAAAAAABQGUIDAAAAAACoDKEBAAAAAABUhtAAAAAAAAAqQ2gAAAAAAACVITQAAAAAAIDKEBoAAAAAAEBlCA0AAAAAAKAyhAYAAAAAAFAZQgMAAAAAAKgMoQEAAAAAAFSG0AAAAAAAACpDaAAAAAAAAJUhNAAAAAAAgMoQGgAAAAAAQGUIDQAAAAAAoDKEBgAAAAAAUBlCAwAAAAAAqAyhAQAAAAAAVIbQAAAAAAAAKkNoAAAAAAAAlSE0AAAAAACAyhAaAAAAAABAZQgNAAAAAACgMoQGAAAAAABQGUIDAAAAAACoDKEBAAAAAABUhtAAAAAAAAAqQ2gAAAAAAACVITQAAAAAAIDKEBoAAAAAAEBlCA0AAAAAAKAyhAYAAAAAAFAZQgMAAAAAAKgMoQEAAAAAAFSG0AAAAAAAACpDaAAAAAAAAJUhNAAAAAAAgMoQGgAAAAAAQGUIDQAAAAAAoDKEBgAAAAAAUBlCAwAAAAAAqAyhAQAAAAAAVIbQAAAAAAAAKkNoAAAAAAAAlSE0AAAAAACAyhAaAAAAAABAZQgNAAAAAACgMoQGAAAAAABQGUIDAAAAAACoDKEBAAAAAABUhtAAAAAAAAAqQ2gAAAAAAACVITQAAAAAAIDKEBoAAAAAAEBlCA0AAAAAAKAyhAYAAAAAAFAZQgMAAAAAAKgMoQEAAAAAAFSG0AAAAAAAACpDaAAAAAAAAJUhNAAAAAAAgMoQGgAAAAAAQGUIDQAAAAAAoDKEBgAAAAAAUBlCAwAAAAAAqAyhAQAAAAAAVIbQAAAAAAAAKkNoAAAAAAAAlSE0AAAAAACAyhAaAAAAAABAZQgNAAAAAACgMoQGAAAAAABQGUIDAAAAAACoDKEBAAAAAABUhtAAAAAAAAAqQ2gAAAAAAACVITQAAAAAAIDKEBoAAAAAAEBlCA0AAAAAAKAyhAYAAAAAAFAZQgMAAAAAAKgMoQEAAAAAAFSG0AAAAAAAACpDaAAAAAAAAJUhNAAAAAAAgMoQGgAAAAAAQGUIDQAAAAAAoDKEBgAAAAAAUBlCAwAAAAAAqAyhAQAAAAAAVIbQAAAAAAAAKkNoAAAAAAAAlSE0AAAAAACAyhAaAAAAAABAZQgNAAAAAACgMoQGAAAAAABQGUIDAAAAAACoDKEBAAAAAABUhtAAAAAAAAAqQ2gAAAAAAACVITQAAAAAAIDKEBoAAAAAAEBlCA0AAAAAAKAyhAYAAAAAAFAZQgMAAAAAAKgMoQEAAAAAAFSG0AAAAAAAACpDaAAAAAAAAJUhNAAAAAAAgMoQGgAAAAAAQGUIDQAAAAAAoDKEBgAAAAAAUBlCAwAAAAAAqAyhAQAAAAAAVIbQAAAAAAAAKkNoAAAAAAAAlSE0AAAAAACAyhAaAAAAAABAZQgNAAAAAACgMoQGAAAAAABQGUIDAAAAAACoDKEBAAAAAABUhtAAAAAAAAAqQ2gAAAAAAACVITQAAAAAAIDKEBoAAAAAAEBlCA0AAAAAAKAyhAYAAAAAAFAZQgMAAAAAAKgMoQEAAAAAAFSG0AAAAAAAACpDaAAAAAAAAJUhNAAAAAAAgMoQGgAAAAAAQGUIDQAAAAAAoDKEBgAAAAAAUBlCAwAAAAAAqAyhAQAAAAAAVIbQAAAAAAAAKkNoAAAAAAAAlSE0AADeTGUpWSbe3+1xAAAA4C0S3e0BAO90/gc+/kC7I+ThrbBzCq9/+OUWbJ5vbXfXu731zc5Wt9vpFtY5a702pt2otdqNVj2p1eqNWm2gkdbqqYj6wbv1+kfu9J8iBCoDAADAPUWFEO72GIB3Fu+9aJE3/vvJN/y+D//ojYGfkfdeRL6/BYTgV9Y2by+uzS+tzC+uLKxsrG9sdbKiKF1ROmfDzksyiFI6aBGldZrG7UY83G6Pj/RN7RreOzU2NT7a126+0Rx+9FF+Zs6JUq/9AgAAwD2A0AD81H7kB8dBJAQRH0KwKjhRIlopJUpFIuZH/ngQCRQH/PP90Ml/EL94Z+3ilVvnLt84f33pzurGVq/ISueDqKDjJElrcRxHUZRobRKjVAguhNL6IiuLsixt4byLjU4i06onY8OtA7PjDx3cs3/PVF+7+dpDBAmhogscAAAA8G5HaAD+Ud570Vq9cWG5dXlerGXbS/nmUtlbE+m6sFn0OmJ9VItqjTSK2zrtM/FolIwmteG01qdV/e/vToKWQG7AP8EPJYZet3Pu8s0Xz1w9e3n+9tJGXnqJTJpEaVpLarV6kiZJEsWJNiaKIrUTwcSL8z64IN6XIfdlYUNpy6JwZV6UeV6Uhbe23YhmJ4ceOzz76P37p8dHd/paCCGEQG4AAADAP4zQAPxDvHgVlFJKRFzpels3OmuXtjfP9zo33eaqkszURdUkePFW6UiSWqyC2MwVPVuWWqJ6WutP25O15lSjb7rRnqk3du30Cu+D1uQG/GxCCDuvxu3u9itnrn/nxdOnLt7oZDaJ47TRbNWbrVazkaRJrRancRpFQXRQRoXXXseidBAlSjsfrA0iPnjnnQvBlbZw1tnSlmXZybJup5N1u1r5qZHmew7PvP/R+/bMTO0MwXtaAwAAAP4hhAbgJ/NBtBIRF3rrt8+sX39p+86ZYJdEMsld3EjrI40oUcEFraK4Hqd9sU6iIMH7UORFkeVZz5a9sujaspCgGklzom/oodGJx/uG9u7cs4inNeCn8feJodN75fT5bx09e/rq7ax09XpzoK/davX3tVpprV5Lamm9Fie1ONE6SZQoZZQWZYzWIqJEfPDee6+8D9a5MnhXurz0tiyKMi/y0pZ5nhfWlmWZb2/1Op1NX2ZTw40PPrz3g48dHhsbEREXxLDeAgAAAH4CQgPwE4SdqRJhff6V2698c/3acZGVtBHp1CQqSWppMhhFqYmcMpHR/XE8EEWxFjE73SAo5XxwLuSFc3nR2yw6691uNy+sjpOp4ckPTu/5cL09dpefI94hQthZSNGfOHflqWdfffn09U5h2+2B4aGB/lZ/e6DdbLbSRr3VbDSb9Vo9jiKjtVaRikVEBeWDt2KdKwprrSudta60pXjnfdA+iPfai3I2WOdzZ/MsK/JuludFnmV51tnubqytS8gOTbc/+f4H3nPkcBwnd/uQAAAA4O2L0AD8OCGIUs7lt5578sY3vty7dElZXxtLk8F6XIvSwXp9qpYMJMpK1EpqI7FuRibRKryxUv9ryzCoID5I6aQsbN7Nsk7R2e5tbvR6vag9/Nj+B351eOzQXX2eeMdYWln7u6Mnvv3CucW1XqvdGhoYHhgYHBoaGBwcHBhqtZq1Ri1OayaNxRgtQYIXZ31ppShdnvcya3PnirK01odgnSuV9SF48Upe2xAiFh2Jirwy1qnc2iwv8m6vm/fKLMu62eb29ubGSjMqP/Lo3k//3KODg0N3+5AAAADgbYrQAPx4Xsqb3/jilS/81/zmfCxGqVi347gVRU1T35W27+tLRxpRO46H4qQvMiry/rUr20XeuBpi5/deBeVCKK3Luq7XK7Y75fp6Z221V28dOHTkf56efc9deop4h/D2pdMX//rvXn7l0oKOa2MjI+MjYyMjg0MjgyMjfcP9jXZL1xKdmKC8hKCKUno9t50VW93eVtbpdbvd9fVse6vY3nLbHZ/3fJErHyJtJFYqSSSKdJSaWi1pNKJaPUrrOqoH1fCm5oLq5baXFd1er9fr9Tpb66t3eptrD+0d+pVPvnf/3t13+9AAAADg7Si62wMA3qbuPP+dq1/6k+zqfFyLJIqCV+J9cMHnoez6YFWtHaUDiagodEOhnPdBVDBaqUirIKJFKbWzBIMXEZE4MtIQpWIvwUnTqrCxeu6V45/P8u7+Az8nIj/YJwARkW6v9/VvH/vbZ07e2bSDI2NjY+Pjo6NTk2NT4+2RgbTdiJrRa8t9WJFeKVsdu7bdWVtbWVtZ3r6z3Flc6C4v9NZWelvbedbJs8yVpfXehqC80sZobUwSJXEa1+tJu13v66sNDNYH++vNgbQ1lDT6G3Gj2arl9aib1bZrtWajubHRf+L6rZUvfuvXPvWe9zz8wN0+QgAAAHjbITQAP0Zv4dalv/pK99attL+ujVJOB6NMonSsRWttorSll9ey737j6rlzy7Fxjz0y/r73Taf9qQ8SJ8ZERmmttCitlAohSBAJQYJoHZt6LXLel7bunKyvX3jppf9WlO7w4Y8oxaqQ+AE3b976i6dfeOaVqyFu7t49u2tqfGpidPf00PRYY6Bm6vq17+CFSFbIxnZvYWV18fbC8s0byzdvbtye7y4uZhubve5mr8xz561IKUEi7UWcD15C8EH5oJ1PjI61qUVxmiS1ZqPZP9QYGW4MjfQPjTQHR5L+saQ+kDZqtaS9XU9q9Xqt3rx9++of/sUz3W7xxHuP6Mjc3QMFAACAtxWmTgA/xvk/+oNLX/z91GRxLfYixovSohOjIhWnUW22dqrsffl71149s1jkpahouL/2yQ/NfvIju8fHmybVtXaa1EwUG22MMkp7CaLESAjig7fW9sqy1ylXt4rNrWxtdduqiUcf+18fPPxRrmjA6/zLJ85/+eljZ26stgdG5mYmd01MzM6M7J/sG2tHdaN2zuy9SNeFtc3s1uLC/LXrC1eurFy+vD5/c+PO8nZnvVvkPR+ciBcTjA5aBWWU0UaJV6JEghLvgvggzqkQlPeJ94nWdR3Va7VGX39jeKw9Md4aG+sbGW8NjEWNEa+TLHfdolhd37px/VrDb/7KJx756AceU5psDQAAgNfw1hD4YWXeWz/1XDPfjIZaViulg8RBxASjnZZ4QJ3sdv/9V889/+LNqfH2r/7qr8RR7atf/ev/8PmXt7vlr39mrt5Os6ystZNaLYlio2KJjBJlxCkjIiGoIForUzMNHxU2bvXXl9avfe+Fz5soOXzgQ3f72eMu8iEopVRw+befO/GVb768uOXHp2b2zEzunpncPT26f7Q2kIoSCUFESSGytpXPLy7dvHz5xtkzixcurN64sb66up31ukWRG11GRsVGRZESbbQyRumdZR9FzOuN2UdKBXE+BAnWBet8z7st55LOdq3baa7dqS3e7BsZ65uY6Bsb7R+fbA3NNGt9Rpt4pD9N9l+9dOkrTx2PoujD/+Kxu3vsAAAA8PZBaAD+nvdea93dWs82VtfLMnUhVaKUslpppZRSqqnyfnnqxPKr55ZFJKh0ZOL+4bHJge+9evnGwndfXPzAY5N707hnS1cG15CkEUWxliQosUqp1zbMDF4pL84nsU5qRuem3W7cWrz03aN/2G6PTO9iH4p7lA9KK+WK7l8+/ezXvnu+8MnumZmZmel9+yb2T/dP9kX11+fWBJHN3C4srly/cuXq+fO3z5xeunpl/c7iRqfXdb7U2tdSiePIRGktiqM4isRoE0Tt7IXinPchiLjSBu+9c0GJV6K1DiGJnAvWO2ttx9mtrGzkS73N9e2Vla3x8a2V1cHJleGJPWl7Io7TdKgR670Xzl/82lPHWo300YdYrwEAAAAihAbgDTuVQURuXJ9/rqOvhOZAxx9O/FiiTNDe+Kip1XBtU7mzpxZVHob66rbsPf03Tw4P79peXxSR+eXu8tL2nol6GcRbERecjeqNKApGayNGOS1KSQjKBGWsKkOIYx0nkXFpX19jfuHEs8e+9OmP/tu+1uDdPhh4i3kRrZXa3lr7wpNHn3rxYn9f377p3RNTU/ftG9s30Rqqqze+WedW7nS6N6/euHzq5PVTJxcuXVy5fWtta7PjQ2mSUK+ZNKrHUZzE9VpUr9XjKNGREh9c8N57CTsfvA/a2uC9zwub5VmRlyIuBDFGjDFepz5EReltsHlZZncWyu5mtrG1vb6erd8Z332oMTRdi5u7Rhqx2X/mzNkv/c0zrUb9wL69d/MoAgAA4O2B0ACIiIQQdirDmQtnv/Lkfz+2khXJ6HLQvbI7p7dGjavXoqhPq6Ys3+511oq00Wi3EhX8jWvnb89f6va2lEgUKZUoo5VSPq6pZsskjSRtxWkzFaOclxBEghgJ4r0zZW4LE1Ra0z2rojRtNPOT558eGZr7yPt/XTPj/d6iReTG7RtfePLYyct3pifGx3dNjc9MP7hv7OBoWo+CiEgIotR6YZcW71y9ePHSiZPXT51cvH5lbXVlu/SZjnwzNUlUT0yzlrbq9aSeKq2c80VZeuu191orLTszL7wrfVEWpbPWB6VMPU1rST0v8l7Wywurg40iY0ykY+1C3FMm97bX7fXb62W5nW1vdbY6U/u3BnftNaZ/tC+Wg3OnTp/5+lPPDff1DY2OBAmK1UYAAADuYZzMAH9/LcN3n/neF/7sT8+euaiV1JMkRNGt2lhZHzLNjcnBbtSvVaQjnTT7krQToiiNVHDBF64IYoLI1HTf3vuGJ+YGJNJJzURpZOqJMVpp8RKCFed3ZsYHpXQUu6hrlPUmClGslVb1Vn0rX3/+xFd3je07vP+9d/uo4C116sLFLzz5/I3lztzsroGxmYnZicf2Dc8MxImIiJIgTqm17ezazflLJ09efenlW+fOLi/Mr253u0q7Wk2SOE10q1Eb7B9oNOplaXt55r1t1OpjowNDQ0P97YFGq5HGsYkiH3yRZVudzsbONph37txZWilKW2s0BvuHstJ2trd63Z42Nk0TY1RQxge9VVprbVhbaxfuTp6XpbOlG5rcndb7JoZb5d69Fy6d+9azxz73mY/FcfrG1xQAAADuQYQGQHbOiL71zaf/4PO/f/nqtcRE2uhOllll6+nuwcH79OBSbfjSQJ9q9Q3u3ptc2dq+/qWLRaHjRqq91kFZ62px7SMfmHn00cmBobrSSrT2wYuSoEScU16JEq0lBAk+eOedDcEHH4IoUUZ0IqYw9UZzefnqt47+6cjw5Ojg1N0+MHiLvHTm/J987bn1dbt/7+TAxOzu3dMPz/VPt4zszKkQKZQsrmxfOX/h8qsnrr76yu1zF1bWV9atLePUxbFJdKuRDg/0twf6nUgv69WS9NDs/tnZ2Zmp6V27dg2PjLZa7Z0FGyKtQwhlaYsiy7rd9fW12wvzly5ePnPqzIUL51fXF02tMTAw0MvrW1ubRadXT2MdR1orFUe5NcuutPlm/7b1N0qf5bbMJ2bmau3h6bG+XmfX0ZMX52anH33kQSoDAADAvYzQAIiIPPvMc//l93/v4uXLzUbDaNMtsm7WjbTUar1IysGhZGy6v38oag70DQy2/tXQg9dvbfzFX89vbGaRiSUEb8uPf3jq13913/hMX7mzX6CIFhV88FZEVJAQgoQQgvPOBls4a63zXpQPSkSLiURHSpkoacanLz3zzMuHf/HD/1sUmdfPNPGudfTE6T/7+tHuuuzdPdk3M7t/3+xjM43hmhYRL6JEeiILt5fOv3r2womXb7z66u1rl1c3NjuiijhRSVRvxMNDA4P9Q05CN8v62q0j9z32wJEj+/ftGx+fiJL4Rx9RKZUkcZLErVZ7ZGx8/8H7Pvxzn1haWDh18sQzz33v6HPPLd252ewbGh4d3dpY73U7kXNpkmqtJRZrw1rhxfXaRQildeJV8Lt2+0ZzcG5m7OTm6refPz47tWt4dCSwWSsAAMC9yvzO7/zO3R4DcNeEEJRSZ06f+f/+y386fe58vV6Pk8h5KctSa93fbNXTphF/cNoePJw0husmjcWEXeOtwweGJkZqtbrq6wv79rU/97k9v/VbDz/2nkmllXdBxAeREHwISrwLEryX4J23wefBFdZZ65WI0U4kdz6ztnBSOl+W3gXZLrp3VpZ3T94/PDAeRJju/i727LETf/rk83nX7J2bGdm798D+2ffONgfTv/8b75b+2rWbJ184dv7F566+/NKNi5dWu73tJLFJatKov68+PT3V3z+S5b1amjzy8MM//6lPf/RjH7/v8P19/f3amB96OO99eJ1SP/C6arZac3v3Pfro4/v27/VFcfXqpazXbQ8MJWm9yHvOO2Ui0cpoXXqVu6BcGbnSFnmeZ2kSNZu1dqsVxfG1+VuJkr1zu7XmdQsAAHCP4ooG3Lt2ppGvra5/8Yt/fvLUyVotSeJYROJIpJ7Wakm7rxVMw/le4UXiVBujlTgXer3y4OHRPfuHfnlxe2ml16jFu2cGBkbq3nlbBBEfgnr9bE68KO/El9ZaJzZ4K94HH3yItNaitRJR3ksIIYioSOlYNxrN5dWb33nxr2bG99brLe8D52zvSt959viffON48OmB3dOj+3cfOjB9eCxpvX4JghPZ7LkbN2+ePvbCleMvzp8/u3B7aSPLe0kcIhMlZnSof3xiQpskz7r79+174sNPPPTQkYGBH9yyxHv5vlkMP3ZGg/f+jU+1231PfPjjhw8/9ODX/+qP//iPb966MjQ6OzA0trW+GorcxLGYKI61tX7NinR6/d5vaHU9SdNamsTRxEhrabn1ypnThw/t3b1n95t25AAAAPC2xhUNuEe9sVjd3z71jS995c97RdlsNkxsjImj2NRqaaNRT9J2nCbNKN+zqxjfFcXGRForpcSrwoU4jkZGGjNT/bsmWrU0cbnzLgQnIfhggwtevArBey9uZ7qEDd4G57zz3jqxIVjncus6he06m9lQlr50rnTivSptsXTn1tjwzPSu/UopL57rGt5lvvPM8T9++uVCNQ7NTE0dmjt839T9E0nz9UsQgshqJ7904cLpZ5+9+MLz10+fubW4tOlckaQujRv1dGpibGJyynofafnoh5/4lc/98gMPHanV6j/8MOoff9kopX7o6oZGo/ngkUdmpqdvXL109fLFWmug1TdQlj1nnYmM0kop5UNwIto742xZWK+k3qj197VqaW3+1kKswt59c6zUAAAAcG8iNOAetRMalhaX/uC//sGly5dqjUZioiiO0lqSpkmSpnFaj6LEGElCvqvdGx1SEhlRWmtllIgo650rQlk6Z7134ftXYfDOB0QEiyoAACAASURBVKd8CN6Jt8FaZ3PnclcUZcids955XwaXBdcpyu2y7FmXF750Pi+9c+K8eNGb25vdXnfv9P3t5oAEUT/FGSPe5rx/7cT/O8++9Id/+1Iv1O+fmJ45tOfBB6cPDsd1kZ11DazI4trm+TPnzz5/7OKx52+cO7uwtt7xUkTGp0m7v7FndmZkeCwv8+mJ8V/+3C997OOf7B8aqny0s3vmDhw8dPPq5fNnT9VarWa73+W5c84Yo5QKSrmgXAimtDovCud0ZNqtxshQu9PtLd9ZmZoc/+HLKwAAAHBvIDTgXuS9N8aIyHeffeZrf/Fl610tTUVJFEdJkkRRFCdJFEVai9Eqy8u27u4aFvX6jPfgdzaMULITF7wKXnb+l3Peu2D9zq2kzF3RybNOkXfLsluG0nkJXoWgpFCSBb9lbacss8LlPhTOlWVwTpwPIsp7v7y2UI/7Duw+Yozx3tMa3tG8yM4MmKPHT/3RU8c7unl4YvrA4b0PPDy1rz+qichOZQhye3Xtwumz546+cOno8zcvX1zc2uqI9lHsUz00OrR3dq7ZaHlvHz7y4Oc+98sPHXnERG/WJLix8V37Dxy8fvnSmTOn231Dfe3BIu/54LXSQYko8T5IcJF1Yp3XKqonw0PtZqO5sLCYpvHc3BwvWgAAgHsQoQH3op2V8Kyzf/31J1965eUkSnd+SJskSRzHxhhjjFZGgoq06llnXHdywNVT41zwznkvwQVx4n3wPnjnvQ8+BOeCc95Z7633PrjS5Z0i3y7LrvOFkxAkUsoo0eIi5Y0UKnSs6xZlZl1RurL0PoTCiQ/eB6W06eXdje21ydF9Y0NTTKB4R3tj75BXTp77o795YcunB8enDz0w99CRibm2SV+/WRFkfmH5/KkzZ59/4cqxozevX17u5l2lvBKpJ2NTu+Z2z2ml09h89KM/9/Of+czE5Ju+B+ro2NievXOnX3nl2rWrg1PTSZwW3W7QSivlJYhSPogWb6wTLTqK6636yNDAdqe7tbU5MzXZarXf7BECAADg7YbQgHvRTmjY2Nj8yyf/8ur1K0kUK1E6MpGJTKSVVkq00kprlURSStTNy7FGr6+mrFO2DM754IKzwVnvSu9ssKW1hbeZKzNbZrbMy6Jb2tw6q4LzrnBKS5QqHUeixWtdqFBIyIPrlrZrbV760nprQ+mDc8E7cU4pJUZHq5vL4vX+3Y/UkpoSYcfAdyLvvVYios6dv/z5J5+/U5iDk7P3H5578OGJPU2TvH6zrHQ3by1eOHPm/LFjV44dnb9+dSW3mTZOtGpEs3O7d0/vzru9oaH2Zz/7Cx/5yMcazdZbM/7xXRPDw8MvfO/bq9vb47N7TWmLLBNttFI+eAlKBUmsU85b8XGSDo/0N9J0YWGpv79vanrmrRkkAAAA3j7YdQL3ru1Od31tTfmda7uDKBUkOO+181aKIEGiyKrY2fL2Uudc2h1rqVq/KjIVZcYmxkSRibSKJTJG6aCUDt5LkOCDSBAXRIsyRoUgIShRQSsTaWtU6VzX+m6wPWezsiytOB+8BC8hiNIiooLR4n1I4ihJzMlLzxw68/hHHv+Fn2ZhP7wNKaVFZH7+1heeOrq0Jft2zx48vOehB3bNNkwsEoIoJb0y3Li1cOnMmXPHj187duzWrfkNazNtbAimkcwd2jc5NtFZ35yZ2fXZX/zsgw8eEaV+dIvKN88nPvXpkydP/Of/+B+XB8cmJ6ecK3pZzynRooKRXFTuVJRlnbX1pYWFlcXhycmJ1ITrN288eKTXqP/IEpUAAAB4VyM04N6VF72syJXRorUPQTkXvPfWWS9ilTFBiep17MKtxfnrt+p5cmCyNpvaUospXB6rKDLGaGO0jozWSmmvRYns9ApRIiqIMU5FWpQEJd4Ha4KLtJWQ51mnLLrWdktf2hB88E4FJSIhKL+zFoQW8VYatdrG1srRV79+YPf9k6Nzd/eI4Z9GKdna2PjKN49fWSr2zO45dN+eBw6Pz7RN/Ppne9Zev7Fw+cK5C8ePX3nhhYVb86veZSbyIUTNZP99B8eHd3XWV/cf2PeLn/2lffv2iYjIW1cZdvzLf/WvX3zm2aMnXhmbmuzfNVneuBKCBK0klF5MpkPsnen0NpdXFheWdo0ODvY315eWV5aXGrPscwkAAHBvYe8x3LvKsrCFFSchSAjiRZx3ZVHawtqydM5neXZr/vbirVtpkvbSoWsbanurdF2bd4q8U/Y6trddZNt5d6vX3c6y7TLvlTa3rnDB+eCDCkFrZWKl0sjFyqrQK22nKHquzILrutC1vvChFG+99+KV9+K91jvbDYoR0Uqi2DQa6eXbLx879XTpirt9zPBPYYv8r77z0kuX7uwa3bXv4J77D47v7Y/emDHRs/7ajduXzp4+f+zYpaNH5+dvrHlfiHE+1NrNQw8dGR+d3N5YffDIQ7/+G//j65VB3spJNN57EZkY3/Ub/+Zfp8Hevnm9f2RXuzWgVFAqiBittTcmV7osXG9j+87C8traWrtZz3pby8sLb9k4AQBvc95794P8zr8xAN51CA24hwVxwVtvQ3BKeWutc84757wLIeR5try4tLK01Gg09u2fG5+Ym++2l9atz1yRuTx3eWaznuv2bNHzZc+VPVtmzpZeeTGitFYmMTqNTBKZpjG1qIj1dlludLONLO9al3tbOld6563zEoIKXitRr+9wqCRoER2UhFqaWukdPf3fL14/cbcPGf4JwjePvvr08Svt1tDBQ/sfODi2dyj+vnUZ/LXrNy6fPnPx5ZeuHDt66+atTS+ZNqWWRl/j4IMPjA0Od9dXHn70oV/9tV+bnJy8K09Aa73zPvAjH/vE+z74/qWL5623gxNT2pidKCZKeS1OifPO9nrrS6srd9bSxAQplhdulyWBDHgX8j+duz1MvF2EEEREa21+kNZav/5ZAO8mTJ3AvcuYSIKEEIIXF4LW3jqvjJLgep3e1tZ21s0a7ebkromR0aE4bW4Xan4zG0hzHSvXc1p7ZZQxSkUuRDpEO/9UmmDEJEYnRmvltDgVtApWh7L0PQldW/aCy5wrSu988E68DuK1ei01aGW82CBaeSUqUl4FcdJuNRfXrz1z4q+nxvf2NYbu9pHDz+D0+Utff/ZUHDUOHDpw+L6pA8Np/fVrEawP87dvXzp3/vLLL1/dWZdBSaZ0GXy93Tpw/wNDA4O9jbXH3/eez3zmsyPDw3f1eYiI9LX6fuGXfvm7f/fM7euXDx1+qG9hfm1rTYmSECSKnEiZF1Fhs83tlaWV2dmJ1JiNtdVOZ3tggBct8G6jNT+sws9AKZXlxblz52/evLm+vpFlWZLEIyOjc3N7Dh7YrzWrUAHvNoQG3LtiHWmlJIQQggrKi9feW5F8q7O9vRWCavY3R0ZHGs2a9aUJRS2p3e6NDG7dnhp0KojzKgrKiQpKJypoE5wEHYIT7bSEWAWjisKWRdBBWyU973LrM+97pS2ctyG4EJQEJaK0GAlBtAreB+0jr71oL84FrSSoEJmoVi9fvfTtuYmHPv6+X7nbRw4/rbXV1a998/hWRx546L7DD8wdHEtb5rVPFcHfvLV44ey5qydOXnvlxdu3b61ZyY0uxDdazX333dfXbpe9zX/xwfd96lOfGRgYvKvPQ7TWzjljzOPvff/snt23L1+678FH+kfGtzodK2UIQYkSbbzRzvu8l62trm9ubLca8fbWemeT0AC82+RZtrx8587qytLyytra2sbG2tZWJwRpt5p9/f19fX0D/f1DQ/2Dg0MD/QO1WvqP3yPe1Zz3Tz/1zT/9sy+/9PLxO3dWsiwvvU9i0262BoeGH3n4yP/+b/6XD7z//Xd7mACqRGjAvStOY2OM90HEOy8qqGBCL+turm+KSN/gQF+7ZUTneemD8kGSJMmkcX69T6mV8X4xKvKitNZKa2e0KJGglA9Seh+72BolUorPnM2tOKNssIULmXWFCzaE16ZLiDIhKCVetDbee62910or7b3WEsRr0dp7Gxq1tJdtfufVL+4anbl/7vG7ffDwjwtl/uS3jl+6tbV7//2H7t9732Q6EO9MjBHnw+LSnSvnL1w+8eq1V47P35xfKV2htZNQbzX3Hj48ONAfss6HP/LExz7+P7Ra7bv9VEREdtaenJqeft8H3v+FP//y9tb60Oj40u152y21Nkp50corFZT3pdta39pcXx8YbPV6W9ub6yKzb97ASmtPnz67urJSa9STOFFKRIKINkZMZJQYF3xwPsuysiyDyO7Z2dmZ6TdvPMA7nff+hy5X6PSySxcuXrp8eXFxaWFx8c7Kytr62vbWdrfb2+50O9udLOuVZelE0jhOa7VGrdZo1Gu1WrPZbDSb7WZ7z+6Zxx9/9JGHHxr+kYuzvJdKro3w3mutS2uvXLm6sbGWprU0qQXx3oedzX1ExAfx1uZF5pz33sVxsn//vsGBgQoeHj/Z5tbWH3z+v/3hn3zh4sXLztooilQUpVGslN/c2lpYXLx48eKpUyd/+7f/z//pN/5lFEU7f5V3e9QA/rkIDbh3pUnaaDaUVs4FpZS1TnzW63S10kmjHmtdloUPISqKuCisjYtaIiG+U9RsmWS6O9pWqY7i19dV8EF5H8rgdRlUzxnndKJKCbl3VpQVa8WXwedBbPAhhBCCKDFaXBAJQRvRTovxonRQPgQdvFdKnBclWhkvTtVqtZWNC08f+8LIwMTY4N2Zro+fxs6b2qMvn3329NXhyd2HDh84NNMYT8POziJewtLq6uULl6+cPHnr1RMLN26s5kUuxnoXtRtzB+8b6h+03c0nPvShj3/i081m824/m+8TxGjz2Pse/8pXvrq2sDB+5D2NVl+vu6lEKy0qqKC18z6yRb61vb662T/U8L1sfX39TRrOzpvRkyde/b//3/906dLFOE1iY0IIPohI8G5nzq8XpY1W3osyokV98hOf+O3f+s2+vj7eywLfz3sR8Vrr7/+6uHjxwt8+/c1vf/e58+cvbKyvOefLosysi7REOlJGaaOMMkEpbUyktfe+2+lsbW2FsHPZXnDWlmUZR2ZoeGTvnj1HjjzwxAfe/773vXd4ZGTnIXYe7Z//9bhzD7du3f53//7/OXXqZFKreed8+JGFc1UQkSiKTBSlSfJvf/P/+Pmf/5Q25sfdJarx5S995T//7u+trq3197WNMUpJCEqCV1qLyMDAgPf+6tUb/+7/+g9DQyO/8OlP7SwMxPdn4J2O0IB7V71RHxwYVF4VRR4nsbOh0+uG4OvNZhSZoiydcyayLoqtc9aWJsu1jkXMfDfthO1drjvaTFtJFKcm1loFbcTvLOCotArBihUvErQS452o3Dsn3qkgEpSSEEQH5ZWYSDsnIYiJvAk6eC9eBa+0KBeU92KtD0pbI8GaWiO6OP+9p49NfvaJ32zVW3f7EOLHCCEopZaXlr5x7JykAwf3Hzi0u3+i+dpiVz749c7W1StXrp46eeP06VvXr9/p9DKlnXhp1KYPHBzqH8rX1z70cx/81M//4tuqMmitnfPG6L1zcyOjI6vLi1pLu29gfWUxKG/EmOCDNl7ZEMT27MbKlj0wqqzrbK2Xvox1/CYNbGF5+fz58/O35kWZ4N3OkmJedvaK9V6U0spopbWJ47gs7Z7de7Is7+t7k4YDvCN575VSSr12arexsfnC8Re/9dS3nz/2wrXrN7a2O86WcRzFcRynSVLbOVtUIj+8Ac7OyWEsIkGCBKWU98F765xbXVlbuXPnlZOv/sWTX9+zZ/fjjzzyxBMfeuzRh3cuKFBKVXJuubmx9erJk2fPnq03Ws6Vb4xr57uCiOysPxjHSRwnZVHMLyz44LUYzmwrF7xXWj9/9Njvf/6PlpaX+9ot9VpB2KlaokMQkRCC1rrZaszfvvW7v/t7hw8dnNuz5y3evxnAm4HQgHtXs9mcmZr9/9l70yhLquvec+99Tkx3yDmzKjNrpCZqoAZGIRAggQQSGkEIgXm2/Ny2Zcttu/16ubV6efXqtbr79fNr2X4yQkYIWbIGBEICxCgGAQWComag5jGnyjnvzZt5804RcfbuD3Ezq0BVWVlQRVEQvw9Fkhn3xIlzI06c/T97IEVB6DPz7Nmza9ILDx0+mBsbTafSnueJSBgaETBs2CjNCiBE1AwwNK7yWBkum5qUlQ6sRKhsW1mGiJEYKUTUggqEABWQJiEORZgEQFAAMdrDEQRABk0gCCLEwkAYVbokQABUISORMQwhAKBmC+zS9v2PN6abr7n4Fktbk2UqYt4XVJeqEj6/aUffaHHRkjVLF7bMr1cuChtg4Ilypauj69Abu/r37x/s7h7O50sghkhsa+7Cha0NLUEht+6StZ+64dOp1PtIZZhEAKCluXnOnLb9nb2VcjGRrCFthaYCpAgAtRJDhkMOg/x4vhQEhDKRH/N933LPlNDgB6GIuLZLWh2b4n6qWAZAVDIWUSELA0hsTsTEHEtk6UU/Hzp0aP3Lr7z00u927to1nMkEfuA4Tm1Nmpmh6sAXlbxFZj7Gfj9h24iIqB3HdhwXEYVlfDS/ZXj7G6/vfPSxJ9esWfWZG6+//tpPptMpRIyE2ndzLWEYAqCb8FKpxGRrIgJEVO03EiIQkSIKAwGAKXkl5jTCk6rTb59/vrPzcDLhRf4LVP33rQczI6LjONu3b9+wYVMkNMTST0zMuU4sNMR8eEHEZcuWpJLJTK7sV4I1K9Z++cs3bX1j+33339/d2VkoFpIJz3E9Ii2MxjCzIBkkQ8o2gc6Pow9hgU2+Yjxfe45yXe2ERErIQhKlDJBixSCAiKQIEI9GiopQpCWQAoheyQxIiACKgQ2yQgwREJXBgJAQSYEJyKZEpZJ/ZeeDtTUNly6/ARBjreH9gyACwK79XZv3dtU3tC5ZNm9RWyKlmY0YlkKl3NNz5PCuvQMdhwa6ugYzmSKHISm2qXlO6+zm1qAwvnr1ys99/otnPfvjcYlusvq62ubZbW/u7SxPFF3PsR0rLAYQLd0VMZEQGGC/WCqVfSQsTeQrlXLSPf26SVQNDUGMMaGwJXSs0PC2unpIiICBHzAzxqWdY2ImmbLt9+7b/6uHHn755Ve6enrz+QlUaFvacRwEFJHogaoafkQAgHQcj4YTwCIgwkQKENyE7YgdhuHg8NBzzz2/bfsbmzZtve3WW9atWRP15N1YmKQQBMRwNTfDVA+OTgjVCwlFIvs2Lqt4RmAGouGRkX0HDoYsrn1Ci2NKWtJaF4uFnbt2VSplx3Hfq47GxMScKWKhIebDyFQK/WXLzm+f0z4yOqJAtba3XnjRxWsvvHDpoqVP/ubJPXv3DGeGJwoTwnlFytIaNQmJJq20rV1RNpZ9NgihgaJIwrBr2LHJtlEBaQCtWCERivJR2SAgWkgoChglIEABQhAQIiAAoChpAwiAKGFRqIRDRI0YIisMAkYAZtA6USwOrN/+s4TrrTrvagBklrg01FmHmRVR6Jdf3b6nWNErLlq8aH5doyvIEjIHQXlgYPDQ3r39nR3DPUf6BwbylUqoiLWqaWpqm9VuKqXFixfecONnGxubzvalnABEALAdt7ahkYUrfjld26gth6hIQkRIigGJmQyI7wd+vuIQFooTQbkMtWeqUwoAqoVqo83J4zwIUWUZBIzquBsxZ6o3MTHnFJHKYIx58umnf/jDH2/Zsj3gMOG6iYQT7fMzs4DAW4tZnqoGMPnZqhQoIgCotbYsbZiz2cwDD/xq545dt3z5ps995tNNzU1E9I5dGxAj+Z7gBLPB0atmISJmAOHqRBJz+ogm5L6+/r6+PoFoqHn671Rri4053NFRKvuO4x6rE8XExJyLxEJDzIeU6G03f/6CdWsvfOON15Vl1TfUAwIhXX3N1WvWrtl/YP/BQ4cOdx7qPXJkZDRXKRUNG9uyPdsrhPlMuZfJtwRMgGUERgARIxKItoVsMRazdlD7ojWKFmIQQCYgBiBCAhJABYgCAkjEADS5emMEQiRmrdAoxUZEK2MYUREJG2CWdMLNThx+dvMPkXDlgquIYr+Gs090U23btX9PZ1/7gvOXLm5rTyoyJmSulMsjmZGuw4eHurszR7oHj/SMlwqholBrJ51qb52LzHPaZ9342U+3t8+B05EX7cxBykq6CU0S+gEiaUsTESIBiUbFhEwswqEx5VJgJSjwy6EfnomeVNPIk4Lf81843tEgoYhw7M0QExMRzTPFYvGnP//FT37ys46ubqVUTcJDBGNY5Gjk0Wk5HSJEL6kptwUAACDPSwRhuHPX7q6enm3btt9+21cu/8hl7ziMQoxUYzqmhY1hZkKBKBok5swwNpYvTBQIT67jiIhSFJhwaDjj+8FJj4+JiXn/EwsNMR9Sppwarrrqqmefe6a3t8/zjrp219XVXXrJpZdecmmlEmQzmZFsZjyfCwNfk5ew3NFK5tH1923a/SKxpdEODWOISAQkQCwIQiCETApIUECxYsbIe4GivwqQAkRABCASAB0JBSJAAAZQgKM4UpSoaKZSpBQELKEfaQ0qpbyB8UNPvfaDIKysWXRdnDnp7BIt2UuV8pad+4xxliw+r73B85DFmFKplM1me3p7BruOZHqODHX3ZXJjAaDRGmy7ZXa7Vqq+JvHJ6z+5ePGyqLX3rcoAAMyoLOU5tgkrzELKAiQi0iSECgiFEQHDMCwVfc9yHIfNSVWAd4MIzCDEOtpMYxExrCjevYyJASIaGBy4554fPvzIYyPZEcdxtNZsqv4+Z/qdMpk9gYVBaa2VKhaKjz/19N79+/7wjj+45cs3uY77DrQGFgGg6adQRIymJGOACOJYqjOHbVtKWyJ8cveEKEu2gCKt4vVMTMwHglhoiPnwEi1f1qxZc+mllz311G+SiWpA4LGRqI5jtbbNbm2b/bbP1jWm+oe7ugcOK89ShtiwMYYZOESjhVmxESNsAkVERoESIAE0ABYQAEVaA4EgoACCGBYRVFEWBw3IoEQEhFlClqgel9agQbEFHJJhBBDXU/mJrue2/KjkT1y07NO2imMazxrR7XTgUOehrpHZc86fP6ex0UZkLpZKY7nc4NBwf3f/aF9vpq9vZCRTZPEVBohNDQ3pmlpHy9VXfXT1mnUAk7Ux38ewsDAnEkkgCTgEbSEqQtIKlCArisIYmEM/CP2QPEJ1xnOtCTNMs46dslUIEEAwjjOKiQHYs3ffnXf92zPPvRD4FdfzUESMgTMvMRxDVW0AZgGwbTs0Zs/uff/jzruKpfIf3fEHruucaossBgDoZJdAAAZAgBFw8npjueH009TQ0NBY39XVBdPeV5PBLKyVmjev3fXixUxMzAeBWGiI+fASRYFa2vrcZz+nLbu5pWXq99EPVcdOAvq99ceFKy+7/qov/fyxe0LjE9rGABkJDBMJBhBqUUQYICMLCxgSQlbIgFPRDUQiEkU7sGVpyybbIsvWQEjRUQaEJQglZGNCDkIjQkqR1hYBMRMbZoG6Os5kR3735s9KlfGPLP9iwj1jofAxJyZyZwhD//Wd+wOyly5f0FZnaw7KldJYLjeczQ7292f7ekcHBkaGhifKRaO1IfISieZZs0nCdatXf+Tyj2ml333G9feA0HA5CJIJx9EW+wEBIiERaq00hyzkCxAAI4a+8QNjO4627TPXH4q0O6ruh50ErFa+PHP9iYk5BxB47oUX77r7e9u2bUcg27ar885ZmYCmfBuYtVKUSAwODN1zzw88x73jD26ld+B/NPl8TxODFr3fq66E1Q9wrDWcRqJbqbWtdU5b25bNWyIf0umP930fSS9edJ7t2HCWbsaYmJjTSCw0xHyoiey6dWvXNTY21qRr3vbXty1QptYgUS6EG67+0t5DOza88TyaUJEWQTZiSIRBeCr6VIEh0SgSlRyPgiVARIyAInJdlXB10rNt17IUgkYEqZ5HABGMsDCGbEwgYQggqJCAUJhCZmPQC8NE0sqO5rcffrRQyl52/hdaGs478yMXcxw6j/TuPdDd0rZg4fyGGkuCUjk/PpYbHxscHMz09+ezmZGhodGxMV+QSYGlW2a1KUvPbqm75upramrrzgmVAQAqFb84UXZsJ+l5vhgAIa0UkWVpCkKM8jIioEhgwnLZ2JbruGdQaBAQfNsvTpCsJHoo8UyGccTEnAOw3P/gQ3fd/b1Dhw57nqu1rrq1n8r8c6wnPB7vs285YAYtR2qDMUyEnuf19Q/e/b17XMe55ZabTnFijFIqz0xOfB8HqZ3rRHs5yWTiglWrnn7mOT+oKOXBMVVOIuSYLBm+79fV1a9bt9aauidjYmLOZeIZNuZDTSQlKKUWzl9YW/sWX4Dfzy039bREb8i25rbPfeLLzXWtYRCwMIfCIbCYkIVZmJEZjWEjYgQEj3rEszAj2Jauq/VaGlJN9alk2nUcQoUoUD1UOAo1RSBCspWVcJx00kl4tuVopYi0aI1ag2Up11WzZ9U1NMqhkfXPv/mDw31bz/CwxbyFqU2zvfs7smPl+QtaGhIe+34hPz6eHx8ZGR0eHJwYHckNDmUzmUoYslIGpKa+PlVT4yi46oorFyxaCufC7k208JuYKEwU8m4y7XieIiFES1taayRFWF22MwATGeZyxU+kUvaZLFRGk6UrJ//vxEdGCl783ov5cPP0c8//2/e+f+hwVWV4WxnIaZBJAAARaRIg4rdy7AFRWsepD04LRuWTRDCVSvT09H37ru8++tgTU2efSScRq9Lj+35C/eATfWU3fub6Kz76Ud8PAt9HrAaqHL0lEIhQa/L9wA/Cz3/u05ddekn06fdzrqKYmJiZEHs0xMQAAACC1kcfh5NmsI9sy4tWXX752queWP8rP2SPiAUkRLGEjTCxYVRAACwMzAoAOHrvIiQsqybt1iQd7SggARAjU+4SAgAkBCBAkdZfTb6NAKQARZBYGJQgaiCqFuhqbEx4CX90dMeLOzPZiSMXv2kRjgAAIABJREFULPykYyXO2HjFvJ1iubBnf6eTTLQ3NzkQlPMTY2O5sfH8cGZ4LJMp5HLZoZFCoWgAQkLlObW1DX5QvnjN6osuvuRcWRBH/cxmsoViJVlT73opPxyzLLAd2yGwkBBUlJiRWQQwZGMMJ1N1lj7lQOtT6RZNOjHgTPLHx0vXmA8n0Wtr774DP/zxjzs6Dic8Tyk1JQqc9OOR0Thp+0kQmMCEwDy5QR0lPBYBFgZCZGallFLKsqzoU3z04JN3VgSchHvo0OF//vZ3Egn3k9ddh4gzLMeD0dv2JEcRgBFmRJiJTBnzDoi+rLlz5nzjL/5sfHzs1VdfCw27rlPVpyJYwjAslMuVin/tJ675k//8tfq6WhHBM57ZJyYm5owTCw0xMSfk2KyQb4cAABJe8qrLPrVtz8Yjg52GCZlCIxSAskQzAEc5HpVIlOJaAQMzeJZOuI7rOIwQldcSIBRgiQpQRKUqMEoVqQEYhUFYWAABGQEIQBMaBQqAFBBAiCCC6ZRj2zqXG9xy8IHsRO+l599Ul3h7GsuYMwABQH/vQN/QcGP7vPp0KiiVi2Oj+fH88Eh2ZGjQH8+NZXJjY2MVEzIog1hXW0/Kbm5If+yKK+rq6s92/2fE1BJ/JDMSAjc0tHie6wclL+GyAUfYQQ4Bo+ziwiyoRFgRJWtqLetMvmsIkOLKrjEx0xFFyFcq/n0P/GLTpi2kFBLNUGWYciWIYux93y+XS1qrdKrG8xKeZ9fX1TfPammordNal8qlfD6fH8sPjwwPDY9kx3KFQsG2bc9zidSxDhHTnHHqtZtIJPbu3fvd793b1tq+cuXyGbp9RfGHM9IdY/f894RLL7noH77593d//97nXlw/kskIgG1ZltKGQzEShEG6Jv2VL9zyja//2fJl54Z/X0xMzEyIhYaYmOMTeXue6K8EFNldK5asWbP8kr7B7tCwxUpYgIGNhIpsIwLEwigArAAYQBGCbVlaaWbhEEMCjQAARIAoUM1sh0SIiCRIhEoJGzBR8kcRQYq6ZSkIATAEscBiEIaQwbGpuSk5Pl46MPBcZmzw8hU3L5i1Gn4vKjLmNBItibu6Ooul8ppZTa6tx8fHJ0ZH8xPjwyOZwuh4UCyNZbKFQkEEQwTleE6qTmn4yIWXLDl/+dnu/qnBLF29/Vp7DfUtnudyUC4nEhKyzazCIGAjQSjMBsDWyphA2zV1dXVnu9dvIU7REPNhI3IuAIAnf/P0b556xhhTzf44Y0cGpZSAlMvlUqlsWdaiRYuu+OhlF1908ezZs1OpZF1tOpWq8WxHCJlNEATlcmVifLyzu2fj5s3btm/v6OzJZLIgxvMSRFR9lc3g7Fprx3E2bdpy/y9/9c35f5tMpWbk1DBD+QChmtIldmg481x08YX/97z/8+rnXnj++Rc6u7tLpQohMUgi4S5dvOjaj3/8mmuuampsONvdjImJOZ3EQkNMzPF5q5vo8SAAkXSi5pJVV2zY+sJoPsNGo2bD2mIWAAZAIQRgxCjxAqEgKEBlRAwbUoQhsqipB1EpYgRAVoxIiERR5S1UoBhZkW+MCFdXRQIKQTSIAUQQBUIALETYUJ+wvXCof/vTm4YvOf+mCxZ9wiIS4dgX8fQSeQIrpVgqnV1djk2zmxukUp4YyxYK49nceDaTNZWin8+PjY0bBNHEoLyaFCqaP3/ORZde7Dges5xDwai53Ghnb3+ipjFZV+tZoDFdDipsBCtl4RAMc2AkSuaglQnCdE1duuZMrx35RNkfj8u5MdAxMaebgwcO3vfzXwwODVqWNVPXABFAUKQCP8wXxl3HvWDViuuu+8R11163bMl56XR6ug+3tS47f9nHr7k6MzLy+ps7n3n2uedfeHFweMhzXdt2Zp7pz/O88fHxZ5/57cevuvITH7+GiE6uNcx0PsDYoeG9ZFZLyx2333rjZ64fH8uVi5XAGKV0Op2sq61JTX8vxcTEnJvEQkNMzHGYyVKGgAwbpdSyRRcsnLN4dPdwyIyMDGIMaEZjUIwIozCwQKQ9EGhmMQxskBUiAgpACEACBIgAKCRgFKIRmUxcR4iiUAE4gL4JWRgQRCEKiABRpGKAEgCIkv5LbUp781I9/d3Pb/tBNjdw5eovuU7yhOn4Y04FZhYAQpy6Q7r6hw909aYTXirpFvL5iVwuP5EfGh4pjI/bfjGfy5UmSoDIKGjrVDKZtt32xsaG+jQAECEAVqMNcFpt66wSdexwZ89ovljf0p5IpWsdMI4q+n7g+8zG+KUwCEOJIo4sZSnDQX1jc6o2LrkaE3PWEDFEqlQq/cdP79+6bRsRRakZZhgxoVAViyVjwovWrbvxhk9//Nprliw+z7aso8fIZN0AnPogTImntm21trW2trVefvmlV3z08kd+/ejmTVsKhZLjWFE3pp/xIseHRCLRfaTnscd+c/GFF9bUvr0+1PE+dvJDiMCYqSPjF+N7QfRt1tfV1R/PzY2FKd4LiYn5YBELDTExx2dGGaeiMtGNrUsWrHx932YODWsNoQGtmBkYQyDbICGgAAEYwNBgGICxjNGkGBABkQEJCBBIjBCSIAhDKEAmVKCJEEEEEYURyVI6FMPGCAIgKAVS3UEGFBAkERBhEXZdtWBBfa/ObTvwQG4ic826rzTVtZ7pcfsAwwDAjMfoC2JMNp/v7s38buPmniO9q1euhNAfz4+N5XPZ7Gh2dMxUin65nM3l/TAATUZQO04ymXKTqUN9mUeffnXNmlVzW5sbG2oRUalqLu73YZBLZA9UKv723fu0WzurtbUmbdd7FJSt0YnChGWJwoKR0A+EQxYRxxJCMGHzrNZ0Kt6qiok5OzAzkQKARx//zZNPPWmMcV33pNmOj03KUCyVEODmL33x61//0xXnL5s6YOoYigpFnODs0ZFKqbra2i/f/MVLL77kwYd+9dOf3z/QP5BKpWbynmVmrTUhrX95/QvrP/aFz984I6eGkzYLABAlYY7eoHi0hHXMmSFK5zlVevSYAFV8P4vsMTEx75hYaIiJeecQgYgorc+bd346UVco5YTFMLJUy1sCCwszgwiwELCEIoaFDbIRNoBIKACahZVGACQDQJGxKSgoJjQhkVZI1fdxNQsEEwBXA2ynzFLEquggQiwABiyCuXPqEm6+68hzT7w6dvXaWxe0LTtbw3VOE20ARtUbRbhvYORQT//h7sHu3pHhsfHRge5KuWjbeqKQz4+OZrPZbDZXLEzYoV8slgvjBUAWIhZMea7tORW0hkf9zpfeeOmNQ22zGhbNnbV0Qfvi+W0tLc1Tpb/eV3JD1Z2hu6+jd6SxZW66rrbOk5qEnUfQ2lJIBsD4gV8psTFGhCwr5LA2mZzTPs9xzmTJiZiYmBMTTSO79+657/77h0cytu3MMAFkVJayUCg6rnP7rbf86Z/9ydy2NpiUGKK/nvTsU6YjMyAKIs6b3/5Xf/n1Wa0t/3rnv/V096ZSienbmSyNyYmE1z8w8PAjv7744gvb21pp+rPPqK4FAACBOkY0iZWGM06sJsTEfKiIhYaYmHcDMRul1Lw55zU3zsp3jQqDMRIyWaGEWlg4BM0GWZBZgCEEE2plbDEGxAAjCAIBWGAEtJAAkEEhBCFgARABNiKAAEQKgAWqPvbHrqVEjooOkdyAAoJgjChFs2alvWS5r2fzM1vzV/pfXbHgorM1Xucu0fKoUCjsPtD9xv6uQ939fZl8qRIo8tLplEJ2FWlLj4+OZoYGM9nR0XweykVbTLFQ8SsVBGREQpXwko5lF0Qs5SDZuUIwuL93+/4jtcld89uaVy+Zd+Gq85YumIP0Ppqco81DMWbLjt0+uHVNsxOaGtJ2wtGlSlERkYgxXCmWwkpgQmFlOZ4TBGHjrHltc+ae7e5/kDnp1vS5u6yf/tLeV9d1oq6e9U5GT64Jw0ceeXLnrt1aa6VoJkET0c5zqVJybOeO2279xl/8aXNzy1SD70ADJQIAjE7tOPZtX7mVAP71zu/29ve7jhepCSdqNvqrUqSVfnXDhhfWv3jHbbfB9KUuZ5R6gSc7dgq8b7/rafgAzxKnnXNo2omJOSd4H61lY2LOXVrqW5rqWvZ37FbMxMShMRYpFvYJLGYgYWYmRDHCYcChMZZRPosdirKQDQRAAIJASCAAAsIGiKIC3ywMTGA4hGosLBzNYnW8FdWU7qAUiDAI1qY9ZxH19x548fUflUqlC5df+T7aLj8XGB/Pb95xaMvO/Yd6hosBoLZdt76hqaa+pSWZsA//bs+4GCEsToxlRzKZ3HilXHE4MMQTE0UTMlqKBbXWTsJF0n5AIYtnacsmDx3DUDZmV8fwns7hl7bvv/D8eVesW7Z8yaL3SeBwtLrae7BrT0d/TfO8VNqrS5rGhhoTBAzIxmjhcqVcyheC0A8RxLJEE4bl+QsWNs2OC6yeQT7AC99z6NLe513t7jny6oYNQcV3EycPmogQkXK5XFtb+8d/+J/++Gt3NDY0Rr9/l1c69XFF+NVbby2VK//6nX/LjeZc14WTJYcUEdfzRnO5V1557Ybrr29qaJiuMzOeORERGAQYQJ3SJZxDnIt9PlvEYxUTc3qJhYaYmHdFtAlTV1s/u6mNEJhBRFggDEXbErIwE4fCNrEIAoIRvxIGvnK0iAJjgTBqQmOYBQyjbSECGQQgBgOCoBQwIJjohFzdGhIAqIaXHnX2jNaQk84OItXuGRBkcGx73gLd39f92t4fcxhetPKa+JU6E0ql8obtu155/cDhntFKiOnaurntDbU1tXW16ab6VHNzqjxR6P1dKWQOfL/oF0dHx3KFIrHxkIPQlEsFREZlMYP23GTSE9ChACIhGq1QESkFIrYRLAfcN1zoH9n9xr6eS1Ye/sRHVs5pbzvbAwAA4FcqL219o8ju7IbmpMWzG9KJRCI/nhMjbFiESxPF4kQ+8ENGEtsOjV+XdBctXZZOxZkgzwj5/MTwyHA+Pz4+XhjPj43nxscmJvyKLyDJRCKdTtXW1NTU1NSka+rraptbmmz7nAlgyU/kM9nsyEguk8nksqP5/Fip4iukZNJLp9OpdLqhoWH+vHnNzY3vcceOu4WeHx/vHxoaHBweGRnJZkeKxYrrei0tDXPnzJ0/f+6UiX5WiHq7/Y03e/p6SEXJgk4ek8UAoQlsS99x21f/7E//pCadOipdn8a+Id7+la90dnTe/8AvgzBURDBtvFiUqUFrvWffvoMHDjZddul0rUuk158cifL6ziBiYjiTyQ5nR7Ijw5nMWHZsfCIPQLVpr76hoampqbmpqaWlpabm/ZWPZnh4eHR0dDw/MZ6fyI+NjY7ni8VC4AdKUTqdTKXTddEskappaGxobm462/09mxRLpZFMJpvNjWSy2UwmP54rVirIkEgk0ulUOp2ur6+fO2dOW1ssncfEnAKx0BAT824REUvZbc0LHMurcAmAOATWIizMwqGww8zArJBEDCBz4ItxRBkJiW1EBhQEMCLIZEhHSQEZjAARhGbKvZNBwJgoUQAgTPo3TK2nsKo1RP89mrtBEKv1Nam1Nan18LbO+0lb65ZdEWsN0yG8a9/hZzfs2Hmoz2ertrZxfnNLc0tTS0vNrLpEU8pKu5hy8ciRcfH9ELBSKfvlYm6iWKr4DrEQ+EHglysIDIAEYrmW67i+EBE5lvZsZTvKVopAmBmFjcYaRxdD1Z8tPfbyrn2dA9defv5H113geu7ZHYlNr+/e05mpnbU45armGtVcV6sQWKASBOxXuFQq5ScqpZIBCZWltBWGwdx55y1aHCcEeVcwv8W1OwjCw4cOb93++u49e7q6usfGxsqVcqniV0qVUqlU8StRXV2tteu6ruMkPM9xPdd16+prly5ZdOG6NStXrJjTPuc09Y2JaHQ0u3XL6xOlom3b2tJhGLIwAGmNhAoRkVBYDDObcHZr68ql5zuufdwGx8fGf/fqhg2vvdbZ1T02Nl4sFguFUqFU9Ct+GAaEaNm2Y1uO4yQ8r6WlZcmSJatWLl+7ds3SJYtPyxWdlCmVoVgqvrZx8+YtW3p6jmRHc7nRXD5fKBQnisWSMUZrlfASdfV1zc2Ns1tmt7W1Ll26ZPUFqxYsnE+/t9UeDSML79m7v6OrW4Qdx0HC0A8AQClFiqZS8RtjyuWyMK65YMX8+XOnpOTjUo14Enj11Y3j2XE9WSdiGqrxCyylQuUz11/31VtvqUmnAOC0qwwRXsK7/fbb3tyxc/vrb2rXhRPnpqlmamC2Xbe/f+DQoY6PTC80YPWfk2oNJ3Xw2Hfw4IbXNr755pu9R/rG8/lCsTgxUSiXSkEQgKBt62QymUqlEolEXX1dW+vstWvWXH31Ve2t7505+rZZIj+W371797Y33tx/4MCR3v5iYaJcqZTLfrlcKpUrQeCLMCJalu15jue6rus5jut53uxZzasuWLl2zerzly2rO02lgqKbMJcbe3PHzuxYLp1KKKWZTRiGAIBIShEiGWY2HIYhMzfW1V1wwQWpVHKaZovF4qYtW0dHc47jaEsbYwwbAFI6mnTU1LRjTNDU0Ljy/OWp6E7+PUql8saNm15+5ZWOzs5sdqxQmCgUiqVSqVSuGGMAwLK0Y9uOY3uu19jYsGjRolUrV6xZu3rlivMVzcgLJibmw0wsNMTEvCuIyBijlGqbNTftpYtjE0aDVsjGhIZsEWPEGDIGNUfpIMkPpVQOHUdpJYAUImtQSGTQmMCIAddSSlWXShwyIooCQAYEBiQAw0ACTJMeDccupiZ/rmoN0c8UeTVEf6WWlgTRwOtdDziWt2rxhe/peJ07DI5kXnhtx6tvHMpOBHUNrfNaWttmNba31bY1JpvTKqFFCQuzRhITVPyyMVIulf3x8UKpHJjQtgCQyn6FjUEkEUCFyaRn206pJFpRyqWEZycSrmtbjk3A4lf8wK9UAj9pTMq28j7u7cr2Dm/a3zX4mavWzWtvP1tD0Tcw+OLm3eI0NTbV1ydkbnNduiZZLEz4QVgsFPxCoZzLj+XGyr4fArCllIWuxuXLL2ifu+Bs9fkDgIhE6fzDMNyxc9fGjRt37Nx9+HDHkd6+0dyYMaHWGhERo71qhKoljGFoxvMTo2PjYowAmDAMQ/O85zQ0NsybN2fZoqVr1637yEcuPW/BvOhE7yCB/9RHXt2w8f/9x38aL0ykPI9BhBmQQECAJRQAEQUkKAiVcnn5ihX/8M2/v2DVyre11tHR9exvn1//8ss7d+4eGhoCAK0tREQEpRREKQNASqVSsVhkBhazd/+BV1/bmE4kZ81queKKj37hS5+/cO0afKeXM3P6evuefva5p5597o3X3xgZySKibVtKW4TV7IkIWGEpl0eHR0b27NkvYrRtp5OJ2c0t69atufnmmz56+WXHjmGUhnA0m/vpT37+2xdeDDmwtIbI5AYUEBYRw4CASikAw1IsVf7iz/+nP/3aH7oJb5quRoPQ1dn1+utvhGwc7UaG0/QgYqlcbGlquPmmLy1cMP80DNm0LF+29POf++y+g4fKhZLjOjJtAIUAeI49mhs73NHBxpA6oZmHv/diPGGbxmB0qwEcmwnSr1Q2bNz49HMvbHxt0+GOjmKxSKS01kQYfdGEBCilcqVQLA0MDomIMYZFfv3YE8t/+atrrr7qU5/8xIrzl0etnaEkk9EtFN3subHxLVu2bN26ZfeeA52dnf0Dg/lCAQGUUtEsoQkFq4hApVIplkoyWRYkCAIR+M0zz7bMmrVwwdwVy1ZcfMnFl1xyUUNd7bHnOtUeRl/o1u3b/5//+o9DmZFUMhkGLCCKAKoZpybrmxACqSD057W3/8M3/7dLLr14mrQdO3fu/G//7Vu9/QPpVAKADcukfycLC7CIAgIEoEql3N7e9vf/5e+uufpjU12Kmu3vG3hh/Uu/feGFN3bs6OsbEGalrCgDSfVZRkSEcjkslctsRMTsP3Ro05ZtyYTX2NBw8aUX33TT5y+/9FJLWwAgzBjv28TE/B6x0BATc3poaWpO1TQMZPsQwDATkwQSaLEsMaGYUEIkVAggYSiBb0plY2siRAFFAqQAiQybkEIfQEUpt4RRISJIyERRVQlgYgRgBGRgBIw2NBCqK5mjayue0hoYAKX6gzAgYkOjJ3Bke8cDCS9xXvv5Z2vQ3ldwtdooGBNu2bn/t6/s2ts94iRqFi9e2j6vdV5b4/wmrylFSQeIw9A3hoVDEzCWygU/qCjCSqmYHy9UAl9AOJSQoeIH1XaBtSLbdTQoMay1b6PtKKlN2S3NzTW1KVR2sRzkJ4r53FhpPOcWCwkFadsaLcELWzr7hnKfv/qii1Yvxfd8C6VSKf/m5a0DeWmd35Z2ZE5jsqW+VhEZA6VipTQx4efzYyMjhXw+NBDYFtq2mPLsObNWrVnnutMZQjEn4tiUe5u3bnvooV+/tnnT0MDgRKEUqQ+2bRE56sSGlgLQkzpjtNYPw3BkODs8NPL69jcff/Kp885b9JkbP/XZz3x63pw578Ys7+0b6O7p4ZAnHCs0BgAQq5VZJCqBgxCV9y2Xy26ic6JQgGOMloHBgV88+PDTTz936PChiUIBEV3XtSzr9wwMAcC3XW5oTL5YGNm372BHx/pXfnf9ddfefNMXly1denpVhimzZPfevU899fQL61/et29/Pp8HgGQyYdt2VRVGieZeqboZVPsa7bXm8xPZbO5gR+fmbds+99kbb73l5nlz5x7bT9/3O7o6+vp6lVIMUTnj6C8obKrmN1EkZ2Szub7e3iAIXDj58/Xa5k2DQwNKKZksKDj9lRpjTBB85obrP3bF5e9wyE6RGz/z6Rdeevml9S9HSY6nMS8ZwCIVBkFHV9fwaHZWU/OJ2ozszpN6NFSTUNLUsFQFgQ0bN/3kpz/btGlbJjtSCUKFmEqlIov96AkgKi8dDWzkMyhBEBSLpa2bt+14Y9evf/3Y9Z+87itf+fJ5CxdUtwROn1/IpMRAAFAql59+5rlfP/bEnt27s9nRcsUHEKVUMpGYPnOnOqZH0e3h+0F3V09Pd/drr27+1cOPrFm7+ktf/Py1n7g66SXfzWM1MpLp7OrK5yfGvQRzNEsgIlVnCRAERCKtdRCEwpIvFKa5agDoHxzq7O4eHxsrFBJhGMDbpx0AkKhKVKVS8cMgNz421Qgi5vPjD/36sccefWrvvr1j43kRdmz7BNMORGWnYdIfyBhTrpQPdXZ2dve89trGa6++6stfvmndurWxyhATc1xioSEm5l2DAAC1NY316UZj2BiDpNlAYESxmECMEqOZiTgURBDmoAxlyziW8lAEJATRgCAIDAELM9uKlUYiohBAsQgKR3UvGQRIUAhIQAhQgAAMAtGkE+jRtRVO5Y1kmUzdIMAAYFRDgzvKB18//HDS+6NZDW2neR10rsGT6cezudwLr+14ceuBiTK2zj9vzpy5C+Y0LmlPt9bargZkw4ZDI4DoV8qjo7lSGHR0Hy6Xy5aVLpYL4xNFDkNBZBAW8MMABAmQEUjrhNakMTQVERFDoU8ceGnPamuoSSTTrKxiaEbHS4PD45n+gcLYsC4UraTkfWdfV/7Hj7+SG89//PJ1yrLOQMT0CXl565uv7x9IN82vSenWOmt+a6PrOEEYVoIgN5Ev5nITI5lcJlsql0MFrLVtWzbx8uUXLFm24j3q4geLqHYgABzp6//lr37168eeOHyog5kty7Jta3JDUnhyK3K6piZ/QETL0tFKmpmLpdK27dv27N69/sWXbr/t1k98/Jp0KgXvzLVB2LFttkTbtmY+0V2JCIpQKYU05XkBO3fv/fa/fueF9S8VCwXbsjyvWn0Ajs39fvRel7c2iAjguK7ruqEfHjzU2d39o02bN3/9z//shk99Ek5TgdiokcJE4aGHHr3/wV/s2XegEviubdfV1U32UESMCL79Y5OdBABL25ZlJwCNMd3dPffe+8M339xxxx/cfvVVV7qOU513RNgw2ZZ7/FQaRydnInK9CgIInnzD3phw46bNhWJZW9ZJbhWRqPFCobB69epbbrmptr7upO2fFmbParnhk9e+8fqOfH7ccRyR40czIIAwCxERdnZ29PX2TiM0zOSLJyJmDkODDNEIE5HvBw89/Ovv/+BHu/ft0aQ8z7Pto34Wb0+leXREq/qSZVmOawuDX6ns23+wo6Nzy9btf/2Nr1919cdgWg3llDj2Od2yZetPH3hg/frfDQ2OKIXashzHjv5qjDlphZFj7wlEdBzLcWxEDMNweGTk6aef3bp560vXX3f7V29dt27tO/YYiqYvz/MSCW+a+xARiUgrpfVJbBPDYtuW67qOa2ujT3SFRKSUspR1bDHU7p7eO++6+4knnsyN5WzLcl1n2mkH3rKiip5o27FtJwzDI30DP3vgF5u3bv3af/7al7/4Rdu23m91qWNizjqx0BAT825BQACoSzc0NbSgUizAhlkRRyqDJUbEGDBiFGtLi4j4PlhBWKqQTQqRWAQQCCAUYAYACVE40FqLAAMDKjRcrR9BAqEACgOCGFAIBoCAokW+ABAwAB27IGIGQAZDkQcEMggAGqqtt8ayb+7ufqIm9VXPTn9otQYRiRYih7uPPPrC9p0H++1E3bLl5y1cMHvxnPp5zXaDQyBsjDAzc1gpm9GxkcMdXT1dvWP5sf6+Lj80XkLn86VCJRQ2qFCYA0EJDIoACKBopSzLQkXlSqlSKnjEBGEuK5nadEt9yq2tcZN2k9azG2pampt6Glv6ewfGhnr12LCSkk12ZgwffPb1iVL5U1ddmPCOH2562tm578BvN+wht7G+rqYpiUvaG+pqUkDExuSLExPDI/mh4czQ0Nj4REXE1xpthyCcPavpkks+UldX/9508oNEtE71/crjT/zmvvsf2LFjV7lSsawomAoifSFa5Uf/znBRKwIi1VAqJLIdx3GccqXyu1c3Hjh46JVXNtxx+62rV6+OTK9TsiKU0oDAhoH20/XjAAAgAElEQVRZmE9kQyilWNiEZspT+sX1L3/3nns2btpKAKl0GgHEGJ7cdT96XdNcIBEwC6K2VMrWYRhu2fz6/5X5x+xI9pYv32SdjkU/Io6Ojn3v+z944JcPDg+N2LadTiZh8ouAqjpJ0/aRpuwXhaBdr1KpvLj+5QMHD9346Rv+6A9vnzd3HgAISigh8GTK3+PUhpCpLuFbMgBPx/6Dh/fu22/CwFIew0lsTiIKgsDz3M999sa1a9fNpP3TxWUf+UhLy6xMNus4DhwVao6DiDiu19Xd09PTs27N2hMeNuNTRxp+9ImJiYkf/vCnP7nvvv6BwYTrReZuFG8yw8dNREwogGg7ju04QRhseO210dzoX2azN33xc4j07u/JqSe0r7///gcefOTXj3V3HwGERMKd0heMMVP+DjPn2FmClEokEsycHRv7xS8f3r79jZu/+IWbb/7SrFkt72CWEBGetOSn+XKJqFKp8MnqjwCA1hoRmJmNTDPtRLpqGAYs1Sdr29Y3vnvPPS+sXx+GJpVKTYm2cKrTDoBSKqk1M+/Ze+Bb3/qXkcHhP/7aH6bTqVhriIk5llhoiIl51xCIiOd6s2fNdbUrJmRUzAjCbCAIyTLGhCoM0bJAAIVMUAJT4cCWkjaeQgIwIaGgEWQBEUOGwJIwZCBSBBIYIkAhEQDDgkDRkQjVrS3F8pbFJ08FhUqkLCAYZpn0DyWAAIDIStX6I+O/O9DbvnLBDQrpjAWTvn+JlgViwm07Djz+yo6uwXxD89yFi89bMn/WkrmJtpSyUDhkZkaC0A/7h4a7ezo7Ojv7urqy2eFsJp/L5bQDAn5xwjcm4KhBEENGhAVJgFBQk3JshQrLpVJmcFAbg82NYKSrpyPh2W7Cs7S2yKp1ddqza1NubX3NkSMNmb4BGurE8Qy4kg+sx363JwjNjVdfmpg2V9ZpGZMjA4OPvbg1W9Rz5rfUJWBZe11bc4NGYpFipTI0MDzaP5AdHBgdyRT9sg9gtHZsbSl/5aoLVq0+oQ0QcyKiYS8WSj/40X/86Mc/HhgY8lzX87xoZxImd/zeQct4NLRKIiuWAFzHEVtGR3MP/vKhQ4c6/vZv/vpjV37kVNtXuhrTPHmi46ywIx8NZnEd13FdAHjyyafu/Lfv7d65T9vaspQxXN1QPpVT0+SFGWYAsCyLiLq7e75z9z3pmvRnb/zMu1/uDw0N3XnX3Q8+/EixWEwkElFkQfXsp9DZyI0DWASMsW2bSB3pOXLvD36UHc39l7/9n+fMaWcjYpBATZ3iRCMZtUMEMymUsHnz5t7ePqLfz0F5fMrl0to1a6+68qNav0dvgchknd8+Z8Wypfv37QEA23JYorv9OMeTolQyOTg01HG4c5pmZ/jFC4ClNCISqXK5/N3v3vuT+34+nh/zPPcYLekUhmLqW4u+RNuyCWnfgUP//R//KT8+ftttX3Fs590YolMW/qGDHf9y53eefPopv+QnEgkkYuZ30OG3dh6mZomoKUWUTCSMMfsPHLzzrrsPd/b8zV//xdw57ad8isnpAU4s1kx5cimkcDK84vcUjerPWikEFKWixqaZdgDAtm3H8QBgw2sb/+Xbd27atA0JPdsWxMjj45QuZ2raAYAoP5eX8DKZ7L//6Mc1Nek/uP02y4oNq5iYo8TPQ0zMu4WAjBiFqrWpNeHV5IujRMIoJgSlkEWCkJQWS5iZDCNaErCp+NoKTFkJodgCIWC0I2jAoFCIKMCkEEgMoRIRBSgGCcJo1RoyEiBDqAgFOQClAEIAAENVKcFEaSAZAIFl0pEBQaIUDwImNIps7U10jz7TWNfaXr8O4MOlNVQ3kMvFFzftembT/tyEmb9gyXmLFyxb0LSoxalxUAGzEYPCYvKjhYMdnXt37+zr6cwOZ7O57Fg+PzpWYBPUUdovViohGmMEUFhCJSFPmnRKQGlNaBOiokqpkBsZUWFZABoahU24n/ehGFiyaFaL0pZnadWcUJ6jEm57p5dUbkL1HubcgAKcCK1nN+53tLrh6ktt94yUoojGJDuae+y3rx3uLba0L6xJ4sJZqUVzWxzHQoaQw6GRkaEjfZnBoUzvwHhurCwSKqVcFyRom91y5VWfqG88oVdzzHGJXK8rleDeH/3w3n//j2wmk0ymiKYzO98JU8bEpC3h2LYfhhs2blJ3fcd17UsuPsXssDyj7WNmFuHa2hpbqedffPGuu+/dvWevtjURGlPVUE79YqpMbeQSkWPb3d1d//7DHy06b+GKFcvfjVHX2dXznbvufvTxx8vlSsJzDMtJ0xxMz9T2qdZKp1L5fP7xJ5+aN3fO//I3f2VrS2sSjKwjOHEMSvXsfOJd3KMIbNq8dTSbcz2Xp/2SolFiEUJad+HqJUvfoyoeU9iOdcllFz321OP9g4OObXNoAAiifH4YPRsAAkgKhBVRLju6e+/BsdxYbd07LI5QvTFEiEghTOQnfnb/L376wM9zY6PRTj6cpnsSEROe293f961/udN2nNu/+pXj2c8zgrnabGdn9z9/+9tPPvk0A6fS6WP35N9xh9/CVMKDSG5QyvO8iXLp4Ucecl3rr77xF7NntZxag4YJ8aTyT2iqBbqjqKBpblmZmc8KM7PhZDKVSiS2bn/9zrvu3rR5m9JERCbKIPPumHLucBwnk8386D9+snjRoiuv/Oi7bDYm5oNELDTExJw2ZjW0ppPp3MSQMoQKmIiZhRUzMytmZAY2oAkRwnI59FzlAyhhAMPCpJSJHDkZRbNh0ZpAiRICEhSIgrMRDSAwAoYkBMpE0aESAlD0KjcADExRLgaoVqqYysI95ScaVdAEtrVbKffu7384YdfUJxd92FSG0sT4oy9te2F7J5K3dOmyZSsWnD+vdn6tckmMSMhMCJWy39Pdv2fn7u7DuzMD/UOZ0aGR7OhEseJXbEfVN9RZWpcrfiCKBaJCbCFIiFxd3wsoEYvQQkRSYky5kh8Z9StBGAR+0+wWHsqEQWj8QEIzq73dS2olkCA9r4G01UDaAe2IdnPDR5I6yAf2kxv2eJ5z3ZUXIZ3mOTwak4li4bHnN27fN1LTOKehxp3X4q5a3Fab9JjRgIzlC71dvcM9PUPdPZnh4UIY+kRouY6tkyq87LIrVq29EM5w8v8PHohQqfj3fP8H99z77+P5fDKZYuBo+/yMOOIiYuTpzWxpDa6z4bVN//w/vv33f/9361avOYVmACbzvpz0MEh6ib379z/65G9279ltWbYiOmkM+SkRCQGW5WzZ9vpDjzyyYP78RDLxzu7DI719//1b//Tk088AS8J1Ikv33Xd1SmtAxGQyOVEo/PS+n19y8YUXXLC6JlUjk5vSJ4VmMEt3dHUcPHjIsKEZjDMilkulmpqa1SsvSHgevFfP79QpLr/s0pu/+IXOzi6tLWYDQCJGAEEAhAWBBRShsAhzKQjWrlk9TTLUmViQ0XeRSCUdz/vNs8/99L77cqNjnuedRqO9Gvwvkk6nh4aHfvLT+1ZfsGrVyhXvrPFoqDo6uv6/b/3LE888rRR59tFKIqd/lpicIpgZARKuWywWH/zlQ0qrb/zl11uammau4kV5N6YLMTrWCUUMTaaxhRPegQQMwNMLaICIhk0ykejr7d+wZfPmLVuISGt9uqcdZhbHcfcdOPjAg79cdv7S5qamD9WGTUzMNMRCQ0zMaSAy8Bsbm2vTdV39LAwSomhglJDFZgLAUMAIKEaxFdqmXAh9X9tKyhVEQmaFGDIBEgMKhApRgJGIQUEoSMKKAFEAAZEQAUWiQhIKRQAwJI4KOgEAApjqi44RyECU7goBBKM0EJMZ6UEERGtrrLR/T++vVrXfVpOce/YG8j0FEbMjww+v375h90DCqV26ZMnyC+Yvb0u1JECLhAwCQqRyo2N79u7Zv2dnX0fP6NDw4Ei2J5splIqe47TMbmmYNVeTlc32VMolIDFMSFGZPwmwmv4BkIwIAGgSIlQEIGEYUqlcGB0ZVLaNjXokO7pjz75ipbzSBHPmnecmk8hGa2pvIKS0IURNhJQZ6kvYZrxCj720oyaduGzdqtOYVqPqul8sPfHb117decSrb21uSM9u1GsXt85qqBVjEKQcBN3dPYOdHZmu7uGennyxWEZkx/HSHnF54ZIlV1/7qaSXBJBYZThVfv7gg/fc+4NsdiydTgIAcFSx4QyeMTKERERrbRheevkV13X/j3/45sIFC2doRZBS1fK508IiSutcLvfLXz2yY+cuRIpUhtN0HQBHDS2yLKpUyo8/+fQ111xz5UcvJ6JTXfKLMff8+w+fePIpAHRdN0q8eXr7KQJEmPS8rq7uu79/73+64w5UOkoKcJJhj3qiTl69ce++A1NZD6Ztr5oGslQqL19x/vLly6Lfv8fP7+KFC/7ub/+mUvaRkCIXPKi6bcjU6COASBgaQprV2pJKnzBVzUwemigmv7amZv+Bg7t27+nt7Y+S+cFpNdqjR4xEksnkzl17fvyTn/3v3/xf6+rqT9XXJtJ9sqNj3/7OXY899ZRWyrbt0+zudDwmb1cBEdd1C6XSz+//RU06/Y2v/7nruTNUo0yUjHrap1AAqhFGADBZtOVtH5g6lUIERSf9npmZtPbL5UefeHLXnr1hEFq2c2amHSQCy7Kee+HFT37y2s9/9sZYZYiJiYiFhpiY00ZzfUtjXQsiAYMAiEEJQDQbUAGDCpmNEiWGQTuSHw1LJUvZKGK0TyAsiEBV7wNSSISBhMoAGRCNpABCASX/P3vv/WTHcaULnpNZ5vp72zug4dFoNCxBijD0TnQgCRqJlB9ppBlpKI3ee7sbG7s/7P4BL/bFbmzEbmzM2zfaGUmjEa0oUaJEErQg4X17A7T33dffqso8Z3+o7hZEEt23AVAioftFB4PozqrKysrKyvOdc76DICQyIyACEgsEEoAsSLLQAPwnW37//xe+q1oAMCABIGsAYBDzAZmIMJY6borQ1sZnAlbFn3Xg/kK4eGHw+YMn2gZSFfHKdU0btrY0NtVaZQYDgWYWAjSJgcHRU6eOD3a1Tw0NDw1P9k9MjidnwsHw6rVN5ZWVoUjcU9702HB6dpY0SyMAQvo1QTSAS3MV/phYIEgG00AUaFqW8pT2nGgkSNpNTY9ZhhFNVMwms+dauwtOgQFXrl5tB6KCwUbRUA4IYcm1yOgB0uRA1MLJtHrlrZNViejaNauvyWj4Jdo8r/Dbd48ePHHBjFRWVSZqyuQNTfWNtVU+Y+UxD45N9Hd2jPb0jvX3z6RSeSGUFEYwYAhO2KF7vvjA+qYmACBiIUqCWEXBNzmOnzz1rz/7t+nZ2Ug47JeDByiWRLqa3OwFK8U0BIL5xsG3N6xf/59+/EM7sKQVwb76gJ+NtTh8LmN4dKTv4kXP86SUxfiNF3Tjijel/P4Gg8HBwaHnnntpc3NzeVkCl1mm5dXX/vDKr17RmsPh4JyRW3QPFhiJP1ZCZLhUynGhJRFIKcPh8PGjx9PpzPTUjERcWo8XfaZZLDnoExOTjuMwLh1mLoTQWjPApg1N69auhr9EOBJK2dBQf63OVgwtNBe9lcn+/g9vTE9Pw0fkAJc687JWNyayTNPz3F/95rdbt2z5+teeWW4Chd/yxZdf/v3rb0ghbMteLstw9asEIgYDgUwm9/NfPL+5ufmB++9bhjDk/MxepP0cy1NUf4p6oZnZMoyp2ZnRiQnHcQzT9F+GT2nZsW07OZv85XMv7Ni+vXHlipIqZAklQIlyK6GEawL/wxkNx6urGizbItB+rCAREIDS4NeZ0sSaADQYhgShUxnHc0lrLrikNDCRVqQ98BwqOKRcIhc8D1xPa0dphz1iVkyKiRjmf7RGTcjErJkVa+3HKFzyo1lr0kyaiTSBZmbWxETIjNr/p1KgAUAPzr7bOfqqpz65ivX1hLOtXT959d3WwWRVVe2W7Zu/sHPVlga73PBLgZJAVJpbO9sOvftm78ljo10XOroHzvf3zxSya9etu3HvLU0tW2KxyMzE4MXWYyN9bU7ecVxXKReAGAmZyZfQ53krg8EXiTQkm5YdisQy2dzw4IDn5YCcbGrKdQpoWAXP6+7pP3Xy1FDfBcfJCiaBEELRWGatq49WVFdW1K+OltdbUkcCdv949vfvn5idnbkmA4IA2nN/+9bR1w93gZ2oSiTq4rh9fc3a+ioJggkIxdRM+kJH+3B712jfhfHx8ZRSjkAMBGzbEOTcvGfP3lvvQMAFFa4SloQfxJvP5f/9+ef6enpt0wb0K80Uu80lIiImIs+HUkoprfXi5Qw/DiGEZVme677yyq/PtbbB0vvsOVfekladfx4pRKHgeFoLIXAefoNLu8rzAAAh5nTalqrj+VEYhiEEvP7WwYMH34Z5Vbklj/KvMTg0/K8/+/nkxIyvCAjMS1ufH+32nG923j3+kRuZ+6X/L9M0PU1nzrUODA9DEeQcETEV1aVMJut5GkGyH8x2eQghHKcQCQe2bGkOhT5Fldk/G4p5c/xXL5PJDI2MuK4rpVxEp3Ah9kcALO1J/0hnEP38j3AwODM988vnXz5/vg2Wb/Ofb2176ZWXs5msZVqals0y+PjjIjEvMVs8/IU9HA4NDFx8+VevzM4ml3X44li4FwRccI5crn84l1Oz2MT2TyiEcBxXKeU/X7wkRmPxZQcRLvldsbdgWeahDz989bevkdJFLjsllHB9oxTRUEIJ1wb+XqShZoVtBnJeThOiJiEFMwpgJEFAxEgstAYh0bIhM63yYR2MMDB4Eg2JLBhAA6MCREDJ86JMc/YvogEIek5vHAGRfd2keUoBUIDWIC75NBIACAbl72mIAUgAAAtgmq8fDoIZGLRQ7PaN/d42ohtqHhTS+nMP4p8Lp053Pv/WiYkc1tav2dKyduem6saYEQQmBmYSQmQKzumz588ePZIfGRoZHmm9MDyZzcTL4+s2bK6prfdUfmq4b2Kkf2J02FNq9dp1gWCsvavHFZ5hBXiuRBhrAsHAiCgAmMkjUhwwDWDasmXHpscfP3v27Plzp3P5fGWlsoMBMxAOhqOk3M7ewYBlhaPhgGlZhpSCwxIbK42CiroueZ7WrEVqCiF4rH20se7cF2/fI5cqPL4kHLfwh/dO/P5wJ8lYXUVZfZmxZV1d05oG2zT90OXZbKGnvWPw/Pmx3gujIyMzruMJBNMORIIGOZvWr71//6OJRLkvanhNHtNfA/yxeuOtt98++J5SbFkGQFH5EpqItHZdBxgM0zBN0zIDfo3IQiFfcF2BaJrmQmnMIhEKhfoHhn/3u99v3bLZsuxF3ZW+j3J5yR3Gn57NP78Qgpk9z3Mch4h8yVoUwu8/Cinm6tzPa/gtCr+pZQUmxiZ+8cvntu/cun7N2mLmpN/muedfOH7ilGWbcHlB+z+9HPjyDfMt2fM87WmllK+PIKQ0DNO0TGlKwai0vvRG5oqVztu9S3aS/XQ5uHz2+jxS6ZTWnp8Yv/hDQsBCwVm/bt2O7dv833zeicIlbcOFoZZS4iWT/NIJRv4r5nmaFDIqZimEZdumlMsdoLkECiFDodD51taDb7+zeXOzX6Cx+DM9/+JL7e3dhmGgQJ9sWrw9AZAiIs91XCGEYZmWaRrSZADlOflCwfO0YRimaZimWTytKaU0TevI0eMffvjh/fd/cXlBDUv8GQFA4Hxxbry80IEvLYnFFjL9ePf8F9ZfdnzmBQCRCaU0DMOyLBQSERCZqKhlx4dl2alU6rnnX/zCTTfesHN76VNYQgkloqGEEq4N/E9RXdWKcCCSSqcMaQIxEDIRkWQgUgZpJN8ZxcIKWlpnsylhmkGSDIICphAGIDEJZFIsUJgoJRpasCQWSEgEAgUAaPaTo4EFMHikUUgCFoAK5qmEhZ4BEONcygQQ+MUpmJGRCPzGmgEEE0kwHSfdNfTrgJFYVX37Ncz//4uDeM7NePhY2wvvnEhrs37Fms3Nq27aVFkfESYDMQBoFjyTTB0/earnzJns8Ej3hQttA0OugHUbVje17LRse3RgcGLkwuTEkHacFQ2Nu2+55ZZbb+vvHxz4v/7vdDYLYWaeYyw8ANPfYiIwMymdyzkVEsPhgOeqRw8c+IcfPvvqb1599Tcvd3d25vMFIQJ2KGIHI0rlegaGKyq6Y+GobZloWcgclbiyws7lI67jKm8VaS2cfDoXePdEx/rVDRvXrb2awXEc57dvH33tww4Po/XVFXVldsuGmuY1tWHbBABGSLnqQmd375nTg909Q4MXpzIZF9ATIhwPBgwqD0bu3//YpuatAMBMPj1WwpLwN+jZTPa3v3tteHjYsu2i9qUMnvJc1w3Y9qamppaWlvUb19VVVociEYGolDs9MzM4PNzV2d3a2j46Nua6biAQKMqIZTYMgyD/h9ffePKJx5qampY+yt/r89KOu0XcxblcTikKBALlFeWxaDwSDjqOMzE1ncvkPNfVpBHRtgNFMia+/SClNE3j1Kkz77/3gU80LG4O+X89cvTEy7/6dTabDYVCRTMoLAQyo+d6SiliYoSgFaiurYlFY8R6djaZSiVz2YxSbJoyEAhIKS8JbZi7SvEGJzEgoFjKxEqnUq6nzCIoSM2amVesXLF69Wq4LmRcl/XduvRmfftTa+04DhAIywiFwuFIuCKR0FpNTk2n0lmXXCISDKZlS2MZLJ7W2rbMmWTy2LHjY2NjtbU1xY/zmbPn3nzzLTdfCIZCCwKQi4CZled5npeIx3fs2LGlpWXNmlXliTI7EEDmvJMfn5js7+9va2vv6uqemU0ahmlZS9ANC2EdkUhkcHD4jTcO3nHHbYFAcMnOzJdXXZr/gTkl6/nmiw8PA+AS5/zEO5qLI8vnPU/ZATsWj0WjsVg0ojxvano6ncq6jkdQAGbbtg3DXFY4lW3bHV2db751sGVzs21b18HbVEIJV4MS0VBCCdcS1ZX1kVBcqX5tEGiUcxkKTCQ0gatYyDl1BduSVgBSaScYMq0QuC4JsExGZkBJghEJEIEZPGBBaAqSAolJGggMDJpAIIJGQsGSNYAANfdJ97f9Cx83Aj9QAgDQD2RAwaA1+bqRxIJ83oFBoCAzkxnv6H8xYCVqEjv+UiN5bcHzLMOhw60vvncsz8HGho1bmlfsbCqvDaGguRBNBhyfmDpx7PSF86czg6MdFy+cHRiIJRI3btnSsLbJc9yB7rbRwd5MOhmPxvfc+8Cd935xY9PGSCRaW9dQ8/xzk+3TpJQQEnlOv4wAUAoglEDEVMg7rFR9Xc0773948uSxnTt3fvNb37r99tt//corL//q5e6edpdx9fqWYLTKc1O9FwcrKqqsQEDG46ZhSoTKIKSrg+lcxHHcgtuQTw3GDZ1Mpw4dO9dQVxMOha9sT+O5zmtvH3v1vVZPRlbUVtSWWU3rKzevr48FAwCsCBzFA339XWdODXS2D/b2TczOFIi0ZdrxRDBgWCp/x1337r3tdr/uamlTVTyIWQAcP3nq2InjDOArFyxu2hORpzwA3rFt68MPPnTLrftWNNRGItE/Ld7OhXwhnUqfOX/+uRdeOnjw7Xw+b1pWkY/GNIy2zs533vugaWNTsZnkyyQkF2LRldasdW1N7c0337hv756mjesT8YRhGeTx9OzM2Nj4wODgkWPHjh49Njk5aVm2aZrFJ+YEAoFMLnP27NlMNhsJL5YR4N+jVvq551/o6OgMBINF8jIAAIDMUCjkvYJbU1+7a9eum2++YfOm5qrKykDAZuB8vjA1MXX27Lm33n33xImTyVQmFAoE7ACDrzK5vERuMUc08OJsnibKZLKkafFd3nygCKAQFRVl0cvLK36+cAXSnQsh8kopx3FjscjOHdv37N29dXNLbU1NMBgi1rOz00PDYz19fWfPnT13tnVgcBhdCIWCxbwjc1Y6gCFlZ3dPe0dnbW0NzGkkLd29N948eLG/37SsxeUq53L1iAueEwkF77rj9ocfevCGG3ZWVZYHg6FLU3O0Vvm8Mzk5+d6hD37x78+dOXNOKW0Yl80fWQARmaaptPf+h4fPnm+/adfO4t7H4if5UuTBH7G0pMmftGZ/T8WaWblueVli164bbr1lX/OmTZXlZWbAYgXJdGp8fLx/cPDUqVMffHBkeGTEMJRt28UvO6ZpZrOZM2fOzsxO19bUFt+9Ekq4LlEiGkoo4drA/wbVVtZUxKuBkTVplEpr4QltC00gFHlMyAKDBgphSRGMmOnZfHImH8egMA2hlQxIFoAa2GDh6x0xCiEJWIMAYEYELZD98hGaAQQKgUASJBMIAMUMAhDE/GbLF3ue30QxAgicLwul5hKsmYGBhGAgFkAGytlkX+fFF22ZSERXL/dz/lnDgo/97ffPvHjomDLja2qbNjevuLEpXhUA8OkABE/zyMjo0aPHh9taUyPDp7t7+sZHV6xavf3Gm8NlFbPjI0M95ybHholh67ad+x9+bNfNu2OxqH+JqurqNY2Np8+ccwpuOBhUCExIrDUCAEqJQKCVl83mc/lcdXmZbQd+++prt+zeu3Fzy+o1a/7u+9/f1NLys3/5yfn2HjasjZt2BiPl05l0/9BQeUW5FQia0hCAFmJdRCSrIvmc6zqu8gqGSKHmMx2D25r6btixZRlOUSK/dkkun/vtm8d/92G7g6HGmqq6crt5TdX29SsSwRAQEaBD2D/Y33HixMVz5wd7escnJ/MaXGEY0Ug8HqTk5M69ex989PFI+AoL2v/VgoikEABw6vTp0dFxwzCXPISZPU8FQoH9Dz709a8+07K56TJHYSAYDASDd9dUt7Q0b9+27Wc//8WFi/22aWARQQGWZc0mU8dOHv9K7qlwOFxUjvJyDDvftEZEx3XDgdA99975+GOP3LBjeyz+J1NoDawCAGZ6/MCjhz744JfPvXDogw8LhcKSZRR8+OYQZ3hgYCiVSi1FNLAQcPzEiXfeO0QARnGJSAvR17lsNhaL3v7A/RRdxdIAACAASURBVI8++siNN+woryj/aCW/Jti3b8/jjx84fPTYCy+89O5776czmXA45IedL49rmKutsUSrvFNIZ7JMeskzL4S+x6Mxs4hJ+LnAcj9XC6U3lFKu5+3cse2Zp7906623NNTVSHnpZFi1cwd4SqVSyTNnz/383375hzcOZrPZUChQ/LUCgeDI8NCZM6fvuP1WACimDmKhUDh+4mTecePRYiY/uspZuXLFN77ylUf2P9RQX/eJjaQ0IhEjEgmvXr1q+/ZtP/3Xn//6t7/LZDKLp1EsBDUEg8EL/f3n287ftGsnXNsomEsWk2tIWvssAyJ7npIo77jzjiefOHDzTTdWVlV+YvvZ5KPHjx1/7qWXDx58J5vNWFZRy46vuiKEHBwamZmaKRENJZRQIhpKKOFaQQBAPJqor260DFszSQIgSVprJUiSBmCSAFoYaEhBhhEMWSJQmE0XDEuEQlxgQEGGFMQgmQVKZmCDDUQUoASxZBMEgGaWIEATCCCQCAiSAJCA5opECQL2K60TAAKyXypvrvg0aPCZCJqPPaQ55UoQjCxIoiSmkYmTAbNiy7qvBe3yzy/XQEBijmU4++KhoxyoWF/fsmVj3faN4UobGJABEMElGhgcPvLhobG29tTw8PGuvtHZqc07djRv2yUETA/1DV/oHB8drKisuePu++6998HVa3wriP2cVcs0t7ZseemVVx23EAoHUTEzMIIiEIgoBJFgRblsPpvKVzVUbFq/9siRI2+/8866jU3SMEzTvOfuu1c21P30X/7lrUNHe81g09Yd0oiMTc2Ojo9H4wnbtqQwBUPEgLqElc7Esvl8Lh/LA8csY3w088Gp8+vXNsZisWI2fAttZqanXzl49K0TF9iMN9Yk6qsCLeuqt61fWRYJMRExOSyGRsY6T53qOXfqYnfH6Ph4TivXsDEcisXDOjXVtGnTk09/rbau4c/wKK8/IKLrqf6BIe1pM2hezqSf81IyE1EoZH/56S//3Xe+U1dbDZdIml360BcUyIQQtTW13/2bb4RD9v/xf/4/g0NDoVBw8QQEP+lASDEwMFTI58OL2uf+EbCU1uBHgIhCYC5XMA3zK08/9bff+VZt3dx2XGu+VABOCIEoqiorHt3/8M4dO/7b//vP//7Cy+lsyjbtYmK8gYABk6lUKpmsr/tkcwsAiMgwBAAcOXZ8dHQkHAoteQsLXmWlVD5fWLt2zd9++5uPPPxQeXnZQoNLdeAQUQhRU1P1yMMP7Lnpxp/87Gf/9b/9JDmbjEQiV8I1wGLrsW+25rL5TCZdZFVOZrZNMxaLXTfhSMuKaFh4gzzPcz1v7+4v/OOPnt23Z/fCXy99lEII0zAqyivuvP32jRs2rmpsfP75l6ZnZgxLfJRd+iQQkWkaE6nkydNnR0fHa2urixnzwaGR8fFJOX+GRe4CADzPWb1q1bM/+PtH9z9s2xZ80iqxcBKfLNvasvk//vhZFPCL514sFArBYHBBeeRydxEMhSYmJ0eHR5fs/EIHryDQ5PIczLLP5jtuHMdTih498NAPn/37devW+X/6pGUHE/H43XfftX3H9p9t/MW//PTnY5Pj/u+X7jMRAGaz2ZmZWZhXor1u3qwSSlguSlO/hBKuMRpXrAoGwkwEgBqZiDxXux5pjaQ1KVAFUopIkTDMYMTwlM4knXzOKxTcQk65jlJKK4cVadbECkh5TIpIkZo7kDWhZlQaAVErJA1aAyFoZEDQxMCCNGrNqBm0JI2oATVqjaQl+b/WUhNqzZqRGRlBCyaShEAkhSSlLg693Tv4miZvGbJLnyUQkc+3vP9h+0sfHNbB6g0rdm7b1LCzKVxlIwAysABwFPRcGD38/nsj505PDgwc6eoaS0/v3LN32547NTlDvW0XO89Pjo82bd767e89+7Vv/s0Cy4CIC4X6WrZvq64q91yXEUAAIxEhAROCltLf5rgFJ53MKs+rr6tNVFS/8cbB1vNnFnrbtGnzs8/+8It33To93Ds81G8GwjkPxsen0qmk4zgeMyNIgLIgVFfa8XgkEokYdljaoViirGdgoqO7F4rIXPDVLgFgYHjkX1959/dHeoQdW1mXWFEV3Lq+bvv6VWWREDNpAAfk6PhE+7EjHSdPDnR2jo+OZzwvDwaFgmVlEZFPr2io/9LXv7Gpecun9wSvY/hb/9HRkYGBAcA/lkPkjwHm975K6Xvuu+u73/5WXW01MPuZxr6Y4qVnFvPwdealaX7pS0899dRj0VhUKbVIl3z7HBFNIaYmpqempv3fLnofWEzhiQX4fS7kHGZ67MD+733v2z7LMM/ZobwE/h7dH4HGlSv+8UfPHnhsf9AOFJOjDr6VIjCTzc5MJWHedf/xZswMgKlk6vRc9LhRTBCHf7Z8vrB16+b/6X/8j1/72jM+y8BM/j1eeiMLbAIAVNVU/eM/fP9/+O//Q31DfS6f42uebUQEALlsNpfLFSl5T0SGZUWjketGum659+EX+Mzn89u3bvnRP/zAZxl4/hW79FH6v/QnUkN93Y9/+A8/fPb71dVVTqGw5LSZr3eAUsrent6+vr4iu9fV3T0zM22Yf4w3+cRVQkrpeSoajX7t608//tgjvkAAzPNcl06zhSVioTJCdU3N97777X17dyMis168/gkBmFJqT42OjhcKef+URd7LsnD5k+KyHjIRAaLnqoLj3HvPHT/84RzLsNiyQwQAlRUVf/e9v/3aV5+JL7V4/km3hcjnClNTU7CcyiAllHBdokQ0lFDCNUZjw5poJK6VAiIkJGJSpF3SLjEiIHoeOTnPVawJgwHDtiGTdXKZgptxslknn1fKUZ7rKddTnud5rqc1KQbFpBhcIkWkSWsizeBXs1QAwKS1JJ9H0DBn44IkkBpYgySQBIJAaGAmASSBBGgJJJAkaokskQVr1lqQlkSmNF0n09Hz64Ghd2GuvvXnrFaTv7U6erzzxUPva7tmY8MNW5prdzQFKiyAeampnIa2vpET778+eu7kyMDI0c7udD679657m27alxzrH+1tGx3qz6Rmdu+97e9+8OO77r47aAcWNqCXXmvt2jU7t29jT7HSUkgEFABMpAEI0QNBROR66dl0oVCIRSJr12wYGp98+eWXZ2anYd7FVF1X/53vfvfWPV8Yu9AxOztjWMGpXG4mmXYLLnmeJgTAiKTKsKxIRMORiB0IsQhG4+Ua5PHTbdlMCi7v8oK58FEBAO3dF/71V+9+2DoUilWsrEk0VIW2Nq/ctrExHg6w1kzsahgdnjh/5Hj7ieP9588PDw3POI4jTIxGysoimEsl4pEnv/rNm79wy6f4/K5r+LbB0PDohf5+ZhbzNQg+EVJKz/NWNNR/+YknGurqwNd3WMpAXaAbbMt+7JGHW5o3ERVFCVi2ncvlhoaG4fL2+RXAP0/B8RzPffih+3/0D39fXV3tm22+LfSJtzBPN1CiLPGNrzzd0tLieao4LgCEFJl0ZnxqcpFm/ok6u7s7ujqLqC8JMG885PP5DevX/vhHzz54/wOGkPNG3Ud5n4/dCJuW9Tdf//oPf/D3lWXlTqEwn7+2TCZ30ebJVCqbyRVn4qBSZFtmLB5bXgc+w1j2WDJncrk1a9f84Ht/e8stewFAa/2Jc/JSFo+Zw5HwV555av/DD4eCoaJfEwoGg+MTk/0Dg0V2r6u7e3Jq2i/OssAafHyJQEQi/YWbbnr0wYcMwyiyPwv3uGb1msf2P1xZUeF5ix2IAECEQli2NTExMTkxBUXUQPkLwh8HpXU6k73jtlv+u//wo3Vr1/ElRO3HDxFC4BxRq2zbevpLT+65ebfWukiKUwjM5fNj41NchEpuCSVc3/gMrw0llPD5xOqGdTWVdSgQAFkDE5Bm0lqxJs3MTMSex56rPU3CMIMxi0FnMm4+rx1H57NOoaC0ozxXex6Tw+wR+fyCIqUUuUyuAiJkAAVALICRwQBAINSAAFJp1ozAyCyABX/kRwsiJAAGZBakkUgQAxMyAiAyI7MksNDOZcdau56fmDoLAMyCqKgP7WcHp8/0PP/O+wVRuXHFrm3NldvWGeWGAEACFsBZha29E63v/nr83Kn+wZkznR1aFfZ9cf/6HV+Y7u8c6Tk/OjIspHj40ce/873vb25uRgA9v9X7yIXC4ejefftCQdtzlGmaQggG9iMyNaKH6IFg1rlUJj2dMhhWNq6oalj1/gdHf//aa67rCCGImIhqa+v/5lvfXLeibqC3UynheTgxPZ11Ct7c3AEBkAhAedyKRQOhQIClbQSikWhFz8DohcE5y/ATh2JOCkvrD46d/clL757rm05U1NRXxmurY9s3N+5YvyIesFlrFpAnGB4ZP3f8cNuRI/2tbcMjw7OFvCMkh8OJsqjpZWOx0KNPPn3rbXd82o/vukcyOTs1PeU4BcdxXNd1Xcd1HM91tac813Ucx3Ud13Wz6ezU1OTu3Tdt27oNAGD5sbjr1q5r2rBBmnJJ88NPM/Y8d2h4BJb2Gy4jdcK3lLRyHrj/vh//6IerGhth3nJb8kCfINvYtHH/gw+UJeKO4xRzRSlEMp0eGx+/XIMFpYzWtvbxsfHiS4HmC4VwJPKtb3zt3rvvAoAiteJ8usHnFJ7+8pMHDjwq0HA9dSVBDYuO+exsMlvIy6K6hETassxE2XUks1K0F9m3Nj3PW71i5bPf+969990L8wlEix+48ChtO/C1rzzV3Lyx4DgLWU6LH2ubZjafn56ZKbKTExMTqUzKcQqu67qe67qO57ie52pPuY7jrxKe501NTiLiPXffWVNTs9DJIi/hY8e2rfV1tbS4R2GeYbdte3pqZmJyMRbvKnH5fiwjdcIfBCefu2Xf7v/0H37c0tIC81EeSx4ohAEANTXVB/Y/Ul9X77pukVfM5/ODI8PFB0GUUML1ihLRUEIJ1xjVlbWrGlYbdoCYFWgCBkYi1gq0x3MhCAocV2kiAAwFrVDMcjwvl3eUo5RDTl65ilyHlKuVJu2C1lorTUqD0kRakZ7LoSBGTcCESiNr1IygUfsZFEqwQk3M2mAtLvkxEAzUBmtJbBBIZgMRUCNpQDb8xAomIDIE2aY1Nd3e2vVcNjeKCJ+vyoXtnRd//sahWY41r9q+tbliy3qzzJzrv88ynO+b6H7rxbGO8z1D6daO84C4b/+TK5q2Dpw7Otx9dio5GwqHnzjw+Fe+/q2GhjkZAvmxSEg/7BYAbtr1hdWrVmQzmUAgZAeD4JevR9TIWgpHgPa0l8vOTk3nC/lYLLxm7Vq0wi++8Ks33jwIAEKg7yldvXbNM888FTa8kdEhQjOZysxmMp7SWmtmJhABhLKoTMRDoUDANCyBVrS8IlfQ59u7aU5v4xN2aIiQy2Rfeu3QT3/zweC0W11dUxUPrqyL79mxesf6hrBtaK0ZIOfxwNDY2aNH2z48crHtzOjwwIyTLwgLo5F4WdjwcqYh7t9/4P4HH7GtZUiglfAR+M86Eo6sXtFYXVVdVVVZUVVRXl5WVl6WKC+PJWJl5eXlFWXlVVUVFeWBkN28qem+e++JRaMAy3Mg+vtpKeXKlSuCVqAoz7kQStH0zGwRTtHlpU4UCu6OnTv+4Qd/17RxQ7HH/Cnuv//ebdu2aE3zFRMue20iMgyjkM+PTYxdro3vIs7l8mfOtGYyuWKIBj8EI5/L3bZv30MPPeCnWiwrQHrOQLXsr37l6S1bN+cLjm/uLi+oYdG2s7OzTqFQjGoAAGmtLMOMh66TkhMAy8jzY2bX9QLBwFefeeqJJx6zLHNZT9NvuWbNmrvvutu2TNd1lz7Wd7B7XjabLfIq1dXVqxpWVFVWVlRVVlSUl5WVJSrKY4lErCxRVlFWXlFeWVUVjUZCkfDe3Tfv2X0zFM18XdIpAoCq6ura2lqBYknGxBcnymQzqVSm+KssF5e/AVEkmeQ/Tcdx1q5d+4Pvf++mG29Ybh/8kbn9zltuvvlGBiyGOzAMw/O8sfFRT2u4gmClEkq4jlASgyyhhGsMQ5hrVqwL28F0Jo2eQchasgRgJk8J4REJkJK1CyRBCERTBGNWPutm0q6UQoaYXJRCIAiJGsFAKQAZSKBEAlTABiMha0TJSAqN+SITiDBXXJ0VMCAIBA0sGEAyAAAhCD/QAnw9SCYAAxiYBQAjAzAJAEaDgAUQgYVIQgwMfpiIrGpp/qphFKW9/FnA6Mj4C29+OFOQmzfsaG6qaV5rlhsC52XU8lp0XJzoeevFkY7TXROqo+2MFTD2Pf7VipWreo+9O9x7Lue5NTUrH3lk/z1332OHlpDE8zeXq9auufW2W1s7/olIxeNxp1BQjgOMIISSDIRBrU3XS87MzM7OVkXjNTU12fyGnrbzP/u3XwZDoTtuu21BOGrv3n1dnT0HPziZqaqJBaOpVNJxqoO2ycDMKJFjFsSiZjhkp/OW1hwQcTaD7d0XZmenysurPrGTg6Njv37j8OGzA1oGairLEmF7xYrE7i2r1zVWmSg8RSgw79Lg0Hjb8WMdxw8PdHSMjY3MuEpJywhHYomwoQum4Hvvf/jBhx8NLTUmJSwOf85s3bz5f/1f/udMJistAxh4PrVhXpoBASVr7RScRFls5/YrLDfrT6rGFfXhSDg/WVjaWwvArB1n6bTzIiMa/JfO8zxi9fAD9+3aeeV1c+tqa3fvufnEiVN5t2Aa1uJR8lLKfKEwMTaplLdIXY+RkZHWtnNaKyGCxQgoOq7bUFf75S89UV1VBVeUhu0fsn7d2i8/daCnpzuXy/sl9JZh5S7aKlcoeMV6UwUiCmkYplVc+88Din4gzOx57s6N2+5/4H47YC9blXMe+x9+4LXX/3D61NmF037yeRBhvrZrLpt1XMcuopzBIw890Ny0UWsQFoKGS1kARESBgEK7nqecVY2r/EChK7uRSCS0YkWtIQ2fR1icZxSInlKeKsrJf2W4vBgkFUMm8fxQ5/O5u+647bZ9e6+gD34cVigY2rd3z7vvvj81MyMXnV/+YquUNz424eYLoUDwCi5aQgnXDUpEQwklXHusXbkhGo7NpmckG6wYTGBCIETQWkkQCKBZG0x+xrw0TBmOWYVcLpl0JGLIkk5BM7FgBO2BKQAMFCwEEANo0iAMiYCggaVETSxA+tUTEMCPN0QGZM0sUBAyoABAmDMv/M2DAGDtOz2ItABBfvIFMAogIYBBklKabUOyl+/u+m0isnbVmjv+MmO6TCRTyZfeOtI3421avaWlubZ5XaDSmtscIECeoG1wuOfgb8c6O9qGs33tp4PR6O4DX6+orm1/53ejg10u09p1TQcOPLHvlluEWNrJ6Qc1SCnvvee+3/3utanJifWbNkdi8dTUJDMxA4NQ0shpHVDKS+emJ8bCZZWBeHldQwN5Xl9P10/++Weu69195+0L1dQe2v9Az8X+sZHhssSGTDKbyeUj4bBpsL/xChtYFjLC0YCdLeSzjKYMR8tGxnp6+4fLy6s+7ss6dvr8r9441jWcikTiNfFIImKtW1d1Y/OalTVlTOASCca8410cHGk9dqLz2OGBnvaJiakZx3WFJSPRWDxsqoKB6o777n/syS+Xl1dcy6f1Vwn/GcXL4rdc0fb3ClBdVxeLR8fGxgCWrmKomYm5iIr2RUU0oK+HksvX1tfeuGtXkR2+HFqam8vKyjKDQ6axWDmcBWNpamoqm8nGE4nLnbB/YLD34gAzi/ncqEWujgBaqfvuu2fP7pvgKgr7+Qfed8/dv3n1tfcPfeD/cxlyGIuOuSGkRFG8I5UY9PXkdy36VjQRCnHrLfsar9Q+9x/c6lWNe77whY7OLv9DsMhz9I1nYk6mkrlsvhiiYdWqVatWrVpWr65sTgoha+vrTcso5JemIwFAc5GFTa4QVx/RgIiZTDYaj9944y47cIUheP6s2LRpY3VN9cTk1OKXm2c3cHpqJpVKJ8rKSnqQJfw14/MUBV1CCZ8XrGpYV11eC4QMRMzK09pXM0NUSiultSKPmBgBEaUQKE3LtCOG67qzqYKrFStWrnZd7Wn2NLueVopIa9aaNJMi8hQpAgImQE1AhETga0IwgAZWAAQCSJBG1qgISANpQRr9AhVaIwKCRs0GACIZqJG1gYAMBpDBhIgCSDJZlp3PDre2Pz851fWXHt3F4O/uPMf93TunTvVONdava25Z1bQ2WGWDgDmjySHqGh7qe+vN4fa2tuGpnvYzVjiy58t/W1XXcP7Q7/v7Whl5584bv/nNb9962+3FsAw+/M3Ehk3N995zdzY14zpOXW19OBb3g0hAIgtwpJknYtdNTydnxkZYeWWxeEPjyrXr149OTf/TP//s355/OZlO+SesrKjau2c3eIVsNp9z3XQmQwxACEAMwgAIB0UkErBtCw2JUpZXVBdc3dnZp7UHl4RrTk1N/+zl1//rc291DKVi8bLKslBVIrC5eeXubRsbqsqJQGkSEtOO09F78fSHh84fea+vq21kfHxGeY6wRDQaL4+YXs5g945773/iS1+tqqq5tk+thKsELQV/MiQSiaAdLNIuEL6tsvQeoaiIBl+mn1l/YdcNjY0ri+vCZVFTXRWJxmBRU8N/HyWiIUU6l01nPiHA22ciAGB4eMQpFCzL4iJMAqV0KBi86647I5EoLDNA/eOorq6+7dZbDNMoMv37j1i0p9FIxLJsLM4KRCE8z/GlZK8TFK/RoFR1ZcXePbtty1xuuoGPhUM2bNgQWqokyhzZLYRATKbS+Xyx2RNXj2KWCAAoL6swRLE+SIH4qVrRl2fdio1oEEJ4ytu+ZcumjRuvsjOV5RWJRKKY+CVEME2Zc/LJVPIqL1pCCZ93lCIaSijh2qO6qm5Nw8ZTrSe0JimQNCgPhGQhWQCTRmDShmaWDIiIhilMywiFbTfvZTOOIaA8ZiEbDismCcSsGGxGISWAKYCZlIMGIwMoRoFMgMhzQcQMBIBIwACCAAUiM0oGxSgEMsm5mAchiAF9OSw2UBCQIAFAhp/4zCCAEVADSOaQZU6Nnexoeym863vB4GdUNszf8r197Ox75y6Wla9sbl7bvC5RFwQDEPzgbea+8fHOdz8Yam1t6x/sau8KV1fffODpskTizFu/GbrYEQjaN9y458DjT21salrmpeeCGu5/8OG33363v6/npr231tavcJx8oVAABgbhCc6QsDxP5DLT4+PBSKJ8xapEosxAkqZ1sW/g//vpv3f39T/56MMtmzYAwG237D1xpj2TTrleWTabcT0KBpBgroBm2IJg0AgFA4W8Sx6EI4lgIHhhYDCZyZXH44jouO7hk+dffedkz8CMFYxVV4TiYbu6MtbS1Lh1fUMiEiJmABIMM+l8d8+FjmNHek4cH7h4cXpmJulpJUwrFouVB4182pLiji/uP/DUl2uq6z6F51ZCsfAVOOCSwOlixBTnjtWaSBcjEPhHXKOIBgAgAiHkli0tFeWVy+jAJyEajUUjIcClnf+MKKWptZ434z/53qenphDZMIraETmu29zctHb1avBrf1ypobVQRODmG2+qrqwcGBya63ORTvVFx7ysvCwUCigie14F9nLw5TA910vOforJ9n9uFO1mdx1n5crGxpUNcKXpBgtoXNlgmJbneZa1aBIK+zOX8/l83vlUxJXpT5cIKE5y1YdyHcCrpc+uFa4yogERiICJN23aWD+vsnTFCEfCsWhUYDH5TWhICcyO6/n9uOK4pxJK+LyjRDSUUMK1h0DRtHZLwAym0knDCBCx8jyUIBDZQI0sPRYmKM3WnN9NGgEOuGYoZnu6kMoUBHBZFE0QCjwEgVIAC0k6gCYaQgN5BIYUUpEAJhQEHgsEEFL6n19GAiR/G0yAACSkRGQlQKAv2YCaSTAAahIgCZUBAkCxBhICAFiDRI1CSE0esRSCkAZ7Xy9PbGhqeUR89lQh/c9/W3vv64fbA4HylpaNzesrG8JozP+ZAIenprsOHx89e6azr7er+2KssvrG/U8kIrH2Q78fvtARCNt79t7+6KNPrFm37go6MBfUsLHpwOOP/Zf/8r8PDfWv37A5l88NDwwo9Pz4FdfzslqbuUI+mRofGjRC4UR1fSxWKaUI2YELfRfffOOdto7u++6844F776yrrdy9a8ubh04VXM/x3Hy+EAnZUkhmYAFBwGgQg0HTNA1XaxkMxKLxmZnpwbGpgGWfae1+69iZc50jeQXxeKIsbEXD5oqV1VubGtevrA5bFrFmFkAwmcx09fZ2HTvcd+rU4MWBqfRslklZthmOJOIRdFKmJb740IGHDzxVVVHKmPgL4FJ/o5SyGCVIImYmJva0cj23kC2ks9nfvfb66PhE0RIAiIiXz5FeQFERDX5SgGma1ZWVUl7t0hGNRhKJ+EIq2FJAZmAEuMy9eJ47m07zR+vVfgIWsq9v2Lmzek7Y/6ruxQ+pWLO2ccOG9f2DQ5pZFp89sWhv4/FYOByaKzSzlNUthHCUN5tNF9vvzz6Km+PMTAANDQ3B4FUl0vsTo76uNhgIeJ7nz6TFzFEBzOBqDfqaVSVYWCWKqafgg5m0BibtKtdxPTfvDAwOvvf+kXyhqJIuzIyfclj01Wg08HxNbpSisqIyFLxy6WJ/PMPhcFlZQsql884A/OJdfnwp4DKIrxJKuN5QIhpKKOFTweYN26rLa6eTk8xBgUQKlKOkZANNQABgpZTyJBFIiQAoDWkFjZCytaKUV5hO5hFEWcRGJO2gZyhm4bAwkEXABAYGdIVnoJQAJEF7LITQqEDNyTEIANAgBWkGKYEFgGIhBSIhMoAAAiQCYEQgIINhzl3KIEhpAmRgRMFkMLBAUhywrUxmuuf882Xlq2vrr1zO7dOA1iwlTk3NvHroVF5bLS2bNjXXrC6T1nwOt0acTCbbT5wbOHm672J3V8+FsorKnV98MBwKt3745shARzAavPXWO/Y/9qWVK68wtHvBRbl//2NHjx57+/1DlVW16zZsIs8dHhlh4GoMJwAAIABJREFUREDUBmQ9Nhw3mkplDHN88KJlWpGymkikXErDsmQoHOofGP6nf/6Xtz84/Mj+h+MBEQ2ajuMUHC/nZEnH2AAGIpAmQtiUtm1Ylqk8z0AzHo8PTw69/tbh32g+19mfzlMoEq0pD4UDRkVZdM2ahuYNK1ZUJ2xDMigAqTwemZzq7u7qPX744qlTg8Nj0/lcnkhLMxCNxuMhys5Eo6EH9j/x4CMH4rHPaBjL9QpNBHOSkB/1Rubz+ULByWbTM+lUJp3NZ3LpTCadyeSzuUwuk8lkspl8tpDP5/NOwXU8RyuVLzgjw8Op2XTxFRyhKDN66YiGBUm2QMCORq9BaYNYNBxLxKVcjqLBZToGAIWCm0omgUEUwYAQkWGa27dtScRjsLzqH58A3xCNlyU2b2559/0PSClpFmfGwBK2SzQaDQQCRQreCyG0p7LpNCwmefG5QpGGHZGURmV1pVmEUMKSSMTjZRUJ7sLF5TZ4oXNcfEc/GUTky0KCT0FeAqWpUMgV8k4qnUqmU9lMLp/JJjOZXCabzeUy2Uwmk8lkcoVCIV8oOI7jKk8pnUwmx0ZGSWspRZG1Ej7V6XJ1EQ3sPwXLMuPRyNWneBhSlpWXGYbQmpa1ipZQwl8zSkRDCSV8Kli1ck3TupbOC+1ae0IYzKA8Eq4USAKQBZNHboF0iFAKZEBAwzLsAGlNWnN6pjCTzgkBcTRYEjMyaiDOamTlmYZAgchgApooiEkDGKy1gSaAREAE7WsSIEjBWgsWJAxmBIHISHOfXGIBggEMYAISgAAgBTD7DgPSDIDIGkwkDYgMYctOz7R1n38hmlgZDn1W/NtEJKXQnvf6+yf7J7OrN+zYuGnlujIj7Ed3AABAOp9vbevqO3lq6GJfW09/OBbfdc8XZTjeeerI+HBPKBi49fa7Hzvwpdr6+qvpCSIScSyR+NY3v9Xd3XXi8KE7792/ekOz5zjT05MeIyB4WqYUyYITTiXThjlmmMIw7WgiYEerK0UoFIomyi5cuHD21OmOrr6G+vq6mvJVkbjrklPwFFEA2XeRIEDQAtsWhmEaiBIxmohoUu8ePUsyaNmB6spo2DYjIbOqump90+oNjTXV0aBAZNIsZDbvjYxOdLe19h452n/u7PDk2IzjuQAYssORSCwS5HyqvCxx4Mln7r7/4atxB5WwXGhNQrC8RB/Edd2p6emR4dHOvp72to6+vv6x8bFMOuM6BaU1EylFWitm1sSaFGggIE2aCRDnKDAhpDCkLD6gwScRlkBREQ2IqLUOR+KRa0E0CGFEgmExfyeLRzILQRIXy/ZWnpfKZBh48QKTzCyldF23oiyxurHxKrr/sR4CNm1YHw6HspncMg67nLNcCACIRMKRSMQflSUtLCGE56l0Ku0pbRaXP/JZR3GTnAAMAWXRqFk8v3N5WAGrtrrasgwgKCbaRlwdzaC1FgIvDS3MZNITkzMDgwPtXZ0dnT2D/f1TU1O5bM71PK1JEymlWOv5VUIDMbEv0ACIIKX0RQ2ElP4LtYQq6pxAw6er0XA1VScAgIhsKxCJxa5JfyKhsGEYWrtQRKINoihCTLeEEq5zXBdflBJK+OzBtuxd23Yf/OD32UJaSoOIgVhJMiwEFEiktfBcz3ElCJAIyAyApm3YRNpjjnI66UzN5oGteNgWgJ7DQgrQXo5EwDSkhUAgAQQIQwICMwtTozLYL4oHEoRfS0szIwABAQsNYKJERNYMc99wCQwgDE0MIATMiTsgaC0ItdAIQKwBGBFBGJIkjva+PVi7beOWJz8jasr+3vpUW9fR9oGymtUbmhrXV1lxAwBAAwgAT0Nn30DvyZNTfV2d3b2mMLbfcqdIVFw8f2p6qNsUePOefQ89+sRVsgzznUEA2LHrxq9/4xv/+T//b0ePvHfzLXev29jMXa1Tk9OkDDKFiyLtuSKbEUJOSwHSrGpcHYlELBExDGmYIhgOBqPx3u6eDw8f3t6yacWq1a7neY5HRKwZ5Vx9kaABliWkIaQUgjEctENBg9L5soryaCBoG0ZZoqxm1cp16xrWVMXiQWkAEQtFmErm+vsv9ra19p04MdTaOp6aSSntggDbjEbjkZDppGdraqufePKrd9x9rx2wrx9X52cbvhd0IblgYnJ6cHCwo6vz3NlzHR0dFy8Oj0+OZ7NZrTUiGqYpDUMiCikRhUAAISQCCikEGMJAQhC+/fwnJfGKAjMjENNSgpDL0GiwbdOyrg1jJQ0TQCAzLlGEj4mEhsV8o3nHzaTn5AkWNx4QQGldFotHotemtqvvcRVC1FZVBu1AOpO9VtJ6wWAoHIkUr8yvtMqkM1p51wnRUDyECIXD8/IcVxWgIqVZVl4mhCAguSjTQERXEwzjiwH5TnXH9cbGxvsH+lvb2s6dPdfV1Tc8PDQ5M+MUClqTIYRhW1IIKSUgChQ+7YgIQkppIDCiAPCDF5mXt0r44RSfpjF9+TEqluBgYitoBK5RjUlpGCAk8hKkJAAwMwOVeIYSSvgr+6KUUMKfCQQgdm3dvX5V04lzR7SpWAgEIq20K9AkgUiatIeFnEJGw0QpWAAIE00wAqQJAppFLpUfn3VIY3nUMA3hgGeCAEQELwCoJbpMTGhIFAIsKQUAApJf5YCBgTT6hodCEh4xC2YQtoECAYkRQIMmAGSQgAIYiJmF8CslIJEirUEwsiAJIDQQYDhgJWeT3adfrKhqqaxt/ouboL5tMDkxefBoKwQrNqzb0FQXrQuh7y/ylS8vjoy2nzid7uzq7erIFvI7b7srVNtwsef87FAXu/md+27b//iXV65YCXOSddemYw8/8uiF3t6f/vK5M6fj22/Ys3IdK3Uuk0y5GlhyHgzyPM6kIgjTCogJV62MReIm2LEAG2XCMhuDtiXNjnw2q1xXadfTmoA1goC5uzMRbENKA01haFJm0E5EArGkF7ZkLBSrqK2pW7lyVWN5Q8KOGCyZEA2PaHQ8OdDd03v2ZP/5s8M9vZOpZNYQ2rDNkB2NhAIG6lxqzepVjz39tVtuvd0Q8io10kooEguCYdlM+tDho0ePnmxvb+vq7Z2enCo4DtFcSYRIJCKlQBRzLkUhgGjB+/jH7S8D+2nCJBBhwRov5lHOt7m2+2SSQhrGtUrqZuHf+xJAAF68kePmM5k089LVJVEI0joUDdvmomp/y4H/vALhUCAQKLJIxPyRi/3RMmQ0HDUMg5nmEukv89gX4vyTqXQ+n79WJtlfGOxH2hTRENmyTJ/Zu8qVXwoRsGwURbxfV3qJeSJSAsDg0MB77x8+ffJMe0fnxYGBVDrpup5PFEghYrGoEBIRUUr4o/bHx1YJZGZgJpiTTlzGKgGymKo0f2EwsBRCmtfs+yUYsKi8CUQQpe9mCSWUiIYSSrj28I3VlfWNt++5t7XrnFMo2AGLibVHytAMwhSCkRHJy2lJqAPCMNGSLEAYAti2SDlMBrCdzTjTmQKwVR42TRM8haA0GCBZogkKmAm1ZCkZJAuWbABIQgGaQQMJJFsKSawFCxCkSTMoxWhKU4AglACawfEUIYSkRIELLLxA1oBMDKwlISD4xS0EYDRkTY+3dp1+IRr/oR2MATEUsbv6dIbat83o/VPnhqfyazY1r19TURcTci6kGxBgajZ9vrU12dPV23dxdDq5ftfN8TUbhod6kv3d2sk0b9326ONPrlm9Zu6ur9HOiRnCocjffOe7k1NTv3v9oGkFN2+7cbWGgd72dHLKAdQIOQ2kPMpkIopnyANNsGZFNByVYNjSLQ+K0NqG8lhoaHAoOTtV31CFErQvbQcEiAAoGGwTpcko0AAwLQyHjLApItGqFRuaVjRW1pdHKkMihCTQ8BiTyfzI6PDFtrYL51pHOjpGR4eShULBENoMWCE7FglaqLVT2Lp152NffmbHjl2+qFlpt/TngRBCed77hz54+Te/OfjWu+NjY8wgpWka0rJtKYTvbVywh5kImIvQKZirdf/pPMeiUid8GFJeqy7gwn8WxbyPdrGW+Uw+l8v98ayXBxERUywata9OO/DjCIaCgeAfZQIWrxMxh6UaxKJhIeScYM9l5sicY1YIAPj/2XvPKMmuKk10733OdREZaaoqs7JU3jtJVMkhr5KEEAhhBMK0GHjdw7yBBla/7qaH6R/zfr21pg3TtIEeaAYENAgaJ4QwDUhIQl4qmXKqKpXLclnpbbhrztn7/bgZWSmpMiJSynKt+LSUKyvjxj3nnnvuuWfv/e1v9/b29PT2t7XN+Y8gj1+ZH9V9DSJAoiSl5MzCzBQCVEg1HRwTB/DMmpysvjk4MPjAQw/d/8tfPf/c8+PjBSKlteM4yvf9iSQpACZKJWHBWgEwp2mVOM0h++lTJ+r0I4EIaCKU2Vl3EADqyoeQGd/dBhr4D4qGo6GBBmYfk6KAW6685fdPPfjs9qe00gCAAiYxKGRJoUNo2MZJhOKKA0LKRURAJMfRElhjxRcNAKViMliImGVuzvWUsYyS6jkyobHoaQUCDLFVYi0qVC6yEgEsJewgOS6DRjBAyiKRiE0siTWo0dUKCQjAxlAOjQTcGjgIkEolk6AjAiAWgMSyBUUghhjB19rH6Nje33Qs3LRy47uAsNqW4DQPNQAc6jq69aXjubkXrF69aGmH16RO7kGKsX358NGhQwf69u/v6jm+YM36+RsuGhjuHe0+GI71L12+4t13fmjd+g2z3rF0t9Yxv/NTf/zpfD7/2LNPIcL6DW8hTd1H9owPjYYxJUhxgsNxYqTQDDwiAGLMoguagqwwkpAD3DGnVUycROUkiklpwpNBJAEgEHJEKSAFyExKaQUZJZ2L5y1b2d7Z7DW7ogESoXw5Hhga7TnYdXTvSyf27uk7cnhgaLTAxnge+l4uG+QyKgkL6Dg33HTLe+/44LIVk3U3GvulM4TDR45+57v3/PtvHjh+vFsEPM9HQkWqImJvU2Nhqmfh9Faxrwv1pk4AANcugDCDZhFnkgkyPaIkCsNIpC7Tha00NTcH/ixLlmSCwPcCSVPgUoZKTdTqbHNLi+Moa1mhEhCc/kEmACLqOnJ03779G9avgynkmvMUWKclSggk9Q13bfCkP6f6tEyrQjBDbY/ESYhMuAAefezxe77/gyeeemZ0dJRQZZuyhEQ0kUqQrhKTRXDhnFgiXj/eYHnLFDKr7hDCk/e3OtevkTfRQAPQcDQ00MBpQvoGWr5k5e23vH/fwd354pjrZkiYE4iZWYkCAtGKQMgCgihSqCvZ1ui4biaTSgkpVFDOw3AptgztTdrXwCxKJGQERwkm6CCQEjbWAChUqBCQrYRhYgg9cDxGIWQRBFAKBaxFii2LBURhFjYsLIUSKyvNGe1MxGQkNmwTIRBE1ABsgMQCAgm2ZLyegf59L/x4Xufalnmrqu5jTxdS5og10eMv7i5Z5y2rVy9b2DzPAajsQQzAif6B7oNdA3sPHOg61DRn7pKLLy9G5ZFj+4tDfe2d82+/80ObL33rae3kylVrPvvZP03+6R+eevbJKCyt3rh5wfKNvnNwbHiwGKlIqxhh3FqO41wxjz0ngG0yv9PzA2Q2NjaGs4EfGRMlZSJXUAOfrOtHCI6AAiFgAnYd5WpyHW5rdloc5VoxVkaSeDQ/3nesu+fAwd59Lw90HRwaGhwrhyEqG2R04Lc0B76CuDje3Nb69rff/s7b3zOvveO0jkkDr8XWrc99+StffezxJ5PEuK7nOBrSEDpPrbt4ho0GrMN7OANGA8y21yo1hq21VY+qveGXOiPaRACiSc26EU4pyTplk9Vp9tZkNLQ0a8cxJqyZT87MrucNDAzsemn3+9777vqaP6chFUu0+r0nAEISmB1OHjJAPVVSp6D+JwcRmO33/+1H3/jmtw4c7EKkwA/S2hDWWhFM0x8mjj1/XQuvxBsXg5xlIAikIhdYPdNK5PTKZDbQwPmChqOhgQZOC4hIWJDwpmtufW7bUz9/4F5jYuW5aTjSApESsZwYQSImsjEbsILoAigFSOgEWgAAEoUeIoWFeDyyVqQ9qzMaE4FUcoFZgUFxGQUYhQmQOXCVACQxG8ISWHKVUsIgqAWFFKCQNQAcpUEQBgZfU2J5vGxNzNmMDlxyCEyUDAwnGQdbmlylEAUAkCwAcEDU5DqDh58/tP1Xm67/JDremQ+Cpa29fODI7q7+eQvXrlje2ZlFPcVkGCuEh48dH9q/7/CBA8bVazZewo4zeOzAeH+3Fzi3vffOa6+/kU5/0seFF1/053/+51/+8j8/8vvHx8fH1l60uW3hcscP/JHhUhSVHCcqlsZtksShGUcLGDNnmltcrRJrjIkTgwCG48iQw6LSLcxE/KoSUEZgBOOgzTjkkkE0bO3gWFgsF4Z7eoeOHh48fHjoaNdgf994sVQWiBxHeW5Tzs81ZYjj4nh+xcoV737fnddcd0NT0yzUBWhgRvj97x/927/7x527dinl+L6f1mhIP6r5TJ3ShnyDpsZMiOQzYDSAzK6eiwgI1kGkQkgraJzabnEd13PdurrFDADGJJbNTPta48SWTWLT22ahvkGqNeZzWpoD1yuXyrVbZ/YdZySOd720u7e3v7Oz47ymM8BZs/BEQABr5N9NyJ+IyEwy9ZjtV/7l63d/81/7B4c810MERElXifRmVX/kT7FKnA/uiFlhNMwyJiQt6vHA8lkIvzTQwDmGhqOhgQZOF5BQBOa0zP3guz62/9C+vft3OFoDpiUgrLEKwIoiNATKgtWKAQ3bCWc5KkWuryyzZQ5QATqhMsUym7zp8FWzj4gYgTALgQIhUiAgFkEEIwsagUXYSik2GthTChBBGJWgIi2IFq1YDUCYJn+DQrAkYcyJYevrjKPCBPrGjRizNIF5LY6iSm1tQRDJuN7Y2Mjhnf/eseiyhWuvTrUSznQChbVbd+1LbGblkuVL5rlNdDK5OWE41js0cPTYiUOHRovji1avC+bN7+s/OtZ72Cbhjbe9f8vbbnX0rIm6VcfGDRs///m/aMk1/+z++0f6e9detLm5pSXXikFcziVJMZspFwphFJk4iov5BKRcLivXBRDDxlrwHATDghoVgZLU1zD5P7AQsgJGY7WjrY0He3qdWOf7+oa7j44cPzrWc2J8dGSsXCqJJNoVTX4QNGVcP1ASl8IkvvSKKz/wwQ9fdPGmyXoHDZxuTDrmHn7k0b/5whd37NwZBEGq3gdVrYBU723yn5Uic+lHgpWMgjMl4VkvowERYUZk8RqnA1IKLdiZiN6fcnJ7vu/5QZ1dI1SFQjkK4/obrQdhOYzjECvaDPXViqjx+aLFC71MEPUNuG61VW6C74DoB8Hhw0f27N3b2XkWCE1hFD33/Itdhw4Tpd4csXbCm5PS/BQSEFq2xlpj7GWbN226+CKlTy3LV/+ckNlJm0gxeUuoZsGBGT2ZYRTfffe3/uVr3xgeG8v4PiJOVXY8BeSV+QKIp1wleHaWiHO6vCURSsXPOCuYSGdLHYLTQCYyVmh2szYaaOB8RMPR0EADpxEijEiXvuWKD7/3Y1+6+3+NjAx6gUuMQgjGChBbMGARtQJrSFAUkiAo1KnqkMp4gEhx2QAoFBVTEpaTEwWJrJrjY+CgIQlBTKIcjYSIBGLEktGKHI2IEiVcZACNolEsgsPAQISKUBgiBs8Rh1DsRIUrhRBbHssnRccmhgOCgYgPDhQTG8xvchyHAFOOKDiIvuOPndjf9eK9cy5YE+TmAdcTX5xNHDx6ZO/hvvalF65YPneeB7qybWKAkVLcf/xEX9fhvp7ubGtr69I1I2F+pOdgOD68+bK33nrbHbmm3Jns6vJlKz733z43f37H97///ecfe2jRitXzFy4MXC/rukEQJE1N5VKpVI7CJEkK5QAgcD1AZMAkDtlVAIp8V1wAAkESnEhCFhEQa8VoiIkj11U2Lu9//OnjiNHQUH5svBSOF6I4shyRwsBz/Uwm62U9hcJxuZRryr39Hbfd9p73LV605EyORgPpRnnXS3u++KV/3rFzRyaTVZVKjVU2/6mnjwgQFBKCtYmITRKpACrB0tTaqNDmBUhpIiJSSs2qA2IGjIZ6MjHqbhVREMASYG1TESFtmekU1TqzQdCSywHUKDmRghQWC4UwCl9Xr6dFoVgqlUOZVR2+VatWL1p4QdehIxPSodXzyYWbMpn+gf6du17acsO1iHRmGGqTrTz2+GN/9/dfOnTosIAQIOmTLk8BsFZEGEGQlCYaHBr6L5/4ozWrV+Vyp6Zf4Uy49Thr0XGZ/FEzbWNGBujP7v/F1775reGR4Wy2CV6p0nKKM6dPPwEBERGwsLBhZmsnZ8LEMoGCMuFmEhZEQdJaESIpVX/FhLNS3nIG92wWJzEC0pR2p+sBpryHBqOhgQYajoYGGjitmFSFvP1t7ztweP+P7v9OFMee6yomIyjADhGLWOSECAwAAiRpeQfQCogANbkIAoJUqYINEMW2P7QJw9xAZR0EEUCxBjWBclCIABkZiUFrBITIsAIEQVEiQMCMhADIwMVIEkWtWUUKxQJYICRFkjDHsRWGtkAR66FicmywbGI7J+t4mggAEWwsihyU8MTLj81f+dbVl3/wTKtCCj/94h4D/vKVS+e3OT5W9tICEUtf//Bwf29/d3ci0rl0bZlhtOdwebh3yZKl73n/nYsWLzpDnZyC9nntf/zpT69aveIbX797565dAz3H53bMb21pCYIgyGRaPT/TFJfDOEkSy1iMYlKKUBnLccxaB8rTQALAiCq12WKUhC1ai9aAKQHF2nWTUvHY3m6xxsQmRDQgrBR5ges5QSbI+I5Ca+ISEa5bt+Hmt7/zyquvzuVazvxovJnBzESKme//+a92bt/hu55WynI1LsNE+QREpRUzh2EUR6G1RmkXUbR2XddzXO1qx3Ecx3N91/E933N9x3ey2SCbaRocGtz10u5ioeQ4zuxdygw0GgTAnpUIn0CqfHAqPwO4rpvNZtPfU79MFROLlMqXi+VyNCv9moxKF0qlMI5wmkSYU6PWmLe2tFx26SUvvriNmbXW1a1Ta1lrPV4Id+3a29fb37mg8wxnTzz1zPN7Xt7HxqYXlhq6k6Nh0zxBAaVEKXd4ZLRcLOtp6AzplKxHowEAJkpyzE5OTyUtnxm0ri4JWY8Vn3phjnf3/OTe+wb6+rOBDxUvQ9VVAolQaUoSUy6W4ygCBFJaEWrtup7jOo7Sjue4juf4vuM5vuf5ruc257Jau12HDx44cDh9CupjRZ3TjIaZHVoP6rhcmUjXajAaGmig4WhooIHTjPRtnQmaPvaBP+wf6H7w8V9ZkyA4iAQEJrEKFTIryxyJYVDIBohYkwupPrVS6HuQTNRYFyFHE5bRDsZcNqY9Q62uEmIQMizaklLGagQxhAotKiQLUDYJKiVKrMNACISCCEiJNcWygFVtTa4CFEZGIECXQDEmIELUGjgOwWjJDIwlYiTraQQBIhsLJOwqPxzpO/Lc/fMWvaVtwZozmTrR29+7/3BPe+fKJUvmtDmgBKWSvTESxkMD/f39/aMjw61z5qmWtuGRvuJwj+d7W26+9aJNl5+xTr4S4vv+u9/9vmVLln3vnu8+8LuHjnYd7Ms2teRaWppbMpnAdV0EdLSTWGMMG8sINklizxXHD9BzgGSqVpwVsIYNJ8Yk2hSVtsgSlUv5chlQJSCilXLcrO8HWS/wHGITRQUrsqBjwZXXXLdly03LVq6sa8/bwKwi3b4//9wLj/z+98ziBa5lgVpehlSsfmx83MRJa0vLggXL5rS1LVx4wfJlSzs62nO5nO/7ge8HgR8EQeD7nu86jud6juO42Wz2ySee/p9//Tf7xg5orWeP1FAXoyFtbsJRenZAAMBwCk+D67u55hzIRPnAKqa+iChSY6OjI6Mjs9OpSjy/r7evXAxnZtvXYcK89Yor7r3v/u7j3VpX2+ylLykRcZTavmPbiy9uf+eCzhn05A1jdGT05b17USSbyZ7SNpti8ZIIt7W1Ll++PJimyGidth2n5S0n/BKSijnOyturrgz+OnqZzodf//o3u/fudV0PleJaqwQiEmJikpHRkiaaO3du29y29rlzli5ZsnTx4rZ5czOZTOB5vu9nM34QZHzfd7z0P9fzPWT49r/e89VjXy+Xykqp+txe5y6jARFFgPBMEy0ni5403qwNNNBwNDTQwGlHui1YfMHyT/zBZ8cLY1u3Pwkm0doTI6IQrRWABEmENTApEhBiiwhalNKISimtkBgJFZEIxUIeJUS2GNm4yGEi83wVaMtICVhkSiyDQmEJSKEDyBICs5UMomcIFVgCR4FCJqEkMQOxYStzMq6n0dg00AZpSTRBYMKMo9HHsbIZLxhJ2HUUsxUBaxFBFDl9XS9073ywtWMFqjO3quzZf6gY46pFi+Y1u64SEBQARDZAo4XS0PDoUE8fCmbmL0iAbGHIlMcvufTya2642TlrSgQTMaKL3rLp84uXXPHWt/7i5/c/+9yLPSeOjYwM5ppagkxWkaYJDXoREgKIyuHc+a1u01wkrYGJECuxM8uYJCyhYVOEqEyU2LhcZrC+px0v0Oj62nNcz3XYmlJ+mJjnzV+w6ZJLr71+y8YNF/mBD2cumf8cwtkNM6WBSmOSBx5+5PDhI1rrNK46rf0AAKn9kCSlUqm1te2tV1x+69tu2rTpLR3t84JMxnXdtEpFdbS3z0VE5tm93TOrOjGrQz+j9HqGlE4+FYgA4Lpuc3Mz1hKFTQdNKRoZGTl4qOvGLdcTzs4ywmx379lTKOVdZyaSMXWM+cUXbli5fNmJ7h6ZqJBaPXtCXFcfPXb8vl/+YvMlmzo758+gM68XqS29fdeug4e6BFBApmNeTCYNlUrFee1zl6+YnVSvCQpcOi3PIBsPaxUlSFeJI0eP/O6RR8dHxz3fS9kKVVaJ9KNiuWyNXb5s2Y03XHvTlhtWr1nV1tLqBp7vukTTcEA5g4oQAAAgAElEQVSmoLklx1a4lsbE1Eup+8gZY9aqTsymEkd6umojWRFpbvAZGmig4WhooIEziIvWb/rUxz4XJ8n23c+SNQZJg9hEQEBRWpCLiYCZtUdkCJgYxEFxlSKHECbyHYg0lCSty5UktjfkcowdgbS4ACTGApKIKGAmJSKoFCJT2YIgAwtoEkQgtAoZWAHELD2jSSnk+RmnyXdYxAiKMAnqVEpb0FfEHhVCWyjZrMNKKxEQEbSilBsWi0e2/bZj1dUdKzadmcFkjvfsP+o2t16wYF6bBlcQJuIWWBTJD46OjI7HURhkc5htNuVCfrh3ztz2LTff2rlgwZnp4SmR6ngRUducOXd84IOXXHrZIw89+NsHfrd7757Rwd684wZNOddxdCrQyWwtMMSZ3JKgaY5S4iFowMmASWwlDhMTRzYscFIWbcKwFKMKWnKB72qFStiYqDA2TgAdnQs2bdp85VXXbrjowlxTM6TJuiLnu8L8jJBai2d3A5iaTF2HjzzxxJPlMPJ9tzqtHZlRqTiOmfn666//4Ac/sOX6q9vnzpvm5JDub9NMbKwIQ2qtoyhitundPnvepVkceqqqyHYKvMpuSa/fc92W5hwiMLNSNSwxpVQhH+3YvnNkeGju3PY3KGSQzoT+/qGdO3YxS3XewWu+XPuQtra2yy+57Jlnnzdx7LpulTqgE5QTVI6jH3nk8V9f+cDHP3rXmVkZojj67YMP9fX1u5WMnioReyIySbJ00ZLFi9+wo4HhFaoK5xhS58czzz6/e/duVDRR82n6RxaZQalyqdTS0vyOW299/x3v3bTp4ozvn/rkFZUGSK1iEZaJ6ZfEEQLX4ZGY0tPzALPbyTfRG7OBBt4gGo6GBho4Y2AAumLzlZ/+w8/9y3f//oUdzxAQooOkQJASsMDATAQMhMKJRXEThYrQsQQkSESuq0GEIBZwIEp8cRApQjMSc7kgHR7M8xHJglVsGR0BQbHoOEqRFYASkjCLgEcohMTICCyoBQzLUN6Uykl7kzcvcF0CEYxFgFkJKxYRDFChA0W2+ZADjVoJSqrazYqcoWMvde/63dzFG9VsZoBPi57uvp6B/LwVizs6clkFiCkPAxixWA7HR/LFfBHFZtpaEuDiyAkTFzdfd+2mSy6DKQpkZwVp/e1UBnzpsuUf/6P/cs111z/z1FNPPPXkrl0vdZ84MSaSyWaDTNZBbUyMHrfMW+C1tPmO+MAEalJuLIpsGIVJWOZonG3JRJIvlEQgo9BGhXwYIkhzrmX16jUbL7z4irdevWbD2oyfBYBUcrxCnXizQASQAJGlDtm/04RJa3bXzj2HurqIcHI+nPL4NDgWx3E5DD9wx3v/9E8+u3rVyomPxDKfwip7bbm71JGRJLExVgSnZr+/YcykvCXWl5teL2Z8E6d55rGlJUdA1lqoY+kipbbv2DUwMDR3bvtMO/AqpDNh3/79Bw8f0UoRURVfwOvD1ddc9b0f/bDnxImJ2hMi1W9BEATj42M//vF9V1x6yYYNG2a3M6fE1udeeOKxJ41l162mxzlpFTPL8uVLFy2a1l9ckyzwmqNnGfW8WkSqzV9mVqTE8gsvbhsYHMwEfrVLStcIokKh0NKc+8wff/KuP/hQS3MquyPWnlrT4dWLf2XkozixlhHOiVfD7JS3nOVlB2oyGhqpEw00MImGo6GBBs4YJnS8r770Ok305W9/cdtLzyTGaAeJyQgoENImMdphiDWwIAO4TAaZSLQmIkIAx3UQBdAQS5nZgjAoA7Zk5EhoCxYW+ipLLCwJE+j0pSesgRiYTBFRDIhGTQiAqBEREEETCdtSKMeiKO8nHb6T9ZRDgIxGyE3DfcIeIGgsGSknxjHKISAGINbkhMV89/aHFl9087zlZ4LUcOjo0SLDRZ0LWrPaQYB0UyJgEArjSb5sk7DgauW25CQsl8f62+fMveSKK7NnttLEdEhNwUl3w6rVa1euXrvlplt27dqx/cVtL+/ff+RwV//wYDlhEsm1Nc1pX5bN5bKKtKgJsq+AFSjFcblYTsI8R6PCYWiT0bHRsBwix82ZprlLli1ftWr92nVr1m1Yumy5U6lyl87Ds5kvfzaBAMTnQBTu6PGjURRXvwkp7wCVKueLV115+Wc+9cnUy1ApMIEzKkdaKJTCMJ6uIuDrxUxTJ84Oo2E6my4d4c7OBV7gjY/lvTpO5Xve8ePHXt5/YN26dW/EXznp7nzm2a35/Jjr6km9z7q+X+uo9Pzr1qxev2Zt74kethaIhLnK99IO+L6/c+euf//NA6tXrXKqlsZ84yiXwx/fe9/h48c815GqMoeQumitJUctXbq0rW1OldOe/ce7FrCOEiwDA0O9PX1Qz0ODkMSJRrzzjjs+9tG7mpqyaf1LAKlJ0nkV8uP5NLuqbl/k+ZA6MZvLDtS8c43UiQYamETD0dBAA2cOk7vSKzZf86eu9/V7vvTE1oeiMMTAJ01gkUAYDDpEiCiILLGb5l4SAqGLhAoVCngeKBIEsEAsICgIYBLg3khK1i70sE2DFjSWQSGy1YnSCgXBMAgaMMohYURMyHPRI0QAh1ARRYkdytt80TQ5KvBUa6B8jYCgkNmCsuhaEo1RYmNrLYPDQIoUsNbe4NG93TsebluyQanTuz0FsQe6jpObWdjZ1uwACQACM5BArHisGBVNgkk5yGQok0kKg8TRmnWb167dAGebzjAVk+6G1IW0cNHChYsW3nLL23t6eg4dOLBz1/Y9L+091HUo6My1L1yZac7klFYpgzatT4JQLIdhoRgVR+NCnh1TDMNSMVq+YvmqNRvXrF23eOHizgs6m6b4VtKA4Tly+WcDUlGZP8uI42RwcBgrMe0qQMQ4jue0tnz0Ix/esGEdTE6YmfiJ0js+MDhQCsuz7WCaCaMBzhqj4ZQzPmUQKKWWLl0yf37H8NDIycJ/0/dTaV0ulR588MEbrruutbXldSehIBIAHDly5Mknn0wSGwR+PfU1T6K+MW9uyV1xxWVPP/NMnCSu61ZvIL0Q7TjlpPSz+3+xefOmm7bcMIMuzRw//elPH374UWBWjlOF1zPZvTAM25qbV6xYWn3Ez30fanVGQzoPR8ZG8/lxRVRjlUAAgSSOL9qw8a4/+FDFywBEM6J2AADEcdI/MGSsrUfzZbKzM2piRpgdRgM0GA0NNHDW0HA0NNDA2cElGy/7s0/8ZS6TfeCJX4flMAh8UJRYJBBEJkZUCYvWJCgMaAAAQCulEJVSKQsBBA2UmQTKYkEUCaDwqJVyUTpd6HRNhtACJqKEWFgIgVnKQKwTXykARmRjEVwVqLSUBCiixHJsoTdO4rEw69KS1mBeRrlAImLBoogWECJgaxKxAspYTUCo2JS6nvvNggu3dKzcfFpHz+THTwwMt+QumNfa5FZe5wggKJFAuWQSE2utMJfRjgwXhrItzRdfdkVb29zT2qvXh6nuBgAgpRYuWrRw0aJrrrt294499/70R+PKbVm6vLXZzSoBwIntC0oxNONjxVJhuFQYxFJecmq8OO7nWm+8/u2XXHZ1Lpedrq03ORDUWdwBpiZEHEUDgwOWuZ5Kk+Uw3Lhh/YWbLkr/OdObmE4tFt67d1+pUJjVvAk43xkNKZYsXrJh3bp9L+9PE1tqGvzacR965LFbHnv8Pe9+16TqSp09mehP5Su/+NWvd+/ZRxUpyhn4LGodONmlSy7d3NLa0tvbh3VIQqYn9n3/UNeRf/zyVzKZ7JVXXFZvl2aIZ7du/c49/zY8Mux7XvU5OVl1pVQqrVq5YtXKVdXPfO5HkuthNIyNjw6PjaUKjtXvmrWWATZdsmnp8qXpX2Y6IdPjj3d3d3UdEraITt1urwaj4TWtNRgNDTRQQWPT2UADZw2rV67/k0/85Udu/3hT0FQoFJOYQYQZkhjYQMJiDNvQRFESl+OwFEWhSRJmBhFEIq215zt+xvcDz/eV6ymllavJVRgDHCvLwaIMljmO2cYcJ5wkYBKWmJPIFEMOY04sxJbDiAtljhNBAQVAJC5QQJTVykUaGTcvdReODYXKgAYkCyBAAkpYC5AAsySWw1hMYhR5I4f3HHny51FYOE2Dlu5+BodGhwth85zWJs9VlZc5AluCKOJiKSFh1w/8wNMcRsXx9o4Fa9ZvBIRzVvvwVb0SEVI609aWKMq1LGptn9saoJ4SxrGAo4UwPzJeHB0sDw1wXIrD0sDQcPu8zs2XXp7LZWfVmPyPgMqACEA19viZQalcGhocEq5NbCYiEJnfMT+XbXojLR46dGjnrpfCKElbPMPlLaccfg4xGqBSdKA513Tp5k2u6xpjap+KyHH0wMDgPd//YU/PCXhdgzlZbeGn999fyBcdx53xA1vH4elquX716osuvkhkBmQuInJdZ+uzW//qr//28SeenFnH6sOevfu+/M//8vKBg67rVqQoqw0jERljGODCt1y8evVqqFzdKXHWH/CaqMFoAACA4eHRQmG8SqWJqXAdZ8GCTle9IYGkbdu3Hz5ylHFGbq83J6OhamsNRkMDDVRwLm64G2jgzYOFC5b814/+ySc+8pkL2heWyvkoisWKiCRG2DBbji3bhE1ko9hGYRJHUZJYtgICSEpr7XqOFzh+xvV87XhaaeUochWCwv4E9pXlSIkLYSKxTQxHCZStxEZMwnHCJmZjwAiXYjNe4iQWZMAJPwIEgC1az3EdSXh/f3hkuETGZogcABQhISWgBB1GMMBWokRMAkli9z36k2NP3n9a9x+DwyOFJGptDnIOIoCdeK8TAxYjmySCWik/CJwATaK0LF++Yu6cuXDS2jzXke7wXty1vWe40Na+tLk5m9WIgpVQiZQND42VxseH8/0nymPDaKKhkdGxfLlj/gWTFSXO9kWccyCidIt41ocmjKJyFKX70OqRQ2YWEcd19OvVVkhty8efeGrPnr1Kz/pL/+wyGmqhQh6fboiJyBgLABs3bljQWW89GiIKguCZZ7d+799+nCQGEV+HiGOhWPjmN7+9f9/BIOsTzbwOSB3Hpre+ta31/e99d/u8OVEUpS3UszhorX3ff/rZrf/zr7/w0MOPpn8Umbb8ZE2kMzn9/cCBQ3/7hS889vgTwlwzl2dCukJhsVBYtnTJbbe+PZsJoGrQ/qw/4DVRndGQjkipVE4iU49riJkB0fEcqFWltQqiOPrdQw8PDg3WQ7OagtPLaJj+kwajoYEGzgM0HA0NNHCW0do656Mf+L8//UefX7dyYxxFYSm0DCKSxBjH1sQcJRIlkpQ5DONyOY7KSRJbayaopI6jfN/N+H4m8IPAc33PcbXjKE+joyEE6IpldyTdIYQRc8LWQJxAHEMUchSxjS2HYBPOR3YkTKIYiDH1NYCAQsg6qi1wPYHDQ+HB4TJH1gMiIWRQAo6AAlACYJFZYsOGnLGhvh2//GbPnqdPz4AhAIyO5suxacn6ngvCEwsZAhiAsMwMQKg8zw18JA4z2czCxUs8rx6ht3MCqSjasRO9z23bk2lZ2rliZVtOZ5SkBU4BGADHitHI8Gh+sGek74Qp5cMkGRoaVY6zeNkyTFMwzu41nMM4FzZ/ytGTBWIBagTciGhsbLRQLL3u5l544YWf3Hvf2Pi4O/sVYc5vRgNUnHorVixbtWr5dBL9r4Xv+9aaf/vhj356388AIE24qGmDTx6RJPbr3/jOAw88jJh+d+bhz/rGPG3xxhuuf+c7biWiOE7qJDUwgNY6m8ns3LXrr//2C/f+5GfWGkQkopm6G5h5qrDI8y9s///+6m9+9/BjFkBrXc9oE1ESJYj4jltuue6qq6CWe+6ceMirojqjIYXWKk10qscxJMwjQyNJkrzuLv3oRz95/PEnRVATzuT+NhgNr2mtwWhooIEKGhoNDTRwliEigR+8/50fXtDR+a8//j9PPff7UjHv+4FCne4wlCCiFSa2ZBOxllzLnkcijtZIDilE1wdEIIWokEgijRCiA0JgEoZhtsXEjlhYoKGZQAMkFsoWrKM8IQEhBQA8ZsQ6MsdVgSKwQMBEaBFcxFZHl8qmdySysSxt9jJIBQERUAJWgAQdscaCFQFBi87x/Tu2/ez/NLVdkOtcWrOg2syGCwEAhsYLViQXuA6AnfJCZ4BynIAipV0h13M1EWf95o75CyYUEM55+5srkbpHH39mcLS0/tLLFyzqmOfjpJsEBUuWB4bGRvpODHcfKw70B9oUinZkrLhi3ZoLliyFc0nw8tzDhIcOaoVnKy6AqmdCrB4rS42o196LrBe0NjcDIbMQAE//jIiI1rqr6+jRw4dXLl8G1fKWX/3FtPXHH3/ii1/68vbtu3zfPw2z4rzXaEhHqX1e+8UXXfjQw4+Fceg5noDg9FeVrsyZTKanr++f/vdXjeUPvP8Oz9UAYK197U1nBhELFe3PfL7wta9/41/v+X6xUHA8t1Jsos5Lmex3XUelfoFMJvOx//TRvXv3Pf3ss6nGT00CRdp7pbRSas/el7/wj3+//9DB99x++7p1a9JaOZOPz+R5XnnJDJWHaDI/aHho+N6f/fyHP/rxvn0HlCKlVE0vw6SNXSoW161dc8f73p3JBrUv+5y38KozGtKLbm1uyWQywyMjNc9GREmS7Nnz8uDg4OJFi9IT1ByDybJHURh+7wc/+OrX7h4eHgsCf0bFTxoaDadorcFoaKCBChqOhgYaOMtIk4QB8KpLb+iYe8EPF3zrN7//5XhxhBxii4hi0IpRhMwiLMKMnFgwjg3IB+UgURoTQgAERFAEKsRQkNAmSmHC1lLMcoJlPIIFhO0aNDBbiNiwVh6iZiFSADJuRIzMDXQAiIDA6Z6aE5AmRyuBoXxsWZY2eT5hSZCAHQEUSAAIkISNFRJlgLq2PtS2eP2lH/iM42eA5Y1QOqeCAEGSsWLZVW7Gdybe5ZVKDDFIbC2jAtFKISGAYLapJZfKQDKf+54GFAakl/YdfGHH3jnzly5avnpek9usTu4bLeJIPunrGxzoPjZ84nhUGtc5v1QoJjZZtmxl25z2s9v/cxmIoLRChWlgf6aF32YRru/NbZtD6dOPBNP4O9LNvu+63b0nfvO7Bzdv2tTa1gqcSr9OO5On1hb5xa9+/b+/8tUdu/YoUjNkRNeJ857RkGZPaK0uv+KK+R0/6j5xwnf86hc0KaiZDTLHjhz94t//U09374c/fOeiRQsmJ5W1dtJIVkqlkn4AcPRY97987e6f3PvTUrngeX498gSnRt1jnvoU1q1dfdddHz505MjQ4FAQ+FKfLSrCSinfC3qO933zO9995tmtN1533dtuvnn9xrWIOPUJsiKTChev+ggAisXCU08/+28/+PHTzzwzns+7rpeauPX0n4jiOHY875Zb3nbxhRdCPY7Uc97Cq85oSAemuaUll2uCKfNtOiillFLbdu14/InH/+DDHyFSxlikatVv03orADA2nr/7W9++557v9/T2+/6kXsYMLqX+Q2eKc5jR0Kg60UADdaHhaGiggXMByCxEuHLZ6s/+5/+eCXI/+MW3w6TkKtdYJBawLAoFUhJqIkwi4gggCIrSoEiRVgguAIgwIiADKUwwggQIFavEGoG8sSUroywLSHIIaCQWYUTPoiZUWkRw1LIx0uHqJp3WXwMtJCwGbUYjgRor8mETXuA7nqNiRmARABYAC2yBBEHY0U5cLr78u5+0r7ho5VXvAMK6A7HVwYAEcTheKPpKea7m9G8ICCAEsQVrUUBZ0oQoSczM2dZcpqkFZqkHpxXWslJUKJd+9/tnC9a5aPXGzoVzO5rJEQAEYUCUUiL9wyO93ccHj3ble0+wLUVW58vl1uaWtesvdrQD5/xlnj0gIp7o6Xnk0UeXLlmSjnZFH3Riu3wyjl3P3lSEAEApBEBEQkyrZ/LE36lUKjbnmpcsW+IoPdkDAPBcd+68uUqhZatVtRexAJDSEoX33ffLJYuW/OHHP5rJZAEm48knjbWpZi0AWDY/+vFPv/LVrx/s6vI977QxXM57RgNMFAKEt15+2TVXv/UHP/4piwFQAjVi/qm56/lu/8Dg17/5ra3Pb33Pu2+/5pqrFi28IDX8ph6cJOb48WOPPPrkfT+7f/uOHYjo+3VE5qug7jGfrOL5rttu3bFj53e++z2TJFqplI1Q87siDASu70ZR/NzzL7y0e8+/P/Db6669dssNN6xatSybaQoCD5EUIuhXzGQBGBsdO3rs6LZtO5986ukXtm3r7+sDpXzfr1OPQirOkCiKNr3l4tve9U7Xc6EeQd+ZWXhnwR6sp+pEa2tLa2tLqm1Rc7xc1+nvH7j7m99d0HnBlhuuTyVdKtIhr14lqFIys7+v7ytfu/sHP/xJvjCeyQSvSyP2zctomM6V0GA0NNDAJBqOhgYaOCdAhMyMhLmm5quvuPG3j/7q8PFDKgC0VjSJWCsorEQxyUkAMIjrETpIhKiUFgeZE0HwLBoAIUBjk0isaMcwkiQsvQxjBjpI2gEyli1hWSuHjQtaCQthPrTW8HxPt3ikAJEZBAWIwWaUckTGQnsijjsC5SmVCJIRDROmPth0Uy8OufkTB1/+zQ/aV1zYPH8RC75xTkPKSLAspWLRUeBoLQKgT9IlLAMjWURmFLGJGETI5poD7zxY65ghjUA98dS23QePLFpx4cJlqxfP9doqBguiRIJDY8UTR4/0Hzk4fPRIaXwEM14cRVFYXn7J5mUrJ8TY34R5E/Vs6UQsIh08eOiLf/cPfuAzYJpBMeEdQE7rUQik+3Gsw45VIJza/FKh1UBFdcF1vXw+f+HGjZ/73J+sXbP6FV9Tav78TkRlrakaG0v7B0GQKRQKX/vGN/v7hz505x0bNqx7bdB4Kg53Hbn3/vt/+MMfH+/u9v1gwmV4WoBnK7QowFxX2wgg1UkXRMTMvufeeeedzz2/7Vj38WwmW13fMTXJrLVE5HlOGJUfe/KpHTt3rV29atPmi9esW79oQaefDYgxDOPj3cdfeumlrc+/sP/goVKx4Hmu63qvyjuYMWZixKQSEr7nf/Suj+zevfvprc8r7UzM8trto7Agiqs1E0VxvG37zpde2vOLX/x65cplnZ3zW+fMWTC/c9HCBR0d7UQqTmw+Pz4w0Hvo8NED+w7uP7C/t7cvihMEcRyXJgQp6gQqpUqlQiaTff/777hww3oAYJGa+pEzw1mMO08zEumsaG1rbW2dM6lwUf1MiNSUyb68b99f/c3fHTl6/NZbb+nsaK+yRMRx/MKL2+/53vd/+8CDxXIY+P7sVaJ5o6i7H/UfODuXlt4uBkZQNCNKVQMNvFlxHmy+G2jgTYLJnURLrtULgiSRRAMpUIZBAwmIZSYEAbQ8IUwggJSGUTU6qQYBokKtyHUFUTEDCZEDEbAAiiJiMImEIsesHRVpR2wjCcAQkREWEhJi5gKDtZKI065QCyEAWkkArQUXpUWpsrH9BTPXx4CIAAwDWUhSYUhGtuKgTmxy7IXHDm99+OJ3fYwQZytzIQGdmLImq0gBAQJBZQcgLAgKWVm2bMQRRKWDIKud80AJElEAcM/LBx968vlMy9zFq9Yt7sx1+CdDOhaxEJme7p6jB/b1HzpQHOyNYwOBx+VyNhNcevlVra1tZ/MCzha4ThcWMk9Ui+wd6Ic0xUAAoPJjYtMvJ//HOn4CWLFsBVDEpnabICkQUY4zOjxsTNzfPzjV0ZDGJ1evXJbNZAf6+13XmfzjKToNE9T6IAiGh4a/c889W5977sYtW6699qrFCxc15bIZ33dcx1ouFAsjIyPHj5948cVtjz3+9I5d28Mw9P1AKXpdhQIERAhr2oQ8Zeiqni19PGcttCiAhFjrwgRAuJ7+pbj+2qtvv/2dd3/rX5MopjrKfBARMxCJ67ra0cVS6blt27ft3OU4DilFSEgo1lprojix1mrt5HJNIigzzIM/xXXN8Kvp+2XN6lV33fWRI0eO9vUP+IFXJxeFCAFkgsHhuq6j4piPdh/vPnEcFQmjUuR5buD7ApiYxBjD1kRxQgCWGYlcrYnIVgQz67xwRIjjsBSW3vue97znttu0UvXWJ5YJ7nrVqwJktIYRpSKrUU+nqnYYEIAZahd3kZT0VLXJ1pbm5cuWCEKSJPWIGSulBNzde/b8ry/+w0MPP3rL27Zs2rSpo709k/EzfkCK4jgZz48NDg4fPNi1detzjz7+5OEjXcyQCfzX524R4VkmCyAy2MmgRK3UidpNI4KwwAx8W9UhAIBA1dvGNOW04YhooIGGo6GBBs5BBH7W9zylAAVNTBatTkC5qLSgAUIRQmthQgaRYiJUhIiABCKgiIQAlShG18UEFRADUYys2Egi6AgSmIRGLRRYhgXmCLQiN5O4pFAxIoiVkrEnrLCr52vlIAiA4pQWDi4CEZYNDpXiFkc1KaXTPG1BMhOGh7A46ESjA12//9mSzde1Llw2a8FMhmIcOQgawEzuRRgQgQWMEUFhEGshAUfIUZ6jz5lYzXRI7cyBwZFf/u6JfMzrNl2ydMnCpXMwO2WrFQn09Q0cPrDvxMGD48ePlguF2NEKwCTRmosvXrfxovQ8bx46Q8UzINamlfOq5T1XCvsBIiARAiLSFHKuVIy3GU8VR15pahMAg4gopVzXTennJz+s8NjXrlu7ceP6RwcHmSWNqFdvBRE9z7PWvrBt2+49e3/5779avGhhS0tLrrm5KZOJ42RoZKi3p6/3RF//4GCxmNdau54vIsyv58mbqIhR64sT5nItxkTK12ZreJbMEmZhaxDrcVwQgsJaPPVUNBER7/rIh194cdvTz2zNOBpA0rtT9YsAQMyMSL7vM4BYE8cmSYrGWAZxtfY8TztOaiumXDTEVxnbzBNCOXUBXxcZPPUUvOPWt+/ctedbd387DGPf91NSRp1tVuQ/lOcpABeBGRBEjDH5fH5kZCSlgTiO63kuIWqtncpl2pkzOJIkKUfh7be9+9Of+q8d8+fN4E/woQEAACAASURBVOtY6XGtA40xRIpmRUKIUJCkjj4iojFWBKdzZhGRtaIUXn755kULLzjR3VNnF7RSyvfHxsYeePC3zz3/3PLlSzs75ueac825Fs9zCsXi4NBgz4ne3p7+wZHhJApd3/c8nXJMXs9LUmp7IqdeVrUzSeoUYGtFO26NZsECACLV8RSgtTNwNdZoV8QYK8LpIz/9YelMnSVhqgYaOJ/RcDQ00MA5h2zQ1JLLOp4iBMNiY4hFHGPdAD1fCRNzaiWxWIEIHNIxIRJrrdLYLBI6SEKaNCgWEQYW0YgsRkBZRhDFEgsbtEMs44w5su0W5rFpYnQRAQkZE+bjJklcucBVDgMaIAEjIAQKICCIDY6VrVGc1UojADOnohKCwCyojOiBXc8f2/pwy8I/wlkiNSi2UZQQomIbA6RbEhZQBAqJLRhD1irDYoAsKhHkczu2kFo4URTe/8CjB7qHlqy+eOnyFUvne61TVmgLMDw0evhA15ED+4aOHMqPDITW2iADIk2ue+XV17XPmz95qrN2JWcYAgBgxFibTCkCV+PyrRWwZsofZntuVBj3RMSnMtXTG9Q5f/7NN17/wrZt5VLJ9/16ToyIjuMopZIkOXioq6vrsLVMlBbAA5rUllTKD4KK8MTEfJjpxBAQZpZauibCqW+r3rPO3o6fE2sJ6hEUZAFbT3QxPdWypUv+4EMf2r//0MjISCYTiNh68gsQQWTCi6KUVgpcVyMiAytRDIx4smTg1D6nf0yShJld160tUCoAr3fKps6UwPf/8P+6q6+v7/6f/zwMy65bL9trciJNXgilBjqi4ziO1jyR/w8iJxUup9pj9c3AiafYGFMslm5+25bP/8Wfrl+3pu6rBADAVOsSqs3M1MvIbGmWEotQAAnYiobqWoGAiNYygOjpm04Jbpdfctnlmy+5/8Sv6k+IS9lP1rqFQmHnzpd2wksVqYv07mDKBSKiIJtBSMk1r2+VEJGTiqenPuIV/+Iad4RARGySVCQQpq/FwyAsqfp1HZhNR4O1xhibPqbTjRWmlIbZVoZooIHzEW+WwFcDDZxHyGWbWlvbXE+Rp7RDpFEAwkiK41zMG2sYUADExGgSMYlN4jiJkyQBM/HSJ0RBjVopR2vXU66rHFe5DroOaYe0RtSAGkmBq5XjKnFo3HGPKGcfqiOCoxaMYWCLhjnhnlJyrGTKCWsgF0AzqAQ0gyPgAWiGcsRjpaQcGbLoArgAigEBiMVTfjw4dPTR3xQH6o3J1ITj+UAcFotgEkawVlAgjQUSAgKgWAuUWIgSZUAbY1jOXUfDhKCf2F89+NTWXV3tC1csXblu+cJsZ46cSkREAIbLydGj3Ydf3tu//+Vib3epHIZE4Cobly58y+a3bL4M8M1FZwCASUK+CNQpYo9Vke6z05+v+ud0P6dD2hwhML16k5uSGgDg6quuXL50aRzHde7vUxsvpTb4nud5nu97juM4juO6juO4nue7rquVmpwGk8aeMaZYLEZxnGrLVTcPkAhTRkMdFPA0Glqz8zARhJ8dL5i1FkWIqPqER0QkYqnNo5+K22679V3vvBVR4jhSiiZ40DVw8r5zBdZasWLYCJysBDn1RotIuVxuyjZtufH6lSuW19cQaIQJ/d2ZI219yaLFf/nf/uzjH7/L97xioZQ2ypW8hrqu85VXyhVhUkRMHbssk39+xVfq6WMaLi4WCzdvueHzn/vchnVrZ36dUEkvqTGD7QzcZLVAQIgiFqj2vRGpITCSeoVyzbnrr726ubkljKI6e5GuEkopz/N833dd1/MmVol0qfA9L/VXTgrfTt7NKIqKxWKSJFN0oKbtX4VQUHUlmfKrTPyhynAjIjIIKFXjvJC+0WvfuYkCxDJLGg1s07W61ns2fRA4LWrbQANvZryptqQNNHB+wHF1a26O6zmOBs/Tjq/9gLSDlqGUl9EhUyqY1FgAAZPYMExMItYwV6ILSESEoBEVKUWkHXJQOdpxlOeidrXWaSwQAVApcD3wHAJPjXvuUdd9WakjiGMgzOJYAcP9YXIsTIqJVQwOoCNABpQFYnCZNJNJJF/mfMjWimb0BBQDMmh0iGlw1wsDO7YCANC0lfzqwQQH3XECV+VHR8uxYYGKXgUAgFJCRCwsgmzQMDL55TA2kal+5rOIdBV+5Mmtv926u3XO/OUr1y5bMnfJHDcz5Ziitd3HT3Tt29e9d/fokcOFQr4oyEEGhOe0tlx70y1z2zvgjaR8n9dA4Kqb0jS0VE90Kd0+ElF6fLqTrv4z3Y1Pd/KUTHSKLiMCwPr1697+tps8zyuXy3Vc56Qhl2pPTjgdUgF5pVRqmbzWNki9DNp1L1jQ6fteHbtkIABrhUWqbtARACxbApio+1K15wJWZlMLklKFjdqrCc9Yoj7w/U/854/fcuvNcWKiOJkc9nq8AJNGNU0BTnFDQEX5HwCMMcaY97z7HX/22c+sX7+eJVXGqNaQABCAEXkD6ygAwOLFi//iz/7ss5/5dGfn/FKplM6l+i9z6pW+1otAQIQ0I//C1HaNSQrFwhWXXfb//MlnN7/lohlfW913WxDF2tmUSq1P9GIiC4WletPpgNx4042Xbr7YJGayemiNk1e8BpPcE0RUamKVQMT0o1d9i5mNtc3NLZ3zO5RWNVcJAkAGa+vy4df/0FubltiqcRiLIEs9941nItFSByaSNWr7HYFYpMay2EADbwI0HA0NNHAuorW5zXNd0qQd1C5oTY6nXU8pB4zhwpgdG0nKpcQawwxWxFg2hq2xqfdeEJFQAxISKnI0OUppR2lHK0crneqUVcJrhISoFHoafIfIUQXfOeo6L2v3ENEwALI4hsdiORYmI7HVDA6AA6AZXANaWCM4SCQQGVuIbNEIW3EsuoY1WzfIFAf6jj/3BNe3T6oOnihf7w2PDJfKoQJgsJPvfUIgTSJIgEzKMMbGLZaSqFx8402fPjzz3Iv3PbytycutWLVu4bJFyzv9lilJEzFAb//woT17juzYPnDwYCE/VhAxfuD6LnJ4+ZVXXXzxpWev7+cAMDU3aybS1wkRQSIhEiKs+jP95dQnnzSciJBe0zcisiIAcOedd960ZQtbNsbCK3nm02Ea4+7kp1P7kP6lHIY33XjDpz75iSWLFk0tpjBtcymdoY6guQhbsQiANWOGAtbOoiobINbnt8A0kVwAgOueBitXrPgff/nfP/SBO1ytwzCc5ArVb4e/FhW31AQRxhiTLxSvve6qP/7UJ1etWRVGEVtLqgZHAwCQAKq7gOpDW2vrpz75if/3f/zl+vXro3LIzErryct8o2evG1OeFCKiMAzz+cI1V/7/7L13nF3Hded5TlXd9HLofp3RATmDJMBMAgwmKeYkBmko0ZJlS55VcBiP19qxPRs+szsz/njsGVsaaWbttWTJppMkW6YtkRQlUYyIDTSA7kYHdE6vX343VtX+cV8/NECEBgGQkHW/f+DTeKFuhXvrVZ0653eu/83f+Dc33rjryl0UAEAIj19MctbzI0CABEQ/ec35ru7HVxFJzzvU/lhkMo2f+Pnn167psSwbVuZ4cm4T0Kl3azVZcvaxbVth7GMf/8jjjz1i6Eb9Eue5lgCQYkU2vBWFtNXgkteCWc5zDwophORkJaXKJbmZy8aKMrX4DhxB7ERAQGBoCAi4GkkkUpqmIOFUIZqCikJVBVSNKBpRdYIE7Aov5XgxC9WSZ1c91+WO7QlvacEGEgkCAUpBJYQqhGlMUQmjqFDC/MMNhRICCBIF8acCREIIKhRVRlCnJYONhbQ+VelndE6C5Lzi8SnbWbQ48YBxZBKIBAagSsEkKIJQCcKTts0rnqy60hWSe5xJRjwxse+Nuf5egEuW9hYCAOKxRC43UyjmuQAhT51nK4CaxhABBQCqnDNHsLJpl8tFWJbX46qi78jRv31lvyKU7rXrmld3b2iLNGmnVk8ewOxiefjYwOihQ9P9R4uLC0XXqxAWSkSJMNvbW3bfcXcsFv0gG/BB48sEnHG2LZfhS/qd/tp5AH91LYS/pj/Pv/U/5PIr+hVARET//JCfdalOEQGgo73llz/zizt2bLMtExEopZeyla21vb55Q6BUWVxc7Onp/tQnnt+z+3ZV1Zafi57zifA13VeynhYgL7StgvpDf2FP9pXie3WglOTcWw1Zi63wU1tSALgod6quVZ2/+W9/7SPPPm2EQ9VyxQ+Sf+/mhiXJAEqJlLJqWcVSafvWrZ/95c+0NDeXi6ViMb+iMgmRNXvrZdgfK0x57JGHfvuLv3njTTc4jlOpVGDprrj0+3Al1E0MlFLPc0ulkqZrzzz95L/74hdvueXG91YmAtIVdA4iAlwufQYAqGU4QfJuu+JZLu2nSlpBbBIAwJ7dt33qFz6RTiVt21IUhkgufWzq229EwrkslUp33nnHJ5//2Ib1631bBtYycZy9hug/1CtUzyVkJfos/hUR/Vins0w/9ccXeS1g7kIF+mVeNluSBOn/kpynvKWRIbUaBAT8bBOIQQYEXI3EIglN0S3TopRwIAIEc3wtewKIHKWnSOEI2+WOI6tVDqjRBuRSCCEJgu/1SFQqhORCUgHg78c8QQgnBCkBRtDzf4fRP+H0fxEZEkAADVAieBRNipMeWVBpyuUZT8Q9KYUDnKYJVQgBQgSXwuOIUkgkEjyOQoLgnEtwARGFkJ5H9IWjR4783TdiHV2hWOpSesZfizSkG61ycX5+1vWACX8FgwigoQypyBQiCRLKPCAuaGWzlM/n/PwCK5fUuqLUq9E/OPSNl/cTEzrXrmnsXrOpLdYeruuISQGYK9tD/ccG9+8fP3p0fm6u4npVRC0WURkoAu/6uQc3bN7+QbbkakBCLenIMjGzU6d2tSDdiynsoq8uayHhZyaPEAD+Xvh8+9ud113zS7/4i//3f/xPQyMj0XCYUcqX9njvIRamtnPzY6IActlsOt3wy7/0qZ3XXnPs2HH/cP78JSMiSgSQhCBcSFTeqy3iL1hPAoAEV+D4sDLqu2DfD5ycw7nDtwchSLwodfwlMo2Zz332M+Fw+M++9o3p6SlDD4UiId8YdJr/+Tl688zNIEFCiG3blmnpIeOOe+75xM9//OYbbwQAwSWKFUUZ+FZhLvhlFDG9/bZbMo2NX/7SV7/9j9/N5nKRUEjX9eVtvLwxWWd0CyEEEavVqgS4ZseOj37k6fvu/blkIvHeL4CkZlxc5iux9N4Z6qaCMSa8yxNIX/epFwBkyXXlnHVEAhI5d1dY+NMffnJsbOJPv/a1UrkSDoVAQv3+u9jRqfc/IYhIPdfJ5fI7r7vulz/9qXQyValU+YV8D6WUgCiXsmtfmKWUP2eOiD9bLvtFRkTKyLmDRGrDx1fqo1Cbm8hlsjQIKaW4gHDmqRfrrg+BY0PAzzCBoSEg4GpE01RGCRKJFBEIFRQ0oQohuHRdCVyilJKCENIxQXJIRVtiMWbxeS44EooS/UzUlPqOnAQABJdAKNZicSmgJIhcCsGJlEIyREBCJYIEJACAAAyAUfQIcQWdVWjWEzFHphw3J0SXlK2CGEBdQEdSIjjxhd0l+MGn/kGvlFIKLpGBbQ9/79vJHVu3P/jxS5932lpaCcLczLQQjiuJkP5cJhhCRKWqwgijSFUJIJBWBZueX9zmcXrh7ObvB3Urw/DwyF++vI8XnY7unsS6jZu606ti6IenCgAEzJveiePHB/YfGO87kp2aLFUrZQQMR8LhkLAK191866177mQXlKn/Fw8CIpVi+SGfAADOiZSitlVekiG8EgdMhBIOQNAXeDu1BPbDoQkllFzgln/g/ntcz/nKV/7H4SN9jDHdMAgiv8htXv26TFGkEJVKxbLs1taWT33y+UcffhgALMcRUmJNO52fSnCwlAtGLpUjhCCEMkYvnLdSCCkEUJSAp4nEL93lvmc2SokIlFB5mbasvp7Au18XQvgyG/UXQArGGKHvZdaRUiYTyU9/5lPd3V3f/OZfHOw9XCjkGVN0Xfd7T0oJ7w55X+Zt4O+i/WNVx3ELZllR1Guv3fHEY4/de8/dra0tvpYmkNrZ9kpiZ4SUkl+O2AmoXZEQsmHDui9+8d+uW7f2r779rcHBE4VCQVVVwzAIIYJzTwi4HEKzpx4NQggipZRzXi5XLMtqa2t++P4Hnn72yS2bNl/iVRCJBPQ9bXCZPUYIQXxl1qXHChEpIZfrvJsgMsoEFxROS65Un/CXSyci+jl2V9qlmqb+4i99gjL6l3/5V3MLC7qmqYoiAS7SGFQbAd+FxHXdUiknAXbu3Pnrv/LZ7Vu3AIDL3Zr8Cue+qGS9GfVGoZ9ACiSjhJw//KP2eQJQcyyoj8hSqlSyfEQIIQpTTl3lHIiawGPNeevUJ5edJPhqJohICL1cjlQE0E8s4nux1bvkXdMOSCkURhirqVpeDccbAQEfCIGhISDgaoQpGhIqUVKCKAhRED1AIgVBwoTwwHOBI6ESObcjodCNO28iijww8H3Xc1ESVCQQlASIRAISKZEAhHBExJo7oUQpkVCC0uMcJQARnkSQBBkgCqz9TAMAUEBKBEfiMJxTIKeQSe6NuXI1l+uE1ySJhqSKhAtJBKAEgeBbGbgAROAITEphGN7EdN8Lfxru6dqwafcl9k9HS1s8ljg5ftItl1CPup5ghAgkCBDRIBSilDLCNP/Ur8q18dlsqVxMJNKXPDKXSn0hNDQ88o2XDlRz5qrOrvD6DVs7G9bHkdFa9joEUnLFUP/xgf37xw8dnhobzlXKFS6FoceTMXQrqzpXfeihR5syzR9wez5gfGsaYYqvdEZrwQzoe8sLrNsWzjAynAoavpjw4bPjK66hWDq38wUll/z2CbmQ9qKUkhLyxKMPr2pv+5M//fr3X/p+qVSKhEIKY/yMk/MLQRmjKB3HKZbL0XD4zjv2PP3Mk3tuuyVkhAFASkCQTFEYY6civf1Ki5oFoLY0R1RUhfjOIOfdwCCgoij1vXS9phLR/99Sjk1JKaWKcrkW3ARRYSqlVEoQwhXLnJl9N5LaxwihlCkKe1fqjxXhtydihJ547JHrd1736o9+/NLLr+zbd3B+YYEQNAyDqpRQQuSZGwlcUlUUnDue5zgO9zghbN3a1Q888KFHHnpw3bq1tdpKQYFyX2EHkBBfKPCCkediJQk7VwIhNT+vxkzDpz/zyVtuu/mll1958623jx07ns1mkZBIJKIqCuf8XMEU59kQvvvzhBCKiIiO5xUKBcfxYrHwzTfv/thHn9mze08k4t+ol5Sjl1JUFCIJIZRKIQlw//ZAxFrOS6gJQiASRim5TLZaJMAY9QteHgPl3wz+Z/zcn4jIKEEkK0hPsYSUmXTDFz73r9es7vnan/35/oOHXNcNhUIKpRc5SxBFIShlpVqtmlZHW+u9993zzFOPb92ypXYdAUhRAYUicaR71lnC9xmjhCiKshJnASSE+lo1lEo/5Eye8gsAf5ZAxLqE6gqUFyhTqMfPkBSpTzuwlL6UEKIoGsHLZo5XqOKBRynlXAgplrrktGnHN2ApjK3M3yMg4F8ygaEhIOBqJBVtUFVDcAEqICPAOWP+oSASJIJISqXrCAB0XTBC6o7N14RD0cGx/bnyBFUVQpGAJH6aaUZB1swKSKSkBIVEDoiMEo8DQUIogpScA6Dk0gWCQLAWQEokIEEJFIVgSASAp5ASVYpMTnI+5MmNjtzsQBLQA2EBCJSMEwFScIEIyP3oTMGRUMUw3zl06IUvG59t7Exvem89U9PHampqbmo6eXIiOzeXbAvbghpLGyJDhWhYUTVWZSqhqoKWJMb0QmVyfCKRSH+wBwty6VTwWP/AX716xCpbHW2dsdXrN3en16bJ0mZIIJAKl0P9g8cOHBg7enT65NBioVCV4ClqNJ1QiRcOa/fe/8jW7dd8gG25OpAAUKlUioWCaZkAghCqMIWQ2rYClqIW/DPm2q55+YIc6++9618491unfQB9R+LaeWUtHYAARA7Auec4luuczxUZlzJl7tp5XVtby4b1a7/99/8wcGK4VC77KSwpPbWYXr6d8M0oS4kyiBC8UqmWSmUjbFx3zY4nn3jsQ/fd09LcDEs7N9uyisVitVolhCBBVVEACNB6UgYuJfrRWZZlVSqVheyix7l63kemYprVqskYURSVUsoUxU9AISVKEMAlR0AAzoVpmosLC9bK8mtckGKxVCoXDMOghPltIYQggp8pQ0oO4KvrQ9WsLmSzpXIZLv5csb6NQcSOjvbnPvrsPXfe+aPXX3/11R/1Hjk8PTVjVSyX81r4ufRNnSB4LWkJY1RXdV3XGtKppqaWTRs3PPihe2+46XpNVeF0EYR8IV8olwEAETk//45RgESiqpdre7zUTCElEkK3b9uydcumsbHJ115/7Sc/efNgb+/4+KRt24ah67rOGCOIEoSoCaOcxZ/jbIXXDqullI7jFKtVLmQkbHR0tG/YsH737tvuunNPV8cqWOrqS4zU8DxumpZZqapMU1SFIFMJQYqEoJQgOBeIIATn3PNcyzYt6/Lck4JL07YrlZKiGoTSJaeNWoP8SA4hAFFwzjnnrmM53kpDJ/x5xtD1Dz/x2Oqerm9+84WXXv3R1PQ0ATQMXVXV5eaMs80S6PuRcO7m8wXLsRsbGu6++45nPvzhm266IRw6lePIrFRLhRJlVNVUygijSi2njFw+S4CU0rSs+fmFYrG4gp7hVdOsVExKVcooY6xugJVSCj/VpxBCSNdxLLNquc75CzTNarVadR1H07R3TTsSJOeyFqxhWZZpW5VKeaX9fF7K5XKxVKCUUsoopfVpxw+UqU87iGhadja3mC/UxKGukpjNgID3n8DQEBBwNdKcak6G42M1b3BBkCABX2yBoCCESCoBQXIKRIaMUEu6ZfXqja++0zXTO4xIJdXQX98QAZwACqSUEE6J5MQPFUZCpBDCsq2qbVKCmmowVRGgIHJJpJA1H0eBEoUUUJN8I7VdFgoCFtJ+IseoGFTEjiqs5yTMhUXRkZKARAQi/XPGmsVf6oyUZf7FV/Z2ZZSnvtAa6n7P/aMbaseqVT94/a2TI4OxdKNL40IjKJEghJhMhFlE18pMYbrBrZKq6YvV6pH+0bVr1qpG6IP6yV86phP7DvX9zWvH0PY6W9vDnes2r2nY3MDUmk8vSCSmgKHBE/0H9k0cPjI2eHwmt1jm4DEMN6XCBpPl8i0PPLT7zruDhYu/iDZ0w3W96clpVVdBIDIkNY8GP3ucv++v2xzOCVn2Mb9nxbtefPcHlgwPlAAHQC79x0MCBYWqpVw2lUx7K1CJ92/L1pbWT3/ml6677ppXf/ja3n37B04MLiwsCC58X31WSwqAiICAnAvPcwX3bMcxTZNLGTZCmzZvfPiB+x984P5NG9f7hdejxUMhHRFnJ6dzkRBIoGRJKk0CIAHJJSAgEClNx9FVTdf0C274KIV8IV8tVzVDk0JSygQIsmTTEVLWD/cty0o3JBVFuVCRKyIcCZfKlYXsImVMCkkoIbUTUgAkQvreASAlmsWsEJKgf90zQvRXhD86/n6xqaXpw088ds/P3d3be/jo8WPZuYVCqbSYy+dyi7lCQXLBGJMSVVVJp5MtzU1NTU2NDZnmlqaOjraOtvZwOARLJgZ/4+0/xdMz08V8vn4mep6NNucgJY9EDFXV3lPPnQuCCHXBy66ujq6uZx95+OHeg4d++NpP3nrnnaPH+mfn5hClrhmKwihlhBDGmL+TBlhS3fN3elDTXxVC+FlOOOemZZuVaiQe6e7u3rhh/fYtW6/duX3Llq2JJS1beSFdgxWCBG3byS/MVqpV37OAYG03iMvMgkKCFFLXVO5xz+FUJZeYjFBKCUIWS2XHKRiGzrkAArTmFYSn9DulpIxWSmXXcdyLybtct0hee801nZ1dt9xy0w9//Hpvb+/IyZPZbJZQqqnqqRHx5z6Jnudx7nHPM23bsW0kNJGI33zTDY8/+ujdd96RaWqEmnlU+gZNI2xUTTOXy+mG7j9ZAIAAXAJderJ8r5BqtRoJR1TtfPfhkiIDlsvV7OxUqVzxZxgkVEoBSFAKf9rxFwu248Ri0QuKRBBGKpXK7NSMHjakkJQS/8H2sw4Lyf0hRgDLstraWnzT3qUTjoQty1nMLSqqKoUkFIlvXDzLtJNLpxKUKHC63Scg4GeNwNAQEHA1Eo0nkokMIvVdL0EKgf4ZAEigAEJKghQER2JDS3N7OpVJRBNb1u482PemazkKUTiVhDIiiSQSfDdblIiEEiEBkCASwjS2rmkNoDKXnSoU8uVq3pcvIgCMUqooCqOEklp+PoJcSC78JQEgSMKlQqRJyWEmpxR50oMdZWx3pCqlRYgrBUgkQoDvQI1CSIEqJXPu7D+++EZ3+rYbfyGjtb7nLtq0cdP3Xv1R//H+Vd3rVUXx9ChjCAAUMBmmsai2mNMcxfBUXZV2CfQjI/NbR8c2bdxACHkvu41Lo7aAFu6rbxz8zhv9UYU0t68Kd6zdtia9roGqy87PLS6H+k/0Hdx78kjf2ED/zMJcVYJgVE1FYzHdXcxee+2uBx95PBqNvb8tuBrxu+2GG3f9zm//bxMTE5RS7nm244C/aYFlaczfl4TmBIggkiL1HSoIJY7rtbe1rlm9+sLfXTo8Vxm95eabrt+1a3hk5Ehf38FDvYf7js3NzVVL5XK1WjVNwV3BhUBUGQuHw6lUJp1KpVKpluam1avX7Lxux46tWwhjsGxD6+/d1qxe8xu//uv9A/2EEekK23VAogAOcilenVJEkEJKgFQqdecdd/h2gXebtOqv3H3Hnd5vc9OyCKJrO57gACBB+mVSSgkhfj0Io+s3bFi/fv1l6eoPP/l4cyZTKpcJJY7teJ4r5dJ1CVLip/wAABRCbt2ytbNrFbw3M8NSe+tH94SQeCx6260333brzSDBtq1itZLL5Qu5okCuMpUAKIqSiIf8uAAAIABJREFUTCXi8UTIMM4oyt/M17fT/h8zs/OWbVN6vptUgqzHpzQ2ZC7X3undzYQl/YJoJHzLrTfffMvNw8PDb+/dd+hQ79jEZKlcKhXKxWKpXCnZtmVaNvc4IpcSfaESP5yJUUYoEuL/jLBwKNzdleruWrV9+9Zrt29fv3F9Y0PDqZAlCUKe1i3vDf/rHR1tv/qFz46Nn2RM8VzOhcf5kjAkAqMECQUJCEgZjScSt956C2F46TMEY+T+Bz6USiUcx5FSep7HXY/7UxEgQaSMAgACIGNEwuZNGzOZi4vmq1sk06nko488fNeddxwfGOztPXzgUO/g4IlCPl8qVyqVquu6QnhCCCBEU9RYPNaQSqXT6XQ63dbasmHDxht2XdvV1emX6RdYv/fuvuPO/+t//52FxazCqGO7nh8ys/REIyJjFJYSSKxZs2bXddeev8IAsPO6a3/nt3+rWMhRqjiOKzyPA0rJ/QBNRhki1meMto52P7Do3TdDfdq5YefOf/dbv7mYyymM2bbti0eeXklWE4yl2LWqa9eu6y+qn8/Fvffeo6nqwkKWUOLYnuc5IKU4Nd3Vph0/o0dXd8+mjRtgmSdjQMDPIBhY2gICrk7+8E/+z7958ZtIJVUYCEFITVFpuQaa43me5T12z0c//dyvhY1w/3Dff/l/f3to4kgkGlFVphqMUJRCck8icI+Dx7n0wPOE64hSucKQPXHv8zdeuzubnxufOjk3P7OQm8sVsvlCrlwq5Ev5XCnrOg5SUBijqFDKGFUJQwJEgpQgiJRcggdSUhIylDZC1he8tXNOo4cSwEYUKFGCFEIgCj+e0RKeAaVn13Xc9+jtPc+kE+3vrX8O79/3K7/xG61t7U999F+t2bihLdUYDukAgAhVAQNz7vETC9m5uWphvlKaK1lYKBR2b2t96uG79ffdqcG3MgjHe/GHb/zjW0dT0XhXR6fa0rNpTWpbA1MQ6/74ZS5Hj584duDAyJHekaNHJ2emSoK7RFET0YZ0xF7MdnX1fPqzX9i0Zdv7VvmA95kzbk7bcUZOnlyYmc0Xi/lCsVypOLYthEApQ5FwIpFobMxkGhszjY3pVNI/XauXA4EI2VXDWYfDH2vO+X/4f37vT//s61IKXz7jrPtt/2TeFW6lXP3yH/2Xxx555H2usG07C9lsqVjM5wuFQjGXz+cL+Xy+kMvns4uLtm1RRl2X25YTMvR0MhGLRuPJeDQaC0XC0XC4pbl5dU9XKpU+/1UCLkjdv6b+Si5fGBs7mV1YKBQqhVK+Yprc9YTnUYVFo5FkKt3U0NiYyTRlMpHIqSiJuiHyg2hEQEDAzwSBR0NAwFVKS9NqTdEdWabIPCk9DgylpHJJNgEAwHXtTEPrNdt2ho0wAKzr2bxz663j08O27SECMkIECo8LD6UUEiVIIpdEl/x4xpZMx45NuxCRc89x3IpVLleKlWq5VC3m8wuT05NTs+Nz2cnsYq5ULuQLuVI5V61UXMeTiExVFEZUqqqECQ4OiNlGlbdG5lrttnGzc85Je4AoPYKcEMkFIAEhUAFWhuihxen1P/6ha9/Q9VRb09r30D+r16/v7uw4Njh8YqC/sbkxGQ7rKqOMAqBOIBNT5tPhcilkWRFmF0KeXVbDB07Mbjo6sPO6He/z0goRHdP69ks/+f7e/mQk0d3eE+ns2bAqtT5FlCVtLQlQ9vjI8RPHDu4f7esbPXZ0cm66KJAzlUUiyWTUK+QyjU3PPPe8b2UIYj7/peIPa318NVXdsHYtrL3oZyS4PS4e6XFB/EC1c2NapsI0xmrDBL6XxNl6e3kKibMOh79XnJicOtR7yPEcTVEvkHUCwbPdhlQ6lbziurb1Cp+6FTW1rbUFWluWf0wIYVpmqVT1PJcSwqV0LYcqLBzSNV3XVEVRzu55UQ/TuNIN+ZfHGVMEACQT8WTioq3Ply6HERAQEHB+AkNDQMBVytqejYl442yu6IdaSkCBUqJEAogSJHrSI4Rs33jt1vXXAoDgglBy0zV37j3y2vDUMc+jxOGEIUjgXEghpASkopbdCgEAGGW6oQvB/XW1HtLD4XAm3VSvgwRZNSvFYsGsVspWdTG/MJedns/OZ3NzU7OTU1Oj47NjxXyBiwpRCLM0TUquq97q9GSHmDxZbB0rdS86aUcwRETCQXoEJBAkDusvGjPWTOzgj49Wb5BPdzdf9CIpFI5s277jYG9fX++RVT3dyUQyrBshRiUABUgasqnByC1GqmbVdRLCnUkZbK5A//mtvpamxrb2tsszSCtjYT777ZffeOvoyXQy09W1Ot3duaEr1Z3A+gJcAlRcd/R4//GDh0ePHB45fnRiZrbEOSeMxqKNiags5oyQ/uSzz950y20AIEVwDHUmNQnGq4/3NlJXbnxX3lErrMNKC7wCTVrhpc9/ZX/DNjsz++I/f39oeFgIQSkDAD/PwrK8JNIP+C9Xyk2Zpo8880xnZ/v5S17JdQHgn77/vb6jxyj6ip5nd2cAAF+Y33GcpqbGRCJ+3hZfTi7YxnAoHA6FL2+xl85KEoVeiWpclntyJVzRDrwSvXfZy1xRgVfrtBMQ8DNCYGgICLhKWdfVs2X99skfjZrElgKlkMAoCEQQQJAhcMdrz3TdfevDjclmgFq464Y12zev3Tk0NcA55x5yCQQJgBASAcBzPPQDtiVIzsOxcDySIIRw4QkphCs4en72MUCgQBAxbETCRmR5xVzp2aZdNcuL+YWR8eHj/QcP9x8aODk4PTuRyxcoYFhR2tekoCU6taY8ebLYOFluXXDSFaF7gkn0GEpGRc6kowV9bXKhfPT1w39qeU+tb7v+/AeJ7+bmm275znf+YfDEwMah0ebmTDwUVilTNQUANMTmmJJriJrVqus6XrWkkHzMYP1jxX/80f5n7g9FE8nLNFAXYGhk/Dvfe/3YxHxTc3tnZ09zZ/vGzlRXDOqS8RKgYNnDx48fO3hwrK9v9Fj/xPxMQYBUVC0SSSSiYOZVTXn82ef23HUv+kYmEhxDnYmffOGDrsVPAZe9oz7Anr+Mlz567Ng3X3jhxOAIoqztIfwsAbXw0lrcGqFEeB6ltFKp/uqvfC6VTLw3//O6leHtt9954S/+ulgqhwzjQhsnRETbdlPJ1PtpaPgp5YPa5v3LmIiuRO9d9jKDIQ4IuPqhv/u7v/tB1yEgIOAsKEyLxaOToxNTs7NcOARRCoESQaJEyQUnFO+++aEH9zyuKNrSEbdERMdzDg/sL1UKDAkKkAK5QCRSCOm5XHggJUiBtm23ZFbddcuDjalmj3NSy2CNiDVFrloieF8JSta0ugGQIlEVNRyKNKQya7vWb9+665ade2695vaYER8eHcqW8pwjk9iS0ttaoyITnmsMTab12SgxUVJPaJ6kQjBbyJQB65IsrJWrMzO5cYJGY3zVRS0dGhoaDvUe6uvrC4VCyVQqFArriqroGkEkACoDyZSSI2zHdRzOXZOC5Qk2Pp0n4K7pyNBz+PReIqfyjkvx5v4jf/dPPz45X2hr71m1anXHmo6tXYnO6CmDigRYLFYHjhw7fujA2JEjI/39E9n5kuQCmZGIpVNRWikD8Pseeeyhx54Mh8KXRZU9ICCgjr/nLxQKr/zg1cnpacYYWVL4p5QyyiillFLii/lLYIrq2M7Y+EQsFtm2bTMltJ6WYoWXqxsm5mbn/vPv/cFb+/aqiuq7S5yrEFmTBYZSqXz3XXfe/6F7VfXy5O8ICAgICAi4QgSGhoCAq5eWxvb25o6TA1MnJ09K8AgjEgGkJARtz2ppXPXU/Z/o6lgjZf2IGwEgGU8fG+gdmx4ilAqUwk8tLUAIyT3huwO7HndcZ8Oa7XfcdE84HBOcA/VTVhGCKBEJICD4SbLqkZxSiiW7AwjBpRSIUmVaNBJrbWnftvm6bDZ36Mg+x/OqjjBtHolrralQKqYpMc1rCGfbQnOd4VyDYcVVHtFESwTXxtWIpjK1ZGanssMCsTG2itGVLqApYxLl66+/sVjIhY1wOBIOhw1D05miICIFUBUUwCqm9Di4nhC2qUhe8XBofI4It7utkSkqLGlrXfp4LQmbISIs5oov/uCtf/7h3pKHrZ3rO7rWrl7burEz1macuhIHWCwUjh051r9/39jRwyP9A+OLi0UBwJRILNqQjIJZ9VzrrgceevLJZxLxJJxNiDsgIOASQcRkPNV7pK+3r48yxpZSNgKAb3yt4/+PMloqlwcHhlBAV093yDB8w4QQQsKyhKJLCN+6IIRvvPDfGh4a+aMv/fd//v5LUkrGaL0m56okIcS0rMaG1M8//9zWrZuvYHcEBAQEBARcDgJDQ0DAVYoUEhGbm1pHhyf2793vuZYaVjzpco+7whaC/NzND9235xFN1c9Y1GqqXjbLvUf2m15FoYr0QEouhBScc09KCZyDEB4gufe2B6/bfCsSlCApMkIkAUBAcqq0U/4FiIAol0wPsJSo2z9qE0IKQw+1NrX2He8bGRlRCHE9Uai4VFUa40YspIQpDRm6mg7xVTFzbcJel3DXJVlzSKVEAWQKtdz8zMKQaTuJaLuh+jnhBFwo5Vgmkzl6/Gj/seMSMBQORcNhQ9NUXVcYAwCVgKZRF5jjcE+iKwFFmUleteHE+Lztmu1NCV2vbRIu0VlACOHvSEDKowMjf/f9n+w9PGTE4m1dG9pWrd6wrmljW6hRPdUeV8rZufljvX0DB/dP9B0ZGRqeKBTKApCySCKabojxapk71u577vvwsx9tbGw637UDAgLeK74/gqKy7GL+zTffcBzP3/afVSrPd+8CQEpJoVA42Ht4YnoqmUxkGtKMMbJklgDfuCCkEEJK31sM69qHxWLp29/5+//65a/+8LXXHdtmjNWcyM7rzkAQS6XSXXfe8fF/9ZFIJHLWTwYEBAQEBFw9BIaGgICrFH/f61jWaz98c+DooOfYju06nmMYeiSUvHbjrc889HxHSyecbXmaacpMjp8cGO/n6FKJ3APJuetJAYhCSpAud7vb1j52z3PtzV0u9wggIUQCAQJ4WoFnlIzLXvH/9lfV6EdWNKYzhqEfOPTOfHbBCOvSkcWiJQiEo5qmE8pQEyRESMxQGtORdFNYD2soQXKJhDCmeMKcXRzKlXLJcGskFL+glQEAdE2Xnnz77b3FSknRNEqpbqghTVMNgxEKAAYFVWeepJYjXSCeBOBVDbyy7faPZxez+XTCSCUSfjPExdsa/KNK8ONFERcWc9/78d4Xf/DO1EIx1djS3LW+vatry+rU+iY1TpcSkyKYjjs5OdN/+MjAgX2jfYdHRkcnisWqRKYqsWQknYq6pbLrOnfc86GnPvJcS1PL+esQEBBwKfjRE5SSt956Z2pqWtO0c31yybMBEJExZlrm4OCJvXv3DQwOlqtVRVVDhuEbDsgpEBE87lUr1ZmZ2bff3vul//7V/+9r3xw6cQKX4swvOO0QQmzbjsSiH//4czffeMNlbn9AQEBAQMAVIBCDDAh4P7hgnrOzIAEACoXC7PisbkS5ZTOubt+244YbdzTEWtesXr9h7YZzfTUZbnz6sU/krOzeI69ZxKJUkQLBBQ4CGQUhQZCdW27pWbVeEkmkJJQKIShSiaSWkaKmtX56jWq6aO9eFktCiJQeoHLfXQ8fHez9yp/8cSFfVTRWKVuDx7PVgtPeHU80GMwAu+x5Jdc0Pea5EWEoYepQcD1JKRi6blN3fOHH9qHi9Rsf6WrZev7Vt789uH3P7a+8+tI/fe+lkROjuq5rquKv3BsyTQqlANBgoOgIcwAApBILSCTOJLFaqHivHRqZmMvtuWHTrh3r0/EEQQQpuZB++841Uv5oSgCQSGntM6Vyqffo0Bv7jw5PLChGtL2rJ9Xa3rmqaVN7tCVKFZBSAgIAQsk0T46NDR8dGO07NHb8+OjU7Lxp2hKZxhLxaDIRruYKQvJ7H3jgiQ9/JNPUfN4+CAgIuFT8CW3Txg17dt/SPzDoeR5j7PwZZP3JUNM0zvnQ8MjQyMjff/cf16xevXHjxraWtsaGVKohHQ6HAKBSKk9OTU7OzM7Nzo9PTo6fHJ+fn3cF11WVEHJBRyr/A4hYrZo33nD9TTcEVoaAgICAgJ8OAkNDQMAVx5cAqK8m/VDe5THAZ/2WBAkAs3PzeXMxmtRE0WhLr/r445+65fZTC82aVOPZClnfveWTT38uHWrtPXYgZ046nsU5opSO8CzX3rb+ut277o6Fo57HgSDKZStdUQ+YOK3M+oXOJo1OAAQiFcJTmfqxpz81PDry3e/9LdNJQ0PCsfjERLFcslrb4+2dsXijUal4k1NFa7KQTISbOyIhg3oAEqVCma4riirmiwd+fDRHlI93Npwv7aXf6lgs9vjjTxw42Ds9OW6EDEYpSkEBKKPpdCMlhAJkdIKrIgollCpIaIFQIHMEy7Rqj04u/sV33zzUP3bj9rVb1namU0lKT41U3bZSxz+qXP7KfDZ39MTowb7BEydnPFCSjasaW9uaW1s725Nrm4wG3R/p2oBnC6XhoeHRwYHJI0dGjh8dmZnLWZ5HUNP1RDwSj+nVXIEg3v/oE48+8VQqmTpP8wMCAi4L9Q3/k48//tY7B9/Zt49Sen6LcF2UARF1Xfc8r1KpHjjYe+hwH6MUAZESSgkBdDiX3BMgJPcTWUimMI3p4Os7XsjKAAiIWCqVksnEfffe1dPZcZkbHxAQEBAQcGUIQicCAq4gS+qABBEr5UqpUNI1ndB6JC/W1QHeDaUUAF787nf3739bUakUUldCd91xZ3NbMyw75jprILFPJtW6pmuTVYTxk9Nm2QTXs6qcaZHbr7/zucd+YfuWXQQZB48gAgIgQaidufvxwgCyHryw3JxxjiM4XHIrltFwYtWqrr7+w6OjJxlhhk5VjXkez2bN/IJZrbiW8IQgSAgXxPGkbUunyu2qsE3OudA1jBrMskQq1NGY7CJI33Wt03oYEdva2ovFwr79+8yqLYS0XFeiNBRFVTVVD1GCBCDEMBJSiKYCKlIyiQqnRCGoEWnbztTc4vETk8MTs4uFkud5CqOqop4uA3daZ5cte24hPzg68do7B156bd+bBwZns1Ujkm5u7Wnt6enu7tiyJrW+SYsrWO9HIeX0/MKxw30jRw6fPHhw4NjR0flszvUEJbquJ9LheDxUXMypqvr4M0899sSH4/H3KQFnQECA/2Cn02lKaO/hw/lCiVF6fumWZSq5klJfRJJSQqSUHvcsyzJN07Qsz3UJEoKEUqooClMYIWRZcppz4sejUSSO7UiQTz7+yMee+2gkEr38jQ8ICAgICLgCBB4NAQFXEH9nXq1W39m3/+0331iYX2hpbtq4aVNbe3ssGk0kYrF48lyWgsXFxVdfffmVH7ziOK6uGCoL5/OF4bHhHbu2AwAimqY1cnKoIZXKZM4Sw+/7/bY2t3a1rlLMCCs3AqnMTU93ZTY9/9gXNq7bALVdOpU1DwUpCSESJYHlXg1wupXhjBcBAGrGidrLQkhCyPYN137+l37l3//H3x4aHkRMNapMj6pIIF+yFxZMVZHp5uiq1fF43HAcEEIIigSAS25WqGt5saTRlFiTinUCMAkSzy3W4B9FUkqffPzxw72Hf/jam3o4BICe7XLOXS56hEinGxRFIQBpDbVmPRYi0ag6MW0o85GKmqVqXtGLTtUsVs1DfcN9AydTyUhbU6q1qSGTTiQTsYihMV8ek4Bte/lCeTaXX8gW5hZyuXy5VLUo06KxZCyVSaSbMs2Z7vZEZ6PeoJ8ykCBIy3MmJqYGjh6fHhycODEwPDQ8mStWBCJjuqGl4mFDZ8WFuXAo+sTTz97/4KO6rl/w7goICLjsPPTgfSOjw//zT75mmpamqRdUT6i7Nvj/9VUZGGNLj7BYMimgrw+5/IvnKbYuAGnZtufxBz50zy988heaMoEobEBAQEDATw2BoSEg4Erhuu7CwsLI8PBbb7/d29s7PTNVLpYBIP7yS8lkMhaNxcKhRDqdbGhIJ5KJZDISDuu6DgiVSnlsbPzw4SODgwPVckXTVARQFco9OHBwb0dHczyenJqePti7/2jf8XQi/cSTT+zctQsABAgCZ7r7zs3MV0pFBajLNfTU+dG5mbGFjesAABCBAApE4id4kFISCRIEAKAAIAR8995TVoaaPMEp04MA8C0V/qKZAIKUApHcc9sj+WLhP/z+/zE1Oc0FNspIutGIxFTXkdWinVuoEiJFB8YSum4ojCGlgiAVnHBHVMtOns1X3DwlF5Zm9I8c2zpWPffcc0Mjo7ML8wpTXO55nmtbru04PV2dTU0tum4AQIRBd1KJhWLJhD6RiMzPR/P5xXKp6FhFvVI1KxXTtnK56sJCqffYmKaq4ZCuKQpjhFEEKW3bMS3H5q4QhDCmaeHGlqZIPBWLp1OZ9KrW+Kq00RilxrJacykXF3Pj4yeHj/dPnRiaGh0eHDmZrVgWEqqwcFiLxw2dYW5+PtPU9PRHnrvjzp9Tz61FFxAQcEXRdeP55z+eXcz/9d/8rW3bKzH5nREWd9pbgMKfUCU57aPnpm7DpZS6rmNZzt137/n85//1urU9cIYNOCAgICAg4ComMDQEBFx+yuVyb29v/7H+mdnp0ZOj4xMTIGVY02mUWI5dqVTK5bLKFCTg2A4hRNN0RVEURaGKQhClFNVqlQuhMmYYOhCJUkoEI6z1HTkyOjTKVGaaZrlStEz7cKWXKqy7pyedTuOys3/fNDB4ov/Nt3/ieI4RClnFiqZqJ8dP/PGX/yAUN27YdR0iASmQEIJI6t9EAJBCCgkAIBCJn8YSzi5p6f8rlutESoGAEgk+dt8zjlP5b1/9w+Gxk5xzRojeqiaTajiqFAtOdsE2zcXWjkhzS1RhGgKjlKgqAV26Ds+Xh97o+7rjljevupNRtjyO4wx82QhCyO49ez42cuL3/+C/LczPEoTJKWHZTqVcqZbLZsVsaeuIxaMIqCI26xhr0TNxdbo5MjufWFgo5nOlcrUUsiquUxGu63rCthzPsS3HNU1HCIEokRFEqql6LJ40tIhmhEPReDgWb2hMtGdirUk1HaYhelotLceZmpoaHRkZGxiYHRkdP3lydGo6b9qCMU1TIyE9ElGRu7n5Ytfqnqee/fjNt97mO2xfSqLNgICASyHT0PCF/+Uzmq6+8MLflkrlUMioh0jAeW0Fy97yp8q62o3/x0ofat9RyzQtx7HvvvuOX//Vz2/asHGpqICAgICAgJ8OAo2GgIDLjOM4b7755t/89V+/+uqr/YP9udyiyz2UIKUUIAglkVA4HA6rjCmaouu6qiiUIBfcth3LNB3b4q4rhSBIOBeWaVmmXSmbpUrVsp18Lj81PVMul0BKVVFVRXUd13acru6urs6u2jJX8kqpMjsz+/Y7b/351792+NChUCSiMFYxTcEFU+jc3Ozk5JSuh1at6mDMDwtAKb3Z2em5+VmCUtd1RIqIQnAhkJBT53X+H2eEUSzXm6gFgiBIKRlVNq7Z2tzevjA/NTI+XihVpJCGocbihh5VAMCseOWc57qSMarpDIAiIqOEEMoQi9X58flB1/UaY52Kcr5D/vqlN23cVFxcPHT4IOecAC3bVjaXL5crQnhSeAplmq5TShFARYiqmIoqDUkjlQrHErFIKKaHYloopoaihhEKhSPheCwci4RjoUg8Fksmo6mmdKY53dDakGlr6mjv6Oro7m7e0NWwoSPWnVbSOlH9M0sAAHBdbz6bHegf6Os9OHKkb6x/YHh0ZGhqruh5qKi6ocVjoajOuG1WK+aW7dd8/Od/8YYbb1phrruAgIArSjQavWbb9nAkOjwyND09g4CKrhAkp0LGLvCUnsoEfJ7IrzrLDbX+DFo1TUbZg/ff/29+7fNbN2++lLYEBAQEBAR8IOC7NdUDAgIuhaGhoa985SsHDx5Mp1OWbU9MThEATdcRgCKqiqpqqqIw27Y5SJUyxigCIZQgIoA0bdOsmNVy2bG5w7kQnud5HpeAkjEaCUXi0UgkFlUUBUB6XFhVkwt+3c6dd9xxh6EZs/MzY+OT0xPjs3NzM7Mz01PT4Wg405ThDs/n87ZtI6LvftDa2nL99Tfu3nN7YyY9PjHZe+Dw0ImharXc09l1y603bdy2tbmplRLqeR4gMMpgmbbludped3lYMnkAEgSAw/37/vrvv/G9H/3TQnY2mdJXdadaO2OaoVarbmHBtk03EtbaOiKZprCuq4xSpIQS9AQvlaqea6xu3X3zpoczqfbz97xva8jOzf+n3/vPf/ed7xihaLohjUzRNa29o33Tup613T2re1Y3NbeEwmFFYX4NAaUj0XSh7PKS5ZWqvGR5VdOzLc9xXc4BpACCjDFGqaZgKKTGw0o8TGOaElVBo0hP30e4jrNYKExNzZ4cHpoeG12YGJ+bnp2aX1golS2BTKGRkBGNaCojlUJOSLnnjnueeOaZrq7u937PBQQEXAFc13vp5Ve+/NX/uXfvPimkpmmqpiJAPUBiuT7Ne2D5AoxSioiu61qmJUCu6e5+4onHHn/0kY6OtkttRkBAQEBAwAdBYGgICLjMfOtb33rhhRc2bd700IMPep73ta9//ZVXfgBCJKLx5vYWAVBazHmCSykJoqqqCmOSoGPZxWKpUq24HkekisLi8VimKdOSaWKMlgolwTlVmOfxilm1bQsBEEEKybmwLEthLJFM2J6zmM0Vi+VypWCaVYI0HIo2NWfisVilUikUikJwISQCeFJwLhilTU2ZkBGqVCuVqglSEBCRSDzTlMlkmm68+abde3ankmk4Z6aJs7Mseaf0j+gAoFTJ9x7d9/qBHx/tPzK3MKkoVrwRwykVKLUKXrUgqEqbm/SW9nAyESaUcQ4EpRBQLFdMm7anrrlp8+PrOrasxPt4Zmri93//D771D981QuFkKs0YA8ISiURHR+v61d0b1qzt6OxoaGgMh8P8jkGXAAAVk0lEQVQECSICSgCUIDkAl+gKcCS4HASXkkspASgQIIxIhUqFEAWBUSAglnQqa3WyHLeQz01PTp48OT49MT4/NZ2bm56dnZsrliseF0g0TYnoaiwSkq5TKOaTycR99z98/4OPNDQ2vIc7LSAg4H1gYHDoW9/69ksvvzR4YsQ0TcMwNF0nhHDOpZRCyrPNSafmy/OvsgghFKlA4XpupVwVwmtpar7vQ/c988TjW7ZsVlTlCjQoICAgICDg/SAwNAQEXE6EED/5yU+mp6dvuOGGzs5OABg4fvyr/+Mrb775djQUae3uKOYK09PTUnhAKAIqlHieVy5XbNvVdLW5ubm7p6e7u2tVV3dnR0dre6tG1OMD/Uf6+ubmZkvFcnZxIZ/PeZ4jpUBJJKLknHteqWKa1bLl2ihRU7RoLKYbatWqqlRNxBOIWCgUKtWKACmFlEJ63OMet2zbsR2VqZFYJBTSNVVXVQRJbNf1PKFr6vU33vjMR57ZsnnrxXbC6VYJISUQQgHAtKrZ/MzY9FDfiUP9A4eKxXGP2B61Xc9yLEqFEk8are3RlhZd0XwPD8V2wbRcy5bJ0Nrbtj6+set6Ss6X8NJnamLiD//rH/3tt77FVK2hoYEQBpSGwqFkItHe3rquu2tNT097W2sqmTQiYUVVkDAAQAEcAEAKBCl9+0PdNwMIIHm3G7QEV3CzWl3ILs7MzExNTs5OTmRnpvML2Wwuly2UCqblSCCE6IxGw1okrLm2XSqVuro7H3v8w7fvvssIhS6qewMCAt4vatIwtusODgy++OI/f+/7Lw8MDVmWRQAVhWmapqgqnK6Se7qaDcDZYs0IQQDknNu25douUGSExmLxnddd+9hjj+6+/ZZ4LEhjGRAQEBDw001gaAgIuMzYtg0AmqbVF6lT09N/+c1vvvzKK+FwmCCcHBsvFsuqSgkSyzIF520t7Tt3Xbfz+l2bN29paW0JGSF/8QoAAwMnvvaNrw8ePzo9Ob2wuEgIMQwjGgkzSoWUnstNq1osFQWXmUyme3V3a3NrU3Nzd3e369h9fUfGx8ZsyywsFhcLBctxHMc0q5ZfQ1VVNU1DRI8L7nFVYYlYzIhoxWLVtNwd27ekUsm9+w5t3Ljht774mz09q33BxZX0wLsMDQDAhQAkSJZyPnLuLRQnRid7T4wfG5s9MZedyhfzTsW1bTcSCW3dtLa9LclJuWgt2I7FPWG7MrtY6Wq87tHdn2tvXLOSaizMLXzpq1964a/+plw2m5oaw0YUKCKlmqZH47G25qauVe1dHe1tra2pxnQ0GgvpusI0SWnNwwEBfT8HqCmwEel7aACAkB44rlO1KsVieSG7ODM9MzM9OT87V1zMlkqFci6fLZaKVccSnFBFZURXWDikqRSq1ZLg4ppd1z/x5NM7tl8DS+oSK2lRQEDA+4w/m/lPqOfxgcHBl1/94ZtvvDk+Nr6Qy2UXF13b0zVV13SkSACQ0mUZixFgaYklfaOkK7iQEoTwKhVTSkjEo81NTd2rezZv3LBz53U7tm/NNDYCgJRSSrnCKTcgICAgIOAqJMg6ERBwmdE0zV8j1hUKW1taUqlUqVi67dbbrr/h+t7Dh994/fXRkRHHdpLp5PW7bnjkoUd2XLsjFovXC/G/yDn/9ne+9eKLL2bSqVgiTlXVsdxypTwzM6cxBSmtVMqOa2aaW2+56ea77rw7nWlwbLtUKi8sLExPjhdyBe7xUrFcrJRK5VKpXCKUxGOJVCrV0dHevXp1W2urwtj01NT+gwcO9/ZNzswSQihjt+/Z88lPPr927ep9ew+Pj4/aniskvDtx5sWAhKAQgoMHAAQpJawp2dUY69y05q5icWE2OzmXnapUFk2nYrD4qtb1iVi64izkykNla8Z0867nNkWxIdLDyEp9iRsyDV/43BeaG5u+/s1vTkxOWhErFo8zRam4rmVb+Xx+dGwilYxnmjLNTZmmhoaGdDqViIbD4bCuK6qmaEzxHRgQQQJwwj3ucOlwt1Kp5EulQj6fzeVyC4vZ7Fw+u1gpl8qlilmpVCzLtB3HkxJRURRNoWFNMzTmcrtYKKUbGnfvvuve+x/uWNUBFxmTEhAQ8D5DCBECpOSIyBjdtHHDxg0bnn3qicnJqaPHjh0+cuzE8Mjk5GSxULAs2/Vc7rrc41IKIQQgIvgPOCIhlBBVUVVVUzRF17R4NNrV1Xnt9h3bt23rWdOdTqe0JfvykqpuMDMEBAQEBPwUE3g0BARcfuqH//4fQoov/dEf9x7q/fwXPrdp8xbbtgcGBo4cOVypVDo7V11zzbUNDY3+F30Lhf8HpbRSqfyvX/zi3MzsR5/9SEdHmyeEaVaHh4dffunlA/v2VS2zqalp566d99xzz0033ZxON7z+2mvf/e6L45Nj2WzW456uaYLL/GJ2IZsFglu2bLvphhvXb1jf2tra2tqaTKVUVQUAz3WHR4Zf+/GP9u7dl8+Xtm3b+uSHn1izZq1fJc/zAICxizBKns2jQSxP7SaEkBKkAASklC5lqQAJQoKkeCpFJOfS5WVHVFzXY6AaWowqGl3Z+ttfrHuO/fIPXv3zP//zn7zxBiG0obFRM3QAQpAAoRSRaWooZMSikVg8Ho8n4rFoIhIJhw1dNxhTqJ/5U6DLueXYpmWb5Uq5UiqUSpVSuVIum+WqbVdd2zJt17YdhwvXH31ERomuMkNTKPBKucRUtm3bjnvvfej6G278/9u7mya5rvqO4+fe293zPJoRtkVsWfKDsA3GQCoigQVxUgZBKstU4arwDpK8jBRrsvHOa7JArJIsgr1xqIQSKjahkGUjFTI4tp4sydOWZqb73pvFyMMwkpNC+UXyyJ/PQouume5plXTq3u+c/p+5+bmd/06Aj7mtj0Psvv/v+0uXLr955syv3377/Wvvr43H169fX19f/+CD62vjcTdt5+bnhsNh6fvRaGZpaWnfyvL8/OL83OzqysrhwwcPPvro0sLCjie7uf5bFgC4DwgNcDf8/D9/PtnY/PwXnxsOd/5Cvt++/d51oMPWLejVK1eOH//hocOHXnjhhZ2Xnm++/vpPTpy4cu3qk088cfTo0QMHPr31+Msvv/yP3//+jRvX5+bmRqNhVdXj8dqVK1cOHHj4W3/5zW8d+4unn3q6Gdx+wEHXtefPn9/cnB448MDs7HwppfT9nQ1U77qu2jEicfvh3Y/cLAtVXW1NQshfW2/vFzh9+vQPf/CDf/rnf3n7nXeW9+1bWFwcjGa25kCWpmmaummGg+FgNBzNzAyHo9nhcDgYDpt6UNeDquqr0k+7zclkMplsTDc32s3NyWY7mUy6tm3b6XTSTdu2bdvSla4qpSp1XQ2aZnZuNKrL5o3rm5P1xx9/8s++fuz5r/35zY0Mt/ztAHvC7YvDh9q2m043J5PJjevrbd/Pzc5WTd2100HdzMzNDz9y+f1fDvQBgD1HaIC76tZP3v4Pl5gb6+tXrl7dv/+B0eg2Gwr6rqt2fNd4PP7eP3zv1VdemRnNjGZGpS/Xx++Px+NnPvvsX3/nO3/6/POzs7O7XnTbra9+cy/Gh1/2e10Bd10p5ea1+M6Hf/uTb489KOXDJ+53jU8r9c7v2NrA3NV1+X17RNf3dVWVUsZra//2438/fvz4f/zkx+O1G4srKwsLC8NmUNd1PWi2XqLuS+n7UtdVXVd12RrUUFV1qfqqlL50VV91fd93XVu60vZd17VdvzV5futdVaU0g3pmUA/ramPjRt+1Dx448Cdf+erXv3Hsc88+t31KqDsK2NO2V7nyfwgEd7bAAsCeIDTAvXHHl5i33qa2bds0zblz5/7+u98988s3FucXNtY31jfWr1279vhjj/3N3/7dN44dK3d9X+6uD1D87kpzz4ac/ebXb7322mv/+qMfnTz5s/fXxvPzi3OLC8PBYNDUVVWqvulLX1WlVH1Vqqpp6r4q9W9Pnqjavq+6ti9d13dd13VdX0qpq6qvmrrUVVWXript1W3W9eDhR/7gj45++Stf/dpzX/jC4qIZ8nB/2n3IxG3X2K50O9OptgDA/U5ogD1vKzScPnX6pZdemkw3Dz7yyOnTp95888zy0tJfffvbL7744vLy8t0fOnjbi++Pxw7h/q1z506cOPHKq6+ePPmzi5cuV4PB3Pz8aDisq7ppmrquh4NBX/V1aaqq39qY0ZeqLtXW9oWu79u2m7Zd6dvS133fDZpS113VdlXVLiwuHDly5OjRP/7SH375M08/tby0fE/fLAAA3G1CA+x5Nwc6XL169syZhYWFldWV8++ef+ut36ys7Pvc55/dv7rqaIPbunDh3VO/eP2nJ0/+9MSJX549uzb+YNp1VSl11QwGw2bYNE0zrOuqqgbDYVNVfVW1fT+dTKfTtm0nfemqrlR93zRl1NQrK0uHHz38maefee5LX3zqmc8efPjgaGbmXr9FAAC4B4QG2PO2P6TQl1J/EoLCnU6pvK2NjY13L7zzq7O/euP0G6d+cersubP/9e6F8dradDLtur70VdV39bDpq6qq67rvu1IGVTUY1PNzM8vLSw899OChQ4efePzJI0eOHD702KceenDJFgYAAD7ZhAa4T2z9X77/dy5Mp2UyKYNB+Z3zO+7ErmkX0+l0fG3tvauXL166dP7ihcvnL16+fPHKe+9dWxtvbm52pRs0g8WF+f2rq/v3P/Cp1dV9K8v7Vvc/+OmHVvetLiwujYajj3pmAAD4RBEagD0lFxq2fNRhdW3XttNpO9mcTCaTtuu7vq6q4Wg4HI1GTVM3w1LvbjofjwkUAABwjwkNwJ6ytWT9P2zc2J5eeWt0+Oifpd+5hEoMAABQhAaAW+08MqMvNxfJavuPDykLAABwK6EBAAAAiPHrOAAAACBGaAAAAABihAYAAAAgRmgAAAAAYoQGAAAAIEZoAAAAAGKEBgAAACBGaAAAAABihAYAAAAgRmgAAAAAYoQGAAAAIEZoAAAAAGKEBgAAACBGaAAAAABihAYAAAAgRmgAAAAAYoQGAAAAIEZoAAAAAGKEBgAAACBGaAAAAABihAYAAAAgRmgAAAAAYoQGAAAAIEZoAAAAAGKEBgAAACBGaAAAAABihAYAAAAgRmgAAAAAYoQGAAAAIEZoAAAAAGKEBgAAACBGaAAAAABihAYAAAAgRmgAAAAAYoQGAAAAIEZoAAAAAGKEBgAAACBGaAAAAABihAYAAAAgRmgAAAAAYoQGAAAAIEZoAAAAAGKEBgAAACBGaAAAAABihAYAAAAgRmgAAAAAYoQGAAAAIEZoAAAAAGKEBgAAACBGaAAAAABihAYAAAAgRmgAAAAAYoQGAAAAIEZoAAAAAGKEBgAAACBGaAAAAABihAYAAAAgRmgAAAAAYoQGAAAAIEZoAAAAAGKEBgAAACBGaAAAAABihAYAAAAgRmgAAAAAYoQGAAAAIEZoAAAAAGKEBgAAACBGaAAAAABihAYAAAAgRmgAAAAAYoQGAAAAIEZoAAAAAGKEBgAAACBGaAAAAABihAYAAAAgRmgAAAAAYoQGAAAAIEZoAAAAAGKEBgAAACBGaAAAAABihAYAAAAgRmgAAAAAYoQGAAAAIEZoAAAAAGKEBgAAACBGaAAAAABihAYAAAAgRmgAAAAAYoQGAAAAIEZoAAAAAGKEBgAAACBGaAAAAABihAYAAAAgRmgAAAAAYoQGAAAAIEZoAAAAAGKEBgAAACBGaAAAAABihAYAAAAgRmgAAAAAYoQGAAAAIEZoAAAAAGKEBgAAACBGaAAAAABihAYAAAAgRmgAAAAAYoQGAAAAIEZoAAAAAGKEBgAAACBGaAAAAABihAYAAAAgRmgAAAAAYoQGAAAAIEZoAAAAAGKEBgAAACBGaAAAAABihAYAAAAgRmgAAAAAYoQGAAAAIEZoAAAAAGKEBgAAACBGaAAAAABihAYAAAAgRmgAAAAAYoQGAAAAIEZoAAAAAGKEBgAAACBGaAAAAABihAYAAAAgRmgAAAAAYoQGAAAAIEZoAAAAAGKEBgAAACBGaAAAAABihAYAAAAgRmgAAAAAYoQGAAAAIEZoAAAAAGKEBgAAACBGaAAAAABihAYAAAAgRmgAAAAAYoQGAAAAIEZoAAAAAGKEBgAAACBGaAAAAABihAYAAAAgRmgAAAAAYoQGAAAAIEZoAAAAAGKEBgAAACBGaAAAAABihAYAAAAgRmgAAAAAYoQGAAAAIEZoAAAAAGKEBgAAACBGaAAAAABihAYAAAAgRmgAAAAAYoQGAAAAIEZoAAAAAGKEBgAAACBGaAAAAABihAYAAAAgRmgAAAAAYoQGAAAAIEZoAAAAAGKEBgAAACBGaAAAAABihAYAAAAgRmgAAAAAYoQGAAAAIEZoAAAAAGKEBgAAACBGaAAAAABihAYAAAAgRmgAAAAAYoQGAAAAIEZoAAAAAGKEBgAAACBGaAAAAABihAYAAAAgRmgAAAAAYoQGAAAAIEZoAAAAAGKEBgAAACBGaAAAAABihAYAAAAgRmgAAAAAYoQGAAAAIEZoAAAAAGKEBgAAACBGaAAAAABihAYAAAAgRmgAAAAAYoQGAAAAIEZoAAAAAGKEBgAAACBGaAAAAABihAYAAAAgRmgAAAAAYoQGAAAAIEZoAAAAAGKEBgAAACBGaAAAAABihAYAAAAgRmgAAAAAYoQGAAAAIEZoAAAAAGKEBgAAACBGaAAAAABihAYAAAAgRmgAAAAAYoQGAAAAIEZoAAAAAGKEBgAAACBGaAAAAABihAYAAAAgRmgAAAAAYoQGAAAAIEZoAAAAAGKEBgAAACBGaAAAAABihAYAAAAgRmgAAAAAYoQGAAAAIEZoAAAAAGKEBgAAACBGaAAAAABihAYAAAAgRmgAAAAAYoQGAAAAIEZoAAAAAGKEBgAAACBGaAAAAABihAYAAAAgRmgAAAAAYoQGAAAAIEZoAAAAAGKEBgAAACBGaAAAAABihAYAAAAgRmgAAAAAYoQGAAAAIEZoAAAAAGKEBgAAACBGaAAAAABihAYAAAAgRmgAAAAAYoQGAAAAIEZoAAAAAGKEBgAAACBGaAAAAABihAYAAAAgRmgAAAAAYoQGAAAAIEZoAAAAAGKEBgAAACBGaAAAAABihAYAAAAgRmgAAAAAYoQGAAAAIEZoAAAAAGKEBgAAACBGaAAAAABihAYAAAAgRmgAAAAAYoQGAAAAIEZoAAAAAGKEBgAAACBGaAAAAABihAYAAAAgRmgAAAAAYoQGAAAAIEZoAAAAAGKEBgAAACBGaAAAAABihAYAAAAgRmgAAAAAYoQGAAAAIEZoAAAAAGKEBgAAACBGaAAAAABihAYAAAAgRmgAAAAAYoQGAAAAIEZoAAAAAGL+G0Mu29pnxzzkAAAAAElFTkSuQmCC;clipPath=inset(34.71% 16.33% 38.54% 16.67%);" parent="1" vertex="1">
          <mxGeometry x="240.99999999999997" y="1497" width="129.22" height="27" as="geometry" />
        </mxCell>
      </root>
    </mxGraphModel>
  </diagram>
</mxfile>
